<svg width="250" height="250" viewBox="0 0 250 250" fill="none" xmlns="http://www.w3.org/2000/svg">
<path d="M179.685 65.69C161.375 49.69 136.59 65.69 112.51 99.36C88.4305 133.03 76.9805 118.86 56.5105 133.7C36.0405 148.54 30.5655 209.33 102.685 203.42C174.805 197.51 227.55 107.46 179.685 65.69Z" fill="#F0F0F0"/>
<path d="M201.92 226.565C201.92 226.635 167.2 226.695 124.385 226.695C81.57 226.695 46.835 226.635 46.835 226.565C46.835 226.495 81.55 226.435 124.385 226.435C167.22 226.435 201.92 226.5 201.92 226.565Z" fill="#263238"/>
<path d="M168.09 165.355C160.365 159.96 158.615 149.945 158.92 140.94C158.97 139.44 158.805 137.85 159.52 136.535C160.235 135.22 161.905 134.315 163.25 134.945C164.365 135.47 164.85 136.77 165.475 137.845C166.309 139.277 167.531 140.443 169 141.21C169.955 141.71 171.14 142.01 172.085 141.49C173.385 140.775 173.535 138.99 173.525 137.49C173.525 134.7 173.509 131.913 173.475 129.13C173.385 127.635 173.537 126.136 173.925 124.69C174.39 123.27 175.425 121.955 176.84 121.555C178.255 121.155 180.02 121.98 180.34 123.44C180.395 124.058 180.41 124.68 180.385 125.3C180.425 125.925 180.715 126.61 181.3 126.8C181.885 126.99 182.495 126.555 182.945 126.115C184.485 124.615 185.535 122.66 186.51 120.73C187.485 118.8 188.44 116.815 189.84 115.17C191.24 113.525 193.175 112.22 195.34 112.095C197.505 111.97 199.76 113.3 200.3 115.4C200.84 117.5 199.615 119.645 198.3 121.35C196.316 123.881 193.977 126.112 191.355 127.975C190.843 128.254 190.435 128.691 190.19 129.22C189.865 130.22 190.81 131.22 191.795 131.535C192.91 131.905 194.12 131.79 195.295 131.93C196.47 132.07 197.72 132.58 198.165 133.68C198.775 135.21 197.495 136.81 196.24 137.86C193.72 139.96 190.859 141.612 187.78 142.745C186.68 143.145 185.525 143.5 184.635 144.27C183.745 145.04 183.215 146.385 183.75 147.44C184.285 148.495 185.66 148.83 186.815 148.615C187.97 148.4 188.995 147.78 190.095 147.365C192.15 146.59 194.8 146.73 196.095 148.505C196.496 149.116 196.75 149.813 196.837 150.539C196.924 151.265 196.841 152.001 196.595 152.69C196.095 154.061 195.325 155.317 194.33 156.385C191.055 160.298 186.8 163.271 182 165C177.235 166.65 172.82 167.1 168.085 165.365" fill="#A2BFBD"/>
<path d="M198.1 113.33C198.1 113.33 198.055 113.38 197.955 113.47L197.51 113.865C197.12 114.215 196.545 114.725 195.82 115.4C193.765 117.309 191.856 119.369 190.11 121.565C188.995 122.95 187.84 124.52 186.61 126.225C185.38 127.93 184.11 129.77 182.85 131.725C181.507 133.787 180.277 135.92 179.165 138.115C178.585 139.26 178.075 140.455 177.55 141.675L176 145.4C173.957 150.092 172.178 154.895 170.67 159.785C169.456 163.786 168.619 167.893 168.17 172.05C167.88 174.856 167.833 177.681 168.03 180.495C168.11 181.495 168.185 182.26 168.255 182.78C168.285 183.03 168.305 183.23 168.325 183.375V183.58C168.304 183.515 168.289 183.448 168.28 183.38C168.255 183.235 168.225 183.04 168.185 182.79C168.095 182.29 168 181.5 167.91 180.5C167.669 177.681 167.686 174.846 167.96 172.03C168.381 167.855 169.2 163.73 170.405 159.71C171.9 154.806 173.675 149.991 175.72 145.29L177.31 141.58C177.835 140.365 178.35 139.16 178.935 138.01C180.055 135.808 181.295 133.67 182.65 131.605C183.93 129.605 185.22 127.795 186.435 126.105C187.65 124.415 188.825 122.835 189.935 121.455C191.699 119.265 193.633 117.219 195.72 115.335C196.46 114.67 197.05 114.17 197.45 113.835L197.915 113.46C197.972 113.41 198.034 113.367 198.1 113.33Z" fill="#263238"/>
<path d="M179 138C178.93 137.794 178.881 137.581 178.855 137.365C178.775 136.95 178.685 136.365 178.58 135.605C178.365 134.105 178.145 132.05 177.91 129.775C177.675 127.5 177.41 125.44 177.19 123.955C177.075 123.215 176.975 122.62 176.905 122.205C176.851 121.993 176.822 121.774 176.82 121.555C176.906 121.755 176.969 121.965 177.005 122.18C177.115 122.59 177.24 123.18 177.38 123.925C177.665 125.425 177.945 127.465 178.18 129.745C178.415 132.025 178.615 134.025 178.77 135.58C178.845 136.28 178.91 136.875 178.96 137.35C178.999 137.565 179.013 137.783 179 138Z" fill="#263238"/>
<path d="M198.24 134.41C197.997 134.463 197.749 134.493 197.5 134.5C197 134.545 196.29 134.605 195.41 134.705C193.65 134.895 191.23 135.245 188.575 135.745C185.92 136.245 183.535 136.81 181.82 137.245C180.965 137.465 180.275 137.665 179.82 137.8C179.577 137.886 179.326 137.946 179.07 137.98C179.301 137.864 179.542 137.768 179.79 137.695C180.26 137.53 180.94 137.3 181.79 137.055C183.495 136.555 185.88 135.96 188.545 135.45C190.803 135.018 193.081 134.701 195.37 134.5C196.255 134.425 196.97 134.395 197.47 134.385C197.727 134.367 197.985 134.376 198.24 134.41Z" fill="#263238"/>
<path d="M170.651 159.36C170.597 159.288 170.554 159.209 170.521 159.125L170.191 158.43C169.906 157.825 169.521 156.93 169.061 155.835C168.131 153.635 166.946 150.555 165.686 147.135C164.426 143.715 163.266 140.635 162.386 138.41C161.956 137.33 161.601 136.445 161.336 135.785L161.056 135.07C161.017 134.988 160.99 134.9 160.976 134.81C161.029 134.882 161.073 134.961 161.106 135.045L161.436 135.74C161.716 136.345 162.106 137.24 162.566 138.335C163.496 140.535 164.681 143.615 165.941 147.035C167.201 150.455 168.361 153.535 169.241 155.76C169.671 156.84 170.026 157.725 170.286 158.385C170.401 158.67 170.496 158.885 170.571 159.1C170.609 159.183 170.636 159.27 170.651 159.36Z" fill="#263238"/>
<path d="M196.191 151.125C196.11 151.171 196.025 151.206 195.936 151.23L195.196 151.48L192.461 152.365C190.151 153.115 186.961 154.185 183.461 155.365C179.961 156.545 176.755 157.595 174.43 158.295C173.27 158.65 172.326 158.92 171.671 159.1L170.915 159.295C170.828 159.323 170.737 159.341 170.646 159.35C170.726 159.304 170.811 159.269 170.9 159.245L171.641 158.995L174.376 158.11C176.686 157.36 179.876 156.29 183.376 155.11C186.876 153.93 190.075 152.88 192.4 152.18C193.565 151.825 194.505 151.555 195.165 151.375L195.921 151.18C196.008 151.152 196.099 151.134 196.191 151.125Z" fill="#263238"/>
<path d="M185.77 29.8401L183.195 30.7601L182.09 27.3951C180.06 21.1901 173.59 17.8951 167.645 19.9901C161.7 22.0851 158.535 28.8901 160.565 35.0951L161.67 38.4601L159.085 39.3851C158.099 39.7675 157.299 40.5149 156.85 41.4722C156.401 42.4294 156.338 43.5229 156.675 44.5251L163.84 66.4201C163.988 66.9163 164.235 67.3775 164.566 67.7763C164.896 68.1752 165.304 68.5035 165.763 68.7419C166.223 68.9802 166.726 69.1237 167.243 69.1637C167.759 69.2038 168.279 69.1397 168.77 68.9751L195.455 59.4301C196.453 59.0485 197.265 58.2944 197.719 57.3264C198.173 56.3585 198.235 55.2522 197.89 54.2401L190.72 32.3451C190.567 31.8504 190.316 31.3914 189.983 30.9956C189.649 30.5999 189.239 30.2754 188.777 30.0416C188.315 29.8078 187.81 29.6695 187.294 29.6349C186.777 29.6003 186.259 29.6701 185.77 29.8401ZM165.43 33.3401C164.882 31.7267 164.981 29.9641 165.704 28.4216C166.427 26.879 167.719 25.6762 169.31 25.0651C170.095 24.7964 170.926 24.6887 171.754 24.7483C172.582 24.8079 173.389 25.0337 174.128 25.4122C174.867 25.7906 175.522 26.314 176.054 26.951C176.586 27.5881 176.984 28.3258 177.225 29.1201L178.325 32.4851L166.53 36.7051L165.43 33.3401ZM180.43 52.7701L182.26 58.3601C182.293 58.4722 182.282 58.5929 182.229 58.6972C182.176 58.8015 182.085 58.8813 181.975 58.9201L179.41 59.8351C179.308 59.8634 179.199 59.8511 179.105 59.8008C179.012 59.7505 178.942 59.666 178.91 59.5651L177.065 54.0001C176.047 53.9447 175.071 53.5798 174.267 52.9543C173.463 52.3288 172.869 51.4725 172.565 50.5001C172.13 49.2146 172.209 47.8107 172.786 46.5823C173.363 45.3539 174.393 44.3964 175.66 43.9101C176.285 43.6964 176.947 43.6108 177.607 43.6584C178.266 43.706 178.909 43.8859 179.498 44.1873C180.086 44.4887 180.608 44.9055 181.031 45.4128C181.455 45.9201 181.773 46.5076 181.965 47.1401C182.286 48.1279 182.313 49.1881 182.041 50.1907C181.769 51.1934 181.211 52.095 180.435 52.7851L180.43 52.7701Z" fill="#A2BFBD"/>
<path d="M183.08 30.7C183.08 30.77 178.305 32.565 172.365 34.7C166.425 36.835 161.58 38.55 161.555 38.5C161.53 38.45 166.33 36.64 172.275 34.5C178.22 32.36 183.055 30.635 183.08 30.7Z" fill="#263238"/>
<path d="M188.749 31.6201C188.771 31.6635 188.79 31.7087 188.804 31.7551C188.844 31.8551 188.889 31.9851 188.949 32.1451C189.079 32.5101 189.259 33.0151 189.484 33.6451L191.404 39.2351C192.204 41.6051 193.159 44.4151 194.219 47.5351C194.719 49.1001 195.309 50.7301 195.859 52.4451C196.154 53.3289 196.281 54.2598 196.234 55.1901C196.192 55.674 196.054 56.1447 195.829 56.5751C195.589 57.0041 195.268 57.3827 194.884 57.6901C194.112 58.254 193.254 58.6912 192.344 58.9851L189.769 59.9101L184.894 61.6551L176.639 64.5951L171.064 66.5551L169.564 67.0551L169.164 67.1851C169.122 67.2041 169.076 67.216 169.029 67.2201C169.029 67.2201 169.069 67.2201 169.154 67.1601L169.544 67.0051L171.044 66.4401L176.589 64.4001L184.829 61.4001L189.694 59.6401L192.269 58.7101C193.154 58.4281 193.986 58.0042 194.734 57.4551C195.091 57.1699 195.39 56.8185 195.614 56.4201C195.826 56.022 195.954 55.5846 195.989 55.1351C196.035 54.2387 195.913 53.3416 195.629 52.4901C195.089 50.7901 194.519 49.1451 194.004 47.5801C192.964 44.4551 192.004 41.6351 191.244 39.2651C190.484 36.8951 189.844 34.9901 189.404 33.6501C189.194 32.9951 189.034 32.4851 188.904 32.1151L188.784 31.7151C188.769 31.6848 188.757 31.653 188.749 31.6201Z" fill="#263238"/>
<path d="M174.67 24.7251C174.67 24.7251 174.405 24.5951 173.915 24.3951C173.216 24.1268 172.478 23.978 171.73 23.9551C170.621 23.9171 169.518 24.1254 168.5 24.5651C167.262 25.1126 166.203 25.9982 165.445 27.1201C164.682 28.2389 164.273 29.561 164.27 30.9151C164.28 32.025 164.449 33.1277 164.77 34.1901C165.03 35.1001 165.3 35.8251 165.48 36.3301C165.586 36.5866 165.673 36.8507 165.74 37.1201C165.598 36.8803 165.479 36.6275 165.385 36.3651C165.18 35.8651 164.885 35.1551 164.595 34.2401C164.239 33.1666 164.045 32.0459 164.02 30.9151C164.007 29.5098 164.425 28.1344 165.22 26.9751C166.004 25.8122 167.106 24.8992 168.395 24.3451C169.445 23.903 170.582 23.708 171.72 23.7751C172.484 23.8141 173.235 23.992 173.935 24.3001C174.122 24.3865 174.303 24.4868 174.475 24.6001C174.546 24.6314 174.612 24.6735 174.67 24.7251Z" fill="#263238"/>
<path d="M174.9 44.2899C174.979 44.2415 175.063 44.1997 175.15 44.1649C175.4 44.052 175.659 43.96 175.925 43.8899C176.346 43.7655 176.781 43.6917 177.22 43.6699C177.817 43.6378 178.414 43.728 178.975 43.9349C180.255 44.3849 181.43 45.6899 182.01 47.4349C182.288 48.3714 182.288 49.3685 182.01 50.3049C181.701 51.3213 181.148 52.2466 180.4 52.9999L180.43 52.8649C181.095 54.6899 181.82 56.6699 182.57 58.7349L182.615 58.8599L182.49 58.9049L181.345 59.2849L178.845 60.1199L178.72 60.1599L178.68 60.0349C177.995 57.9649 177.245 56.0349 176.68 54.1399L176.79 54.2249C175.812 54.1437 174.88 53.7768 174.11 53.1699C173.413 52.633 172.841 51.9504 172.435 51.1699C172.068 50.4777 171.886 49.7029 171.905 48.9199C171.928 48.1196 172.128 47.3344 172.49 46.6204C172.852 45.9064 173.368 45.2813 174 44.7899C174.26 44.5787 174.552 44.41 174.865 44.2899C174.582 44.4575 174.309 44.6394 174.045 44.8349C173.35 45.4223 172.818 46.1781 172.5 47.0299C172.226 47.6722 172.098 48.3671 172.125 49.0648C172.152 49.7624 172.333 50.4455 172.655 51.0649C173.054 51.8158 173.612 52.4709 174.29 52.9849C175.025 53.5618 175.913 53.9096 176.845 53.9849H176.93L176.955 54.0599C177.505 55.9199 178.26 57.8649 178.955 59.9449L178.79 59.8649L181.29 59.0299L182.43 58.6449L182.35 58.8149C181.605 56.7499 180.885 54.7649 180.225 52.9399V52.8649L180.285 52.8049C181.012 52.0828 181.554 51.1961 181.865 50.2199C182.13 49.3241 182.13 48.3707 181.865 47.4749C181.32 45.7949 180.195 44.5199 178.975 44.0699C178.435 43.8617 177.858 43.7647 177.28 43.7849C176.848 43.7948 176.418 43.8535 176 43.9599C175.255 44.1449 174.905 44.3149 174.9 44.2899Z" fill="#263238"/>
<path d="M159.445 188.66L109.5 188.43C106.616 188.414 103.856 187.254 101.826 185.205C99.7962 183.155 98.6629 180.384 98.6749 177.5L99.2049 52.295C99.2108 50.866 99.4983 49.4522 100.051 48.1344C100.603 46.8166 101.41 45.6206 102.425 44.6148C103.441 43.609 104.644 42.8131 105.967 42.2727C107.29 41.7322 108.706 41.4577 110.135 41.465L160.075 41.695C162.959 41.7095 165.72 42.8683 167.75 44.9167C169.781 46.9651 170.916 49.7357 170.905 52.62L170.375 177.82C170.369 179.249 170.082 180.664 169.529 181.982C168.977 183.3 168.17 184.497 167.155 185.504C166.14 186.51 164.937 187.307 163.614 187.849C162.291 188.39 160.874 188.666 159.445 188.66Z" fill="#455A64"/>
<path d="M160 46.0002H150.32C150.004 46.0061 149.693 46.0741 149.403 46.2004C149.114 46.3267 148.852 46.5088 148.633 46.7363C148.413 46.9638 148.241 47.2323 148.126 47.5264C148.01 47.8204 147.954 48.1344 147.96 48.4502V50.2052C147.966 50.5208 147.91 50.8345 147.794 51.1283C147.679 51.4221 147.507 51.6902 147.287 51.9173C147.068 52.1444 146.806 52.3261 146.517 52.4518C146.227 52.5776 145.916 52.645 145.6 52.6502L126.73 52.5652C126.092 52.5482 125.486 52.2785 125.047 51.8154C124.607 51.3523 124.369 50.7336 124.385 50.0952V48.3402C124.401 47.7027 124.164 47.0847 123.725 46.6218C123.287 46.1588 122.683 45.8885 122.045 45.8702H118.64L110.165 45.8302C108.149 45.8182 106.211 46.6055 104.774 48.0196C103.338 49.4337 102.52 51.3595 102.5 53.3752L102 175.585C101.995 176.585 102.188 177.576 102.566 178.502C102.945 179.428 103.502 180.27 104.206 180.98C104.91 181.69 105.746 182.255 106.669 182.642C107.591 183.029 108.58 183.231 109.58 183.235L159.42 183.465C160.421 183.47 161.413 183.277 162.339 182.899C163.265 182.52 164.108 181.962 164.819 181.258C165.529 180.554 166.094 179.716 166.482 178.794C166.869 177.871 167.07 176.881 167.075 175.88L167.575 53.6702C167.587 51.6488 166.796 49.7053 165.375 48.2671C163.955 46.8288 162.021 46.0134 160 46.0002Z" fill="white"/>
<path d="M153.295 167.16L116.235 167C115.85 167 115.54 166.58 115.545 166.07L115.585 156.375C115.585 155.875 115.9 155.445 116.285 155.445L153.345 155.615C153.558 155.652 153.749 155.77 153.878 155.944C154.006 156.118 154.063 156.335 154.035 156.55L154 166.235C154 166.75 153.68 167.165 153.295 167.16Z" fill="#A2BFBD"/>
<path d="M130.245 161.89C130.21 161.598 130.07 161.371 129.823 161.209C129.577 161.047 129.275 160.966 128.917 160.966C128.655 160.966 128.426 161.009 128.23 161.093C128.035 161.178 127.883 161.295 127.773 161.443C127.666 161.591 127.612 161.76 127.612 161.948C127.612 162.106 127.649 162.242 127.724 162.355C127.801 162.467 127.899 162.56 128.019 162.635C128.138 162.709 128.263 162.769 128.394 162.817C128.525 162.864 128.645 162.901 128.755 162.93L129.356 163.092C129.51 163.132 129.681 163.188 129.87 163.259C130.06 163.33 130.242 163.428 130.415 163.551C130.591 163.672 130.735 163.828 130.849 164.019C130.962 164.209 131.019 164.443 131.019 164.72C131.019 165.04 130.935 165.329 130.768 165.586C130.602 165.844 130.36 166.049 130.04 166.202C129.722 166.354 129.336 166.43 128.882 166.43C128.459 166.43 128.092 166.361 127.782 166.225C127.474 166.088 127.231 165.897 127.054 165.653C126.879 165.408 126.78 165.124 126.757 164.801H127.496C127.515 165.024 127.59 165.209 127.721 165.355C127.854 165.5 128.022 165.608 128.224 165.679C128.428 165.748 128.647 165.783 128.882 165.783C129.156 165.783 129.401 165.739 129.618 165.65C129.836 165.56 130.008 165.434 130.135 165.275C130.262 165.113 130.326 164.924 130.326 164.709C130.326 164.512 130.271 164.353 130.161 164.229C130.052 164.106 129.907 164.006 129.728 163.929C129.549 163.852 129.356 163.785 129.148 163.727L128.42 163.519C127.958 163.386 127.592 163.197 127.323 162.95C127.053 162.704 126.919 162.381 126.919 161.983C126.919 161.652 127.008 161.363 127.187 161.117C127.368 160.868 127.611 160.676 127.915 160.539C128.221 160.4 128.563 160.331 128.94 160.331C129.321 160.331 129.66 160.4 129.956 160.536C130.253 160.671 130.488 160.856 130.661 161.091C130.836 161.325 130.928 161.592 130.938 161.89H130.245ZM132.912 160.412V166.326H132.196V160.412H132.912ZM139.038 160.412V166.326H138.345L135.122 161.683H135.064V166.326H134.348V160.412H135.041L138.275 165.067H138.333V160.412H139.038ZM131.054 172.26C130.99 172.066 130.906 171.891 130.802 171.737C130.7 171.581 130.578 171.449 130.436 171.339C130.295 171.229 130.135 171.145 129.956 171.088C129.777 171.03 129.581 171.001 129.367 171.001C129.017 171.001 128.698 171.092 128.411 171.273C128.125 171.453 127.897 171.72 127.727 172.072C127.558 172.425 127.473 172.857 127.473 173.369C127.473 173.881 127.559 174.313 127.73 174.665C127.901 175.018 128.133 175.284 128.426 175.465C128.719 175.646 129.048 175.737 129.413 175.737C129.752 175.737 130.051 175.664 130.309 175.52C130.568 175.374 130.771 175.168 130.915 174.902C131.061 174.635 131.134 174.32 131.134 173.958L131.354 174.004H129.575V173.369H131.827V174.004C131.827 174.491 131.723 174.915 131.516 175.275C131.31 175.635 131.025 175.914 130.661 176.112C130.299 176.308 129.883 176.407 129.413 176.407C128.89 176.407 128.43 176.283 128.033 176.037C127.639 175.791 127.331 175.44 127.109 174.986C126.89 174.532 126.78 173.993 126.78 173.369C126.78 172.901 126.843 172.48 126.968 172.107C127.095 171.732 127.274 171.412 127.505 171.148C127.736 170.885 128.009 170.682 128.325 170.542C128.641 170.401 128.988 170.331 129.367 170.331C129.679 170.331 129.97 170.378 130.239 170.473C130.511 170.565 130.752 170.697 130.964 170.868C131.178 171.038 131.356 171.241 131.498 171.478C131.641 171.712 131.739 171.973 131.793 172.26H131.054ZM130.892 180.412H131.608V184.328C131.608 184.732 131.513 185.093 131.322 185.41C131.133 185.726 130.867 185.975 130.522 186.158C130.178 186.339 129.773 186.43 129.31 186.43C128.846 186.43 128.441 186.339 128.097 186.158C127.752 185.975 127.485 185.726 127.294 185.41C127.105 185.093 127.011 184.732 127.011 184.328V180.412H127.727V184.27C127.727 184.559 127.791 184.816 127.918 185.041C128.045 185.264 128.226 185.44 128.461 185.569C128.697 185.696 128.98 185.76 129.31 185.76C129.639 185.76 129.922 185.696 130.158 185.569C130.395 185.44 130.576 185.264 130.701 185.041C130.828 184.816 130.892 184.559 130.892 184.27V180.412ZM133.038 186.326V180.412H135.036C135.5 180.412 135.879 180.496 136.174 180.663C136.47 180.829 136.69 181.053 136.832 181.336C136.975 181.619 137.046 181.935 137.046 182.283C137.046 182.632 136.975 182.948 136.832 183.233C136.692 183.518 136.474 183.745 136.18 183.915C135.885 184.082 135.508 184.166 135.048 184.166H133.616V183.531H135.025C135.342 183.531 135.597 183.476 135.79 183.366C135.982 183.256 136.122 183.108 136.209 182.921C136.297 182.733 136.341 182.52 136.341 182.283C136.341 182.046 136.297 181.835 136.209 181.648C136.122 181.461 135.981 181.315 135.787 181.209C135.593 181.101 135.335 181.047 135.013 181.047H133.754V186.326H133.038Z" fill="#E8E8E3"/>
<path d="M123.626 81.9251L110.767 81.8667L110.756 84.2267L123.616 84.285L123.626 81.9251Z" fill="#A2BFBD"/>
<path opacity="0.1" d="M123.626 81.9251L110.767 81.8667L110.756 84.2267L123.616 84.285L123.626 81.9251Z" fill="black"/>
<path d="M161.325 96.415C161.426 96.4048 161.525 96.3813 161.62 96.345C161.758 96.2909 161.879 96.1989 161.967 96.0795C162.056 95.9601 162.108 95.8182 162.12 95.67C162.12 94.875 162.12 93.715 162.12 92.225C162.12 91.48 162.12 90.645 162.12 89.725C162.12 89.5 162.12 89.265 162.12 89.03C162.153 88.802 162.103 88.5698 161.98 88.375C161.911 88.2817 161.822 88.2055 161.718 88.1526C161.615 88.0997 161.501 88.0714 161.385 88.07H160.605H153.38L111.56 87.915C111.453 87.9132 111.347 87.9373 111.251 87.9852C111.155 88.033 111.073 88.1033 111.01 88.1901C110.889 88.3856 110.843 88.6182 110.88 88.8451C110.88 89.3451 110.88 89.8451 110.88 90.3451C110.88 91.3451 110.88 92.3451 110.88 93.3451C110.88 93.8451 110.88 94.3451 110.88 94.8451C110.859 95.0779 110.859 95.3122 110.88 95.545C110.906 95.6449 110.955 95.7374 111.023 95.8154C111.09 95.8934 111.175 95.9549 111.27 95.9951C111.368 96.0343 111.474 96.053 111.58 96.0501H114.125L125.23 96.11L144.03 96.225L156.705 96.325L160.15 96.365H161.045C161.25 96.365 161.35 96.365 161.35 96.365H161.045H160.15H156.705H144.03L125.23 96.305L114.125 96.2601H111.58C111.44 96.2657 111.3 96.2419 111.17 96.1901C111.038 96.1339 110.921 96.0484 110.828 95.94C110.734 95.8317 110.666 95.7035 110.63 95.5651C110.601 95.4338 110.591 95.2991 110.6 95.1651V94.795C110.6 94.295 110.6 93.795 110.6 93.295C110.6 92.295 110.6 91.295 110.6 90.295C110.6 89.795 110.6 89.295 110.6 88.795C110.59 88.6619 110.59 88.5282 110.6 88.395C110.619 88.248 110.676 88.1083 110.765 87.99C110.851 87.8694 110.965 87.7713 111.098 87.7043C111.23 87.6372 111.377 87.6032 111.525 87.6051L153.345 87.835L160.57 87.8851H161.35C161.487 87.8852 161.623 87.9184 161.745 87.9819C161.866 88.0455 161.971 88.1374 162.05 88.25C162.191 88.4674 162.248 88.7287 162.21 88.985C162.21 89.22 162.21 89.455 162.21 89.68C162.21 90.59 162.21 91.425 162.21 92.18C162.21 93.68 162.175 94.83 162.165 95.63C162.153 95.7839 162.097 95.931 162.004 96.0541C161.911 96.1772 161.785 96.2712 161.64 96.325C161.545 96.3837 161.436 96.4149 161.325 96.415Z" fill="#E0E0E0"/>
<path d="M138.15 90.4248H114.63V92.6298H138.15V90.4248Z" fill="#A2BFBD"/>
<path opacity="0.2" d="M138.15 90.4248H114.63V92.6298H138.15V90.4248Z" fill="white"/>
<path d="M123.54 103.454L110.68 103.396L110.669 105.756L123.529 105.814L123.54 103.454Z" fill="#A2BFBD"/>
<path opacity="0.1" d="M123.54 103.454L110.68 103.396L110.669 105.756L123.529 105.814L123.54 103.454Z" fill="black"/>
<path d="M160.999 117.945C161.1 117.933 161.201 117.914 161.299 117.89C161.439 117.845 161.568 117.772 161.676 117.673C161.785 117.575 161.871 117.454 161.929 117.32C162.008 117.118 162.039 116.901 162.019 116.685C162.019 116.445 162.019 116.185 162.019 115.895C162.019 115.315 162.019 114.655 162.019 113.895V110.72C162.043 110.49 161.992 110.259 161.874 110.06C161.751 109.856 161.557 109.705 161.329 109.635C161.08 109.59 160.827 109.577 160.574 109.595H153.379L111.704 109.44C111.48 109.44 111.264 109.522 111.096 109.67C110.927 109.819 110.819 110.023 110.789 110.245C110.789 110.72 110.789 111.245 110.789 111.745C110.789 112.745 110.789 113.745 110.789 114.745C110.789 115.245 110.789 115.745 110.789 116.245C110.771 116.479 110.781 116.714 110.819 116.945C110.882 117.148 111.01 117.324 111.184 117.445C111.369 117.562 111.586 117.618 111.804 117.605H112.499H113.944L125.009 117.66L143.744 117.775L156.374 117.875L159.809 117.915H156.374H143.744L124.999 117.895L113.934 117.855H111.759C111.489 117.871 111.221 117.799 110.994 117.65C110.767 117.492 110.601 117.261 110.524 116.995C110.48 116.741 110.466 116.482 110.484 116.225C110.484 115.725 110.484 115.225 110.484 114.725C110.484 113.725 110.484 112.725 110.484 111.725C110.484 111.225 110.484 110.725 110.484 110.225C110.521 109.939 110.66 109.676 110.877 109.486C111.093 109.295 111.371 109.19 111.659 109.19L153.334 109.42L160.529 109.475C160.797 109.459 161.066 109.477 161.329 109.53C161.589 109.615 161.808 109.793 161.944 110.03C162.074 110.25 162.13 110.506 162.104 110.76C162.104 110.995 162.104 111.225 162.104 111.455C162.104 112.36 162.104 113.19 162.104 113.955C162.104 114.72 162.104 115.365 162.104 115.955C162.104 116.24 162.104 116.505 162.104 116.75C162.123 116.974 162.087 117.198 161.999 117.405C161.935 117.543 161.841 117.665 161.724 117.764C161.608 117.862 161.471 117.934 161.324 117.975C161.215 117.984 161.105 117.974 160.999 117.945Z" fill="#E0E0E0"/>
<path d="M123.442 125.919L110.582 125.86L110.571 128.22L123.431 128.279L123.442 125.919Z" fill="#A2BFBD"/>
<path opacity="0.1" d="M123.442 125.919L110.582 125.86L110.571 128.22L123.431 128.279L123.442 125.919Z" fill="black"/>
<path d="M160.9 140.4C161.001 140.388 161.101 140.37 161.2 140.345C161.339 140.301 161.467 140.228 161.575 140.13C161.684 140.033 161.771 139.913 161.83 139.78C161.908 139.578 161.939 139.361 161.92 139.145C161.92 138.9 161.92 138.645 161.92 138.35C161.92 137.775 161.92 137.11 161.92 136.35V133.175C161.944 132.945 161.893 132.714 161.775 132.515C161.648 132.315 161.455 132.166 161.23 132.095C160.981 132.049 160.727 132.034 160.475 132.05H153.28L111.605 131.895C111.381 131.896 111.164 131.978 110.996 132.126C110.828 132.274 110.719 132.478 110.69 132.7C110.69 133.2 110.69 133.7 110.69 134.2C110.69 135.2 110.69 136.2 110.69 137.2C110.69 137.7 110.69 138.2 110.69 138.7C110.671 138.932 110.681 139.166 110.72 139.395C110.78 139.599 110.909 139.776 111.085 139.895C111.268 140.015 111.486 140.071 111.705 140.055H113.88L124.945 140.115L143.68 140.23L156.31 140.33L159.745 140.37H156.31H143.68L124.945 140.315L113.88 140.27H111.705C111.434 140.288 111.165 140.216 110.94 140.065C110.712 139.907 110.546 139.676 110.47 139.41C110.425 139.156 110.412 138.897 110.43 138.64C110.43 138.14 110.43 137.64 110.43 137.14C110.43 136.14 110.43 135.14 110.43 134.14C110.43 133.64 110.43 133.14 110.43 132.615C110.465 132.33 110.604 132.067 110.819 131.876C111.034 131.686 111.312 131.58 111.6 131.58L153.275 131.81L160.47 131.865C160.738 131.849 161.007 131.867 161.27 131.92C161.53 132.005 161.749 132.183 161.885 132.42C162.014 132.64 162.07 132.896 162.045 133.15C162.045 133.385 162.045 133.62 162.045 133.845C162.045 134.75 162.045 135.58 162.045 136.345C162.045 137.11 162.045 137.755 162.045 138.345C162.045 138.63 162.045 138.895 162.045 139.14C162.064 139.364 162.028 139.589 161.94 139.795C161.875 139.933 161.781 140.055 161.664 140.154C161.548 140.252 161.412 140.324 161.265 140.365C161.148 140.405 161.022 140.417 160.9 140.4Z" fill="#E0E0E0"/>
<path d="M137.648 112.578L114.128 112.472L114.118 114.677L137.638 114.783L137.648 112.578Z" fill="#A2BFBD"/>
<path opacity="0.2" d="M137.648 112.578L114.128 112.472L114.118 114.677L137.638 114.783L137.648 112.578Z" fill="white"/>
<path d="M116.255 136.32C116.24 136.521 116.166 136.714 116.043 136.873C115.92 137.033 115.753 137.153 115.562 137.219C115.371 137.284 115.166 137.293 114.97 137.242C114.775 137.192 114.599 137.086 114.464 136.936C114.328 136.786 114.24 136.6 114.209 136.401C114.179 136.202 114.207 135.998 114.291 135.815C114.376 135.631 114.512 135.477 114.683 135.37C114.854 135.264 115.053 135.21 115.255 135.215C115.533 135.231 115.794 135.355 115.981 135.562C116.169 135.769 116.267 136.041 116.255 136.32Z" fill="#A2BFBD"/>
<path d="M119.44 136.335C119.45 136.476 119.431 136.618 119.384 136.751C119.337 136.884 119.262 137.006 119.166 137.109C119.07 137.213 118.953 137.295 118.823 137.351C118.694 137.408 118.554 137.437 118.413 137.437C118.272 137.437 118.132 137.408 118.002 137.351C117.873 137.295 117.756 137.213 117.66 137.109C117.563 137.006 117.489 136.884 117.442 136.751C117.395 136.618 117.375 136.476 117.385 136.335C117.375 136.194 117.395 136.053 117.442 135.919C117.489 135.786 117.563 135.664 117.66 135.561C117.756 135.458 117.873 135.375 118.002 135.319C118.132 135.262 118.272 135.233 118.413 135.233C118.554 135.233 118.694 135.262 118.823 135.319C118.953 135.375 119.07 135.458 119.166 135.561C119.262 135.664 119.337 135.786 119.384 135.919C119.431 136.053 119.45 136.194 119.44 136.335Z" fill="#A2BFBD"/>
<path d="M122.63 136.35C122.615 136.551 122.541 136.743 122.418 136.903C122.295 137.063 122.128 137.183 121.937 137.249C121.746 137.314 121.541 137.322 121.345 137.272C121.15 137.222 120.974 137.115 120.839 136.966C120.703 136.816 120.615 136.63 120.584 136.431C120.554 136.232 120.582 136.028 120.666 135.844C120.751 135.661 120.887 135.507 121.058 135.4C121.229 135.294 121.428 135.24 121.63 135.245C121.908 135.262 122.168 135.387 122.355 135.593C122.542 135.8 122.64 136.072 122.63 136.35Z" fill="#A2BFBD"/>
<path d="M125.815 136.365C125.8 136.566 125.727 136.759 125.604 136.918C125.481 137.078 125.313 137.198 125.123 137.264C124.932 137.329 124.726 137.338 124.531 137.287C124.336 137.237 124.159 137.13 124.024 136.981C123.889 136.831 123.8 136.645 123.77 136.446C123.739 136.247 123.768 136.043 123.852 135.86C123.936 135.676 124.072 135.522 124.244 135.415C124.415 135.309 124.613 135.255 124.815 135.26C125.093 135.277 125.354 135.402 125.541 135.609C125.727 135.815 125.826 136.087 125.815 136.365Z" fill="#A2BFBD"/>
<path d="M129 136.375C128.986 136.576 128.914 136.769 128.791 136.93C128.668 137.09 128.501 137.211 128.311 137.277C128.12 137.344 127.914 137.352 127.718 137.303C127.523 137.253 127.346 137.147 127.21 136.997C127.074 136.848 126.986 136.662 126.955 136.462C126.924 136.263 126.952 136.059 127.036 135.875C127.12 135.692 127.256 135.537 127.428 135.43C127.599 135.323 127.798 135.269 128 135.275C128.277 135.292 128.537 135.416 128.724 135.621C128.91 135.827 129.01 136.097 129 136.375Z" fill="#A2BFBD"/>
<path d="M132.189 136.39C132.176 136.59 132.104 136.782 131.983 136.942C131.861 137.102 131.696 137.224 131.506 137.291C131.317 137.358 131.112 137.368 130.917 137.321C130.722 137.273 130.545 137.169 130.408 137.022C130.271 136.875 130.18 136.692 130.147 136.494C130.113 136.296 130.138 136.092 130.218 135.908C130.298 135.724 130.431 135.567 130.599 135.458C130.767 135.348 130.964 135.29 131.164 135.29C131.446 135.3 131.712 135.422 131.904 135.628C132.096 135.834 132.199 136.108 132.189 136.39Z" fill="#A2BFBD"/>
<path d="M135.375 136.405C135.385 136.546 135.365 136.687 135.318 136.821C135.271 136.954 135.197 137.076 135.101 137.179C135.004 137.283 134.888 137.365 134.758 137.421C134.628 137.478 134.489 137.507 134.347 137.507C134.206 137.507 134.066 137.478 133.937 137.421C133.807 137.365 133.691 137.283 133.594 137.179C133.498 137.076 133.424 136.954 133.376 136.821C133.329 136.687 133.31 136.546 133.32 136.405C133.31 136.264 133.329 136.122 133.376 135.989C133.424 135.856 133.498 135.734 133.594 135.631C133.691 135.527 133.807 135.445 133.937 135.389C134.066 135.332 134.206 135.303 134.347 135.303C134.489 135.303 134.628 135.332 134.758 135.389C134.888 135.445 135.004 135.527 135.101 135.631C135.197 135.734 135.271 135.856 135.318 135.989C135.365 136.122 135.385 136.264 135.375 136.405Z" fill="#A2BFBD"/>
<path d="M138.56 136.42C138.546 136.62 138.474 136.812 138.353 136.972C138.231 137.132 138.066 137.253 137.876 137.32C137.687 137.388 137.482 137.398 137.287 137.35C137.092 137.303 136.915 137.199 136.778 137.052C136.641 136.905 136.551 136.721 136.517 136.523C136.483 136.325 136.508 136.122 136.588 135.938C136.668 135.754 136.801 135.597 136.969 135.487C137.137 135.378 137.334 135.319 137.535 135.32C137.816 135.33 138.082 135.452 138.274 135.658C138.466 135.864 138.569 136.138 138.56 136.42Z" fill="#A2BFBD"/>
<path d="M141.745 136.435C141.731 136.636 141.659 136.829 141.536 136.99C141.414 137.15 141.247 137.271 141.056 137.337C140.865 137.404 140.659 137.412 140.464 137.363C140.268 137.313 140.091 137.207 139.955 137.057C139.82 136.908 139.731 136.722 139.7 136.522C139.669 136.323 139.697 136.119 139.781 135.935C139.865 135.752 140.002 135.597 140.173 135.49C140.344 135.383 140.543 135.329 140.745 135.335C141.022 135.352 141.282 135.476 141.469 135.681C141.656 135.887 141.755 136.157 141.745 136.435Z" fill="#A2BFBD"/>
<g opacity="0.2">
<path d="M116.255 136.32C116.24 136.521 116.166 136.714 116.043 136.873C115.92 137.033 115.753 137.153 115.562 137.219C115.371 137.284 115.166 137.293 114.97 137.242C114.775 137.192 114.599 137.086 114.464 136.936C114.328 136.786 114.24 136.6 114.209 136.401C114.179 136.202 114.207 135.998 114.291 135.815C114.376 135.631 114.512 135.477 114.683 135.37C114.854 135.264 115.053 135.21 115.255 135.215C115.533 135.231 115.794 135.355 115.981 135.562C116.169 135.769 116.267 136.041 116.255 136.32Z" fill="white"/>
<path d="M119.439 136.335C119.449 136.476 119.43 136.618 119.383 136.751C119.336 136.884 119.261 137.006 119.165 137.109C119.069 137.213 118.952 137.295 118.823 137.351C118.693 137.408 118.553 137.437 118.412 137.437C118.271 137.437 118.131 137.408 118.001 137.351C117.872 137.295 117.755 137.213 117.659 137.109C117.562 137.006 117.488 136.884 117.441 136.751C117.394 136.618 117.374 136.476 117.384 136.335C117.374 136.194 117.394 136.053 117.441 135.919C117.488 135.786 117.562 135.664 117.659 135.561C117.755 135.458 117.872 135.375 118.001 135.319C118.131 135.262 118.271 135.233 118.412 135.233C118.553 135.233 118.693 135.262 118.823 135.319C118.952 135.375 119.069 135.458 119.165 135.561C119.261 135.664 119.336 135.786 119.383 135.919C119.43 136.053 119.449 136.194 119.439 136.335Z" fill="white"/>
<path d="M122.63 136.35C122.615 136.551 122.541 136.743 122.418 136.903C122.295 137.063 122.128 137.183 121.937 137.249C121.746 137.314 121.541 137.322 121.345 137.272C121.15 137.222 120.974 137.115 120.839 136.966C120.703 136.816 120.615 136.63 120.584 136.431C120.554 136.232 120.582 136.028 120.666 135.844C120.751 135.661 120.887 135.507 121.058 135.4C121.229 135.294 121.428 135.24 121.63 135.245C121.908 135.262 122.168 135.387 122.355 135.593C122.542 135.8 122.64 136.072 122.63 136.35Z" fill="white"/>
<path d="M125.814 136.365C125.799 136.566 125.726 136.759 125.603 136.918C125.48 137.078 125.312 137.198 125.122 137.264C124.931 137.329 124.725 137.338 124.53 137.287C124.335 137.237 124.158 137.13 124.023 136.981C123.888 136.831 123.799 136.645 123.769 136.446C123.738 136.247 123.767 136.043 123.851 135.86C123.935 135.676 124.071 135.522 124.243 135.415C124.414 135.309 124.612 135.255 124.814 135.26C125.092 135.277 125.353 135.402 125.54 135.609C125.726 135.815 125.825 136.087 125.814 136.365Z" fill="white"/>
<path d="M129 136.375C128.986 136.577 128.914 136.77 128.791 136.93C128.668 137.091 128.501 137.211 128.311 137.278C128.12 137.344 127.914 137.353 127.718 137.303C127.523 137.253 127.346 137.147 127.21 136.998C127.074 136.848 126.986 136.662 126.955 136.463C126.924 136.263 126.952 136.059 127.036 135.876C127.12 135.692 127.256 135.537 127.428 135.431C127.599 135.324 127.798 135.27 128 135.275C128.277 135.292 128.537 135.416 128.724 135.622C128.91 135.827 129.01 136.098 129 136.375Z" fill="white"/>
<path d="M132.189 136.39C132.176 136.59 132.104 136.782 131.983 136.942C131.861 137.102 131.696 137.224 131.506 137.291C131.317 137.358 131.112 137.368 130.917 137.321C130.722 137.273 130.545 137.169 130.408 137.022C130.271 136.875 130.18 136.692 130.147 136.494C130.113 136.296 130.138 136.092 130.218 135.908C130.298 135.724 130.431 135.567 130.599 135.458C130.767 135.348 130.964 135.29 131.164 135.29C131.446 135.3 131.712 135.422 131.904 135.628C132.096 135.834 132.199 136.108 132.189 136.39Z" fill="white"/>
<path d="M135.375 136.405C135.385 136.546 135.365 136.688 135.318 136.821C135.271 136.954 135.197 137.076 135.101 137.18C135.004 137.283 134.888 137.365 134.758 137.422C134.628 137.478 134.489 137.507 134.347 137.507C134.206 137.507 134.066 137.478 133.937 137.422C133.807 137.365 133.691 137.283 133.594 137.18C133.498 137.076 133.424 136.954 133.376 136.821C133.329 136.688 133.31 136.546 133.32 136.405C133.31 136.264 133.329 136.123 133.376 135.99C133.424 135.857 133.498 135.735 133.594 135.631C133.691 135.528 133.807 135.445 133.937 135.389C134.066 135.333 134.206 135.304 134.347 135.304C134.489 135.304 134.628 135.333 134.758 135.389C134.888 135.445 135.004 135.528 135.101 135.631C135.197 135.735 135.271 135.857 135.318 135.99C135.365 136.123 135.385 136.264 135.375 136.405Z" fill="white"/>
<path d="M138.56 136.42C138.546 136.621 138.474 136.813 138.353 136.973C138.231 137.133 138.066 137.254 137.876 137.321C137.687 137.388 137.482 137.399 137.287 137.351C137.092 137.303 136.915 137.199 136.778 137.052C136.641 136.906 136.551 136.722 136.517 136.524C136.483 136.326 136.508 136.122 136.588 135.938C136.668 135.754 136.801 135.598 136.969 135.488C137.137 135.378 137.334 135.32 137.535 135.32C137.816 135.331 138.082 135.452 138.274 135.659C138.466 135.865 138.569 136.139 138.56 136.42Z" fill="white"/>
<path d="M141.744 136.435C141.73 136.637 141.658 136.83 141.535 136.99C141.413 137.151 141.246 137.271 141.055 137.338C140.864 137.404 140.658 137.413 140.463 137.363C140.267 137.313 140.09 137.207 139.954 137.058C139.819 136.908 139.73 136.722 139.699 136.523C139.668 136.323 139.696 136.119 139.78 135.936C139.864 135.752 140.001 135.597 140.172 135.491C140.343 135.384 140.542 135.33 140.744 135.335C141.021 135.352 141.281 135.476 141.468 135.682C141.655 135.887 141.754 136.158 141.744 136.435Z" fill="white"/>
</g>
<path d="M137.219 64.2548C137.567 64.1018 137.861 63.8501 138.067 63.531C138.272 63.2118 138.379 62.8393 138.374 62.4598C138.387 62.2131 138.35 61.9663 138.264 61.7346C138.179 61.5028 138.047 61.2909 137.877 61.1117C137.707 60.9325 137.502 60.7898 137.275 60.6922C137.048 60.5947 136.804 60.5444 136.557 60.5444C136.31 60.5444 136.065 60.5947 135.839 60.6922C135.612 60.7898 135.407 60.9325 135.237 61.1117C135.067 61.2909 134.935 61.5028 134.849 61.7346C134.764 61.9663 134.727 62.2131 134.739 62.4598C134.732 62.8431 134.838 63.22 135.044 63.5431C135.251 63.8661 135.548 64.1207 135.899 64.2748C133.099 64.6948 133.224 67.7348 133.224 67.7348L139.844 67.7648C139.844 67.7648 139.999 64.6698 137.219 64.2548Z" fill="#A2BFBD"/>
<path opacity="0.1" d="M137.219 64.2548C137.567 64.1018 137.861 63.8501 138.067 63.531C138.272 63.2118 138.379 62.8393 138.374 62.4598C138.387 62.2131 138.35 61.9663 138.264 61.7346C138.179 61.5028 138.047 61.2909 137.877 61.1117C137.707 60.9325 137.502 60.7898 137.275 60.6922C137.048 60.5947 136.804 60.5444 136.557 60.5444C136.31 60.5444 136.065 60.5947 135.839 60.6922C135.612 60.7898 135.407 60.9325 135.237 61.1117C135.067 61.2909 134.935 61.5028 134.849 61.7346C134.764 61.9663 134.727 62.2131 134.739 62.4598C134.732 62.8431 134.838 63.22 135.044 63.5431C135.251 63.8661 135.548 64.1207 135.899 64.2748C133.099 64.6948 133.224 67.7348 133.224 67.7348L139.844 67.7648C139.844 67.7648 139.999 64.6698 137.219 64.2548Z" fill="black"/>
<path d="M147.978 69.7257L124.383 69.6187L124.37 72.4386L147.965 72.5457L147.978 69.7257Z" fill="#A2BFBD"/>
<path opacity="0.2" d="M147.978 69.7257L124.383 69.6187L124.37 72.4386L147.965 72.5457L147.978 69.7257Z" fill="white"/>
<path d="M61.2346 84.3399H60.9996L60.3196 84.3899C59.9516 84.412 59.5857 84.4605 59.2246 84.5349C58.9908 84.5677 58.7588 84.6128 58.5296 84.6699L57.7546 84.8849C56.4355 85.2896 55.191 85.9059 54.0696 86.7099C52.5881 87.7853 51.3509 89.1621 50.4396 90.7499C49.904 91.6651 49.4777 92.6402 49.1696 93.6549C48.8459 94.7577 48.6595 95.8964 48.6146 97.0449C48.5848 97.6482 48.5948 98.2529 48.6446 98.8549C48.6446 99.1599 48.7296 99.4649 48.7696 99.7749C48.8033 100.087 48.8618 100.397 48.9446 100.7C49.3942 102.706 50.3065 104.58 51.6087 106.171C52.9108 107.762 54.5669 109.027 56.4446 109.865C57.8037 110.451 59.2603 110.779 60.7396 110.83C62.2675 110.914 63.7969 110.695 65.2396 110.185L65.6796 110.02H65.7396L65.7896 110.05L72.0946 113.25L71.9096 113.41C71.2346 111.32 70.5846 109.295 69.9546 107.35V107.275L70.0096 107.22C71.5391 105.679 72.6746 103.793 73.3196 101.72C73.9039 99.8249 74.0744 97.8265 73.8196 95.8599C73.593 94.1121 73.0311 92.4246 72.1646 90.8899C71.4178 89.5715 70.4543 88.3883 69.3146 87.3899C68.3744 86.5996 67.3337 85.9372 66.2196 85.4199C65.3767 85.0563 64.4988 84.7799 63.5996 84.5949L62.5996 84.4299L61.8746 84.3749L61.4346 84.3449H61.2846C61.3345 84.3394 61.3848 84.3394 61.4346 84.3449H61.8796L62.6046 84.3749L63.6046 84.5199C64.515 84.6913 65.4049 84.9578 66.2596 85.3149C67.3928 85.826 68.4523 86.4869 69.4096 87.2799C70.5703 88.2739 71.5542 89.4573 72.3196 90.7799C73.2107 92.3311 73.7899 94.0415 74.0246 95.8149C74.3005 97.8119 74.1419 99.8449 73.5596 101.775C72.9103 103.891 71.7574 105.818 70.1996 107.39L70.2296 107.26C70.8596 109.205 71.5146 111.23 72.1946 113.315L72.2896 113.62L72.0046 113.475L65.6996 110.28H65.8096L65.3596 110.445C63.8891 110.962 62.3314 111.187 60.7746 111.105C59.2635 111.047 57.7763 110.708 56.3896 110.105C53.7445 108.972 51.5437 107.003 50.1246 104.5C49.4716 103.344 48.9947 102.097 48.7096 100.8C48.6316 100.489 48.5731 100.173 48.5346 99.8549C48.4946 99.5399 48.4296 99.2299 48.4146 98.9199C48.2793 97.1408 48.4673 95.3519 48.9696 93.6399C49.2854 92.6112 49.7235 91.6241 50.2746 90.6999C51.2077 89.0977 52.4706 87.7121 53.9796 86.6349C55.1194 85.8289 56.3849 85.2173 57.7246 84.8249L58.5096 84.6249C58.7407 84.5713 58.9743 84.5296 59.2096 84.4999C59.5744 84.4323 59.9438 84.3922 60.3146 84.3799L60.9996 84.3549C61.0775 84.3444 61.156 84.3394 61.2346 84.3399Z" fill="#A2BFBD"/>
<path d="M64.0846 95.9997H63.1596L61.1596 93.1897V91.3447C61.1596 91.3447 59.7296 91.2547 59.8996 93.6697C60.0696 96.0847 59.8996 95.4697 59.8996 95.4697C59.8996 95.4697 56.8646 95.4697 56.6146 95.7447C56.3646 96.0197 56.3496 98.9497 56.3146 100.585C56.2954 100.979 56.4085 101.368 56.6359 101.691C56.8633 102.013 57.1919 102.25 57.5696 102.365C57.6755 102.394 57.7847 102.409 57.8946 102.41C58.6546 102.41 62.5196 101.795 62.5196 101.795H64.1146L64.0846 95.9997Z" fill="#A2BFBD"/>
<path d="M66.7301 95.5049L66.1601 101.825H64.5801V95.6349L66.7301 95.5049Z" fill="#A2BFBD"/>
<path d="M85.5757 224.17V219.895L77.9107 219.84L77.8457 226.305L78.3207 226.34C80.4357 226.475 89.0807 226.675 90.5007 226.235C92.0807 225.745 85.5757 224.17 85.5757 224.17Z" fill="#A2BFBD"/>
<path d="M90.6801 225.835C90.6801 225.905 87.8101 225.965 84.2751 225.965C80.7401 225.965 77.8701 225.905 77.8701 225.835C77.8701 225.765 80.7401 225.705 84.2751 225.705C87.8101 225.705 90.6801 225.765 90.6801 225.835Z" fill="#263238"/>
<path d="M85.7106 225.045C85.6456 225.01 85.7106 224.785 85.8656 224.545C86.0206 224.305 86.2306 224.205 86.2806 224.255C86.3306 224.305 86.2256 224.495 86.0756 224.7C85.9256 224.905 85.7756 225.08 85.7106 225.045Z" fill="#263238"/>
<path d="M86.2007 225.325C86.1307 225.325 86.1657 225.045 86.3157 224.78C86.4657 224.515 86.6657 224.355 86.7207 224.395C86.7757 224.435 86.6857 224.66 86.5457 224.895C86.4057 225.13 86.2657 225.35 86.2007 225.325Z" fill="#263238"/>
<path d="M80.1808 225.815C80.1508 225.815 80.0358 225.725 79.8708 225.535C79.6694 225.291 79.445 225.067 79.2008 224.865C78.9606 224.673 78.6745 224.548 78.3708 224.5C78.1358 224.47 77.9858 224.5 77.9708 224.47C77.9558 224.44 78.1008 224.335 78.3758 224.315C78.7387 224.308 79.0927 224.428 79.3758 224.655C79.641 224.871 79.8646 225.134 80.0358 225.43C80.1508 225.65 80.2108 225.795 80.1808 225.815Z" fill="#263238"/>
<path d="M85.7356 224.24C85.7706 224.3 85.6406 224.45 85.4206 224.53C85.2006 224.61 85.0056 224.58 84.9956 224.53C84.9856 224.48 85.1406 224.375 85.3306 224.305C85.5206 224.235 85.6956 224.18 85.7356 224.24Z" fill="#263238"/>
<path d="M85.6154 223.825C85.6154 223.9 85.4154 223.96 85.1554 223.965C84.8954 223.97 84.6904 223.91 84.6954 223.84C84.7004 223.77 84.9054 223.705 85.1554 223.7C85.4054 223.695 85.6054 223.755 85.6154 223.825Z" fill="#263238"/>
<path d="M104.451 224.17V219.895L96.7857 219.84L96.7207 226.24L97.1957 226.275C99.3107 226.41 107.961 226.675 109.376 226.235C110.956 225.745 104.451 224.17 104.451 224.17Z" fill="#A2BFBD"/>
<path d="M109.555 225.845C109.555 225.915 106.69 225.975 103.15 225.975C99.61 225.975 96.75 225.915 96.75 225.845C96.75 225.775 99.615 225.715 103.15 225.715C106.685 225.715 109.555 225.775 109.555 225.845Z" fill="#263238"/>
<path d="M104.585 225.045C104.525 225.01 104.585 224.785 104.74 224.545C104.895 224.305 105.105 224.205 105.155 224.255C105.205 224.305 105.1 224.495 104.95 224.7C104.8 224.905 104.65 225.08 104.585 225.045Z" fill="#263238"/>
<path d="M105.075 225.325C105.01 225.325 105.04 225.045 105.195 224.78C105.35 224.515 105.545 224.355 105.6 224.395C105.655 224.435 105.56 224.66 105.42 224.895C105.28 225.13 105.145 225.35 105.075 225.325Z" fill="#263238"/>
<path d="M99.0558 225.815C99.0258 225.815 98.9158 225.725 98.7458 225.535C98.5444 225.291 98.32 225.067 98.0758 224.865C97.8356 224.673 97.5495 224.548 97.2458 224.5C97.0158 224.47 96.8608 224.5 96.8458 224.47C96.8308 224.44 96.9758 224.335 97.2508 224.315C97.6137 224.308 97.9677 224.428 98.2508 224.655C98.5173 224.87 98.7412 225.133 98.9108 225.43C99.0258 225.65 99.0858 225.795 99.0558 225.815Z" fill="#263238"/>
<path d="M104.611 224.24C104.646 224.3 104.516 224.45 104.296 224.53C104.076 224.61 103.881 224.58 103.871 224.53C103.861 224.48 104.016 224.375 104.206 224.305C104.396 224.235 104.571 224.18 104.611 224.24Z" fill="#263238"/>
<path d="M104.5 223.825C104.5 223.9 104.3 223.96 104.04 223.965C103.78 223.97 103.58 223.91 103.585 223.84C103.59 223.77 103.79 223.705 104.04 223.7C104.29 223.695 104.5 223.755 104.5 223.825Z" fill="#263238"/>
<path d="M132.69 97.22C132.49 97.015 131.995 97.115 131.995 97.115C132.045 96.8271 132.045 96.5329 131.995 96.245C131.905 95.965 131.275 96.02 131.275 96.02C131.246 95.7842 131.246 95.5458 131.275 95.31C131.28 95.2577 131.269 95.2052 131.243 95.1595C131.217 95.1139 131.178 95.0774 131.13 95.055C130.832 94.9334 130.512 94.8755 130.19 94.885C129.805 94.61 131.365 92.425 131.945 91.725C132.525 91.025 132.42 90.48 131.905 90.48C131.55 90.48 129.73 92.58 129.17 93.285C128.61 93.99 127.125 95.95 127.075 94.385C127.025 92.82 126.395 91.64 126 91.44C125.605 91.24 125.185 91.71 125.4 92.145C125.589 92.6392 125.707 93.1577 125.75 93.685C125.805 94.105 125.786 94.5313 125.695 94.945C125.53 95.7147 125.304 96.4704 125.02 97.205H124.98C124.98 97.205 114.07 107.67 113.28 108.415C112.575 109.085 98.3955 107.62 95.5505 107.32C94.5837 107.179 93.6075 107.112 92.6305 107.12C91.3955 107.175 91.1755 107.35 89.9455 107.365C86.8392 107.399 83.7401 107.672 80.6755 108.18C79.2878 108.416 77.9916 109.028 76.9282 109.951C75.8648 110.873 75.0752 112.07 74.6455 113.41C71.7805 122.36 65.2905 143.545 64.1455 155.445C63.2802 157.014 62.4991 158.628 61.8055 160.28C61.0005 162.47 61.1955 162.545 61.4655 162.595C62.1955 162.73 63.0255 158.8 63.3355 159.75C63.6455 160.7 61.7605 164.435 62.5255 164.545C63.5255 164.685 64.3205 160.545 64.4155 160.215C64.5105 159.885 65.0055 159.99 64.9155 160.3C64.7705 160.74 63.3655 165.405 64.3455 165.555C64.8855 165.635 64.9455 164.65 64.9455 164.65C64.9455 164.65 65.9455 160.185 66.4005 160.275C66.8555 160.365 66.3705 163 66.1405 163.88C65.9105 164.76 66.2305 165.205 66.7005 164.99C67.0205 164.84 67.7855 162.165 67.9955 161.295C68.2055 160.425 68.7305 158.015 69.4355 159.41C70.1405 160.805 71.2105 161.615 71.6505 161.635C71.7496 161.624 71.8431 161.583 71.9188 161.518C71.9945 161.453 72.0491 161.367 72.0755 161.27C72.1018 161.174 72.0987 161.072 72.0667 160.978C72.0346 160.883 71.975 160.8 71.8955 160.74C71.517 160.37 71.1922 159.95 70.9305 159.49C70.6972 159.132 70.528 158.736 70.4305 158.32C70.229 157.491 70.1117 156.643 70.0805 155.79L70.0005 155.29C71.1205 149.745 74.3455 133.47 79.0005 123.075L80.9105 127.005L81.7405 129.915L76.6505 142.48L98.3605 142.195L95.1205 129.725L99.0555 116.725C103.31 116.82 114.235 116.98 116.055 116.155C118.345 115.155 130.19 100.195 130.19 100.195C130.963 99.595 131.702 98.9541 132.405 98.275C132.405 98.275 133.125 97.67 132.69 97.22Z" fill="#FFBE9D"/>
<path d="M75.6955 133.195C76.3255 131.045 79.5605 120.415 79.5605 120.415C79.5605 120.415 81.1506 129.08 80.7306 130.125C80.3442 131.02 79.8878 131.883 79.3655 132.705C75.6955 138.29 76.1756 141.085 76.1756 141.085L98.3505 140.41C98.4005 137.31 96.5655 130.1 96.1855 128.95C95.8055 127.8 97.0705 124.035 97.0705 124.035C97.0705 124.035 99.5706 121.49 99.4806 120.18C99.4331 119.004 99.2876 117.833 99.0455 116.68L112.546 117.18L112.121 108.03L92.7306 106.09C92.0556 107.995 85.9505 107.06 85.9505 107.06C79.3605 107.28 78.9505 108.49 76.2105 110.62C73.4705 112.75 68.9355 131.03 68.9355 131.03L75.6955 133.195Z" fill="#A2BFBD"/>
<path d="M88.8054 131.03C88.4211 131.099 88.0297 131.119 87.6404 131.09C86.9154 131.09 85.9204 131.04 84.8254 130.93C83.7304 130.82 82.7404 130.665 82.0354 130.525C81.6467 130.475 81.2655 130.378 80.9004 130.235C81.2913 130.236 81.6814 130.272 82.0654 130.345C82.7754 130.435 83.7604 130.56 84.8504 130.67C85.9404 130.78 86.9304 130.855 87.6454 130.905C88.0351 130.91 88.4235 130.952 88.8054 131.03Z" fill="#263238"/>
<path d="M90.3255 129.145C89.941 129.333 89.5345 129.473 89.1155 129.56C87.1206 130.084 85.0626 130.328 83.0005 130.285C82.5738 130.299 82.147 130.259 81.7305 130.165C82.1516 130.112 82.5761 130.09 83.0005 130.1C83.7855 130.075 84.8655 130.02 86.0555 129.88C87.2455 129.74 88.3055 129.54 89.0555 129.38C89.472 129.269 89.8967 129.19 90.3255 129.145Z" fill="#263238"/>
<path d="M97.7856 120.735C97.7754 121.117 97.7235 121.495 97.6305 121.865C97.5005 122.56 97.3005 123.51 97.0455 124.55C96.7905 125.59 96.5455 126.55 96.3255 127.2C96.2371 127.572 96.1062 127.933 95.9355 128.275C95.9634 127.895 96.0338 127.52 96.1455 127.155C96.3355 126.375 96.5506 125.475 96.7906 124.49C97.0306 123.505 97.2605 122.605 97.4505 121.825C97.5182 121.45 97.6307 121.084 97.7856 120.735Z" fill="#263238"/>
<path d="M75.93 131.92C74.7733 131.742 73.6317 131.476 72.515 131.125C71.374 130.858 70.2542 130.507 69.165 130.075C70.3212 130.257 71.4626 130.522 72.58 130.87C73.7214 131.136 74.8412 131.487 75.93 131.92Z" fill="#263238"/>
<path d="M99.2852 116.57C99.0966 116.603 98.9038 116.603 98.7152 116.57C98.193 116.517 97.6802 116.394 97.1902 116.205C96.3723 115.898 95.6277 115.423 95.0043 114.811C94.3808 114.198 93.8924 113.463 93.5702 112.65C93.2142 111.757 93.0622 110.795 93.1252 109.835C93.1475 109.044 93.3843 108.273 93.8102 107.605C94.1098 107.156 94.5574 106.825 95.0752 106.67C95.2136 106.632 95.3567 106.614 95.5002 106.615C95.6002 106.615 95.6502 106.615 95.6502 106.615C95.6502 106.615 95.4402 106.615 95.1052 106.75C94.6301 106.926 94.2272 107.255 93.9602 107.685C93.2802 108.755 93.0902 110.71 93.8152 112.535C94.1527 113.396 94.6809 114.169 95.3602 114.795C95.9169 115.308 96.558 115.721 97.2552 116.015C97.9096 116.274 98.5903 116.46 99.2852 116.57Z" fill="#263238"/>
<path d="M110.941 117C110.816 115.467 110.776 113.928 110.821 112.39C110.782 110.854 110.828 109.316 110.961 107.785C111.086 109.317 111.126 110.854 111.081 112.39C111.123 113.928 111.076 115.467 110.941 117Z" fill="#263238"/>
<path d="M92.6005 106.65C92.6555 105.535 92.7705 104.275 92.7705 104.275C92.7705 104.275 95.5305 103.97 95.6955 101.12C95.8605 98.2703 95.6955 91.6953 95.6955 91.6953L90.6955 89.1353L85.1455 93.5003L86.0005 107.75L91.0905 108.075C91.4796 108.086 91.857 107.942 92.1401 107.675C92.4232 107.408 92.5887 107.039 92.6005 106.65Z" fill="#FFBE9D"/>
<path d="M93.0953 98.8651C93.0953 98.8651 93.0953 98.9201 93.0503 98.9851C93.0131 99.0322 92.9649 99.0696 92.9101 99.094C92.8552 99.1184 92.7952 99.1291 92.7353 99.1251C92.4153 99.1251 92.1053 98.7551 91.9953 98.3251C91.943 98.1166 91.943 97.8985 91.9953 97.6901C92.0055 97.5991 92.0383 97.5121 92.0907 97.437C92.1431 97.362 92.2134 97.3011 92.2953 97.2601C92.3625 97.2323 92.438 97.2323 92.5053 97.2601C92.5551 97.2848 92.5955 97.3252 92.6203 97.3751C92.6553 97.4601 92.6203 97.5151 92.6203 97.5101C92.6203 97.5051 92.6203 97.4601 92.5703 97.4101C92.5441 97.3743 92.5057 97.3494 92.4623 97.3401C92.419 97.3309 92.3737 97.338 92.3353 97.3601C92.2739 97.3972 92.223 97.4492 92.1871 97.5112C92.1513 97.5733 92.1317 97.6434 92.1303 97.7151C92.0882 97.9011 92.0882 98.0941 92.1303 98.2801C92.2303 98.6701 92.5003 98.9851 92.7403 99.0151C92.7872 99.0215 92.835 99.0181 92.8806 99.0052C92.9262 98.9923 92.9686 98.9701 93.0053 98.9401C93.0653 98.9001 93.0853 98.8601 93.0953 98.8651Z" fill="#EB996E"/>
<path d="M97.4108 90.1551C97.0258 88.8451 95.6308 88.1951 94.3608 87.8351C92.4258 87.2851 90.3358 87.0451 88.4458 87.7401C86.5558 88.4351 84.2858 89.6551 84.2858 91.7401C83.1708 91.6501 82.5308 92.6251 82.0908 93.8351C81.8095 94.5723 81.6409 95.3477 81.5908 96.1351C81.4508 98.8651 80.6858 102.635 78.9158 104.635C77.9158 105.75 76.5308 106.52 75.9608 107.91C75.4608 109.115 75.7208 110.545 75.2558 111.765C74.8408 112.84 73.9258 113.605 73.2558 114.54C72.5732 115.601 72.1715 116.818 72.0884 118.076C72.0053 119.335 72.2436 120.594 72.7808 121.735C73.3219 122.847 74.0837 123.837 75.0198 124.645C75.9559 125.453 77.0467 126.062 78.2258 126.435C80.5613 127.146 83.0519 127.17 85.4008 126.505C87.1637 126.084 88.8082 125.268 90.2108 124.12C91.646 122.948 92.6317 121.316 93.0008 119.5C93.3558 117.46 92.7858 115.385 92.3608 113.355C91.0308 106.94 91.4108 106.605 93.0908 100.65C93.1308 100.545 93.1508 100.435 93.1808 100.33C93.2108 100.225 93.2258 100.175 93.2458 100.095C93.2935 99.8597 93.3187 99.6203 93.3208 99.3801C93.0754 99.4714 92.8091 99.4907 92.5531 99.4358C92.2972 99.3809 92.0622 99.254 91.8758 99.0701C91.689 98.8741 91.5588 98.6311 91.4989 98.367C91.4391 98.103 91.4518 97.8276 91.5358 97.5701C91.6538 97.2886 91.8296 97.035 92.0518 96.8257C92.274 96.6164 92.5377 96.4561 92.8258 96.3551C93.3808 96.1251 93.9758 96.0051 94.5208 95.7501C95.6758 95.2001 96.4758 94.0601 97.0208 92.8651C97.4689 92.0369 97.6072 91.0761 97.4108 90.1551Z" fill="#263238"/>
<path d="M93.2955 99C93.4011 99.1561 93.4884 99.3239 93.5555 99.5C93.7055 99.815 93.9055 100.26 94.1255 100.775L94.1655 100.87H94.0605L93.5605 100.915C93.2155 100.915 92.9255 100.98 92.5855 100.975C92.5559 100.968 92.5285 100.954 92.5057 100.934C92.483 100.914 92.4657 100.889 92.4555 100.86C92.4406 100.815 92.4406 100.765 92.4555 100.72C92.4671 100.653 92.4821 100.586 92.5005 100.52L92.5905 100.165C92.6357 99.9282 92.7061 99.6969 92.8005 99.475C92.7912 99.7164 92.756 99.9561 92.6955 100.19L92.6255 100.545C92.6005 100.665 92.5555 100.85 92.6255 100.835C92.8755 100.835 93.2305 100.78 93.5605 100.76L94.0605 100.715L93.9955 100.825C93.7805 100.325 93.6005 99.855 93.4955 99.53C93.4034 99.364 93.336 99.1855 93.2955 99Z" fill="#A2BFBD"/>
<path d="M76.1757 141.085L98.3507 140.41L108.001 178.08L106.226 221.29H94.5007L95.9357 179L87.3607 152.775L88.6807 222.965L76.8307 223.14L75.5857 157.165C75.5307 155.33 74.9307 151.195 75.1557 149.375L76.1757 141.085Z" fill="#263238"/>
<path d="M90.3101 153.31C89.9471 153.333 89.5827 153.311 89.2251 153.245C88.5551 153.165 87.6401 153.025 86.6351 152.825C85.6301 152.625 84.7301 152.395 84.0801 152.21C83.7326 152.134 83.3965 152.013 83.0801 151.85C83.0801 151.775 84.7101 152.165 86.7101 152.57C88.7101 152.975 90.3201 153.235 90.3101 153.31Z" fill="#455A64"/>
<path d="M106.105 218.92C106.105 218.99 103.45 219.05 100.175 219.05C96.9002 219.05 94.2402 218.99 94.2402 218.92C94.2402 218.85 96.8952 218.79 100.175 218.79C103.455 218.79 106.105 218.845 106.105 218.92Z" fill="#455A64"/>
<path d="M88.5755 221.14C88.5755 221.215 85.9956 221.27 82.8156 221.27C79.6356 221.27 77.0605 221.215 77.0605 221.14C77.0605 221.065 79.6406 221.01 82.8156 221.01C85.9906 221.01 88.5755 221.07 88.5755 221.14Z" fill="#455A64"/>
<path d="M87.0453 220.96C86.9753 220.96 86.6653 205.625 86.3503 186.71C86.0353 167.795 85.8503 152.45 85.9153 152.45C85.9803 152.45 86.3003 167.78 86.6103 186.705C86.9203 205.63 87.1203 220.96 87.0453 220.96Z" fill="#455A64"/>
<path d="M104.53 218.92C104.525 218.852 104.525 218.783 104.53 218.715V218.115C104.53 217.575 104.57 216.8 104.6 215.815C104.67 213.815 104.77 210.91 104.895 207.35C105.165 200.19 105.545 190.32 105.96 179.425C105.96 179.32 105.96 179.22 105.96 179.13V179.165C103.335 168.665 100.96 159.135 99.2352 152.24L97.2352 144.085C97.0052 143.13 96.8302 142.385 96.7052 141.865C96.6452 141.62 96.6052 141.43 96.5702 141.285C96.5507 141.22 96.5389 141.153 96.5352 141.085C96.5611 141.148 96.5812 141.213 96.5952 141.28C96.6352 141.42 96.6851 141.61 96.7551 141.85C96.8901 142.35 97.0852 143.11 97.3352 144.06C97.8352 145.99 98.5402 148.77 99.4202 152.195C101.16 159.085 103.56 168.59 106.22 179.105V179.14C106.22 179.23 106.22 179.335 106.22 179.435C105.775 190.33 105.37 200.195 105.075 207.355C104.92 210.92 104.79 213.805 104.7 215.815C104.65 216.815 104.61 217.575 104.585 218.115C104.585 218.37 104.555 218.57 104.55 218.715C104.551 218.784 104.544 218.853 104.53 218.92Z" fill="#455A64"/>
<path d="M100.706 178.25C99.8637 178.527 98.9961 178.72 98.1159 178.825C97.0359 179.01 96.1159 179.14 95.7009 179.16V179.06C95.8359 179.1 95.9059 179.125 95.9059 179.145C95.9059 179.165 95.8209 179.145 95.6809 179.145H95.3809L95.6809 179.055C96.0709 178.94 96.9909 178.75 98.0709 178.555C98.9371 178.367 99.8196 178.265 100.706 178.25Z" fill="#455A64"/>
<path d="M100.501 179.685C99.7209 179.721 98.9394 179.686 98.1658 179.58C97.3848 179.564 96.6067 179.479 95.8408 179.325C97.4034 179.197 98.9764 179.319 100.501 179.685Z" fill="#455A64"/>
<path opacity="0.2" d="M76.0801 141.88C76.3427 142.217 76.6735 142.495 77.0508 142.696C77.4282 142.897 77.8436 143.016 78.2701 143.045C79.1632 143.151 80.0665 143.134 80.9551 142.995C86.6801 142.36 92.7451 141.775 98.3501 140.41C91.0951 140.815 83.4301 140.68 76.1751 141.085L76.1001 141.705" fill="black"/>
<g opacity="0.2">
<path d="M83.5557 152.105L87.6457 167.975L87.3607 152.775L83.5557 152.105Z" fill="black"/>
</g>
</svg>
