<svg width="150" height="150" viewBox="0 0 150 150" fill="none" xmlns="http://www.w3.org/2000/svg">
<path d="M88.8842 141.231L42.0842 141.255C40.2746 141.256 38.5387 140.538 37.2583 139.259C35.9779 137.98 35.2577 136.246 35.2562 134.436L35.2022 29.013C35.2014 27.9916 35.4018 26.9801 35.7921 26.0361C36.1823 25.0922 36.7547 24.2344 37.4765 23.5118C38.1983 22.7891 39.0555 22.2157 39.9989 21.8244C40.9424 21.433 41.9537 21.2314 42.9752 21.231L88.9111 21.207C90.7411 21.207 92.4962 21.934 93.7902 23.228C95.0842 24.522 95.8111 26.277 95.8111 28.107L95.8681 134.253C95.8666 136.104 95.13 137.879 93.8205 139.188C92.5109 140.496 90.7354 141.231 88.8842 141.231Z" fill="#455A64"/>
<path d="M36.2068 132L36.1528 30.4833C36.1568 28.2856 37.0324 26.1793 38.5875 24.6265C40.1426 23.0736 42.2502 22.2011 44.4478 22.2003L86.5498 22.1763C87.6398 22.1755 88.7192 22.3894 89.7265 22.8059C90.7337 23.2224 91.6491 23.8332 92.4202 24.6035C93.1914 25.3738 93.8032 26.2885 94.2208 27.2953C94.6383 28.3021 94.8534 29.3813 94.8538 30.4713L94.9078 131.988C94.9086 133.078 94.6947 134.158 94.2782 135.165C93.8617 136.172 93.2509 137.088 92.4806 137.859C91.7103 138.63 90.7956 139.242 89.7888 139.659C88.782 140.077 87.7028 140.292 86.6128 140.292L44.5108 140.316C43.4192 140.317 42.3382 140.102 41.3298 139.684C40.3213 139.266 39.4052 138.653 38.6339 137.881C37.8626 137.108 37.2512 136.191 36.8347 135.182C36.4182 134.173 36.2049 133.092 36.2068 132Z" fill="#263238"/>
<path d="M61.1491 25.9589C60.9701 25.9589 60.7984 25.8878 60.6718 25.7612C60.5452 25.6346 60.4741 25.4629 60.4741 25.2839C60.4741 25.1049 60.5452 24.9332 60.6718 24.8066C60.7984 24.68 60.9701 24.6089 61.1491 24.6089H69.8161C69.9083 24.6028 70.0009 24.6156 70.0879 24.6467C70.175 24.6777 70.2547 24.7263 70.3222 24.7895C70.3897 24.8526 70.4435 24.929 70.4803 25.0138C70.5171 25.0985 70.5361 25.19 70.5361 25.2824C70.5361 25.3749 70.5171 25.4663 70.4803 25.5511C70.4435 25.6359 70.3897 25.7122 70.3222 25.7754C70.2547 25.8385 70.175 25.8871 70.0879 25.9182C70.0009 25.9492 69.9083 25.9621 69.8161 25.9559L61.1491 25.9589Z" fill="#455A64"/>
<path d="M56.5017 25.9618C56.3681 25.9624 56.2373 25.9233 56.1259 25.8495C56.0145 25.7757 55.9275 25.6705 55.876 25.5472C55.8244 25.4239 55.8106 25.2881 55.8363 25.157C55.862 25.0258 55.9261 24.9053 56.0204 24.8106C56.1147 24.7159 56.2349 24.6513 56.3659 24.625C56.497 24.5987 56.6328 24.6119 56.7563 24.6629C56.8799 24.7139 56.9855 24.8004 57.0598 24.9115C57.1341 25.0226 57.1737 25.1532 57.1737 25.2868C57.1737 25.4653 57.103 25.6365 56.9771 25.763C56.8512 25.8896 56.6802 25.961 56.5017 25.9618Z" fill="#455A64"/>
<path d="M58.9832 25.9589C58.8495 25.9595 58.7188 25.9204 58.6074 25.8466C58.496 25.7728 58.409 25.6676 58.3574 25.5443C58.3059 25.421 58.2921 25.2852 58.3178 25.154C58.3435 25.0229 58.4075 24.9024 58.5018 24.8077C58.5961 24.713 58.7164 24.6484 58.8474 24.6221C58.9784 24.5958 59.1143 24.609 59.2378 24.66C59.3613 24.711 59.4669 24.7975 59.5412 24.9086C59.6155 25.0196 59.6552 25.1503 59.6552 25.2839C59.6552 25.4624 59.5845 25.6336 59.4585 25.7601C59.3326 25.8866 59.1617 25.9581 58.9832 25.9589Z" fill="#455A64"/>
<path d="M74.5021 25.9501C74.3685 25.9501 74.2379 25.9104 74.1268 25.8361C74.0158 25.7618 73.9292 25.6562 73.8782 25.5327C73.8272 25.4092 73.8141 25.2733 73.8403 25.1423C73.8666 25.0113 73.9312 24.891 74.0259 24.7967C74.1206 24.7025 74.2412 24.6384 74.3723 24.6127C74.5034 24.587 74.6393 24.6008 74.7625 24.6523C74.8858 24.7039 74.991 24.7909 75.0648 24.9023C75.1387 25.0137 75.1777 25.1445 75.1771 25.2781C75.1771 25.3666 75.1597 25.4542 75.1257 25.536C75.0917 25.6177 75.042 25.6919 74.9793 25.7543C74.9165 25.8168 74.8421 25.8662 74.7602 25.8998C74.6784 25.9334 74.5906 25.9505 74.5021 25.9501Z" fill="#455A64"/>
<path d="M72.0212 25.953C71.8877 25.953 71.7572 25.9134 71.6462 25.8393C71.5352 25.7651 71.4487 25.6597 71.3976 25.5363C71.3465 25.413 71.3331 25.2773 71.3592 25.1463C71.3852 25.0154 71.4495 24.8951 71.5439 24.8007C71.6383 24.7063 71.7586 24.642 71.8895 24.616C72.0204 24.59 72.1562 24.6033 72.2795 24.6544C72.4028 24.7055 72.5083 24.792 72.5824 24.903C72.6566 25.014 72.6962 25.1445 72.6962 25.278C72.6966 25.3668 72.6794 25.4547 72.6456 25.5368C72.6118 25.6189 72.5621 25.6935 72.4994 25.7562C72.4366 25.819 72.362 25.8687 72.28 25.9025C72.1979 25.9362 72.1099 25.9534 72.0212 25.953Z" fill="#455A64"/>
<path d="M87 23.5532H78.84C78.4552 23.5531 78.0807 23.6775 77.7724 23.9078C77.4642 24.1382 77.2388 24.4621 77.13 24.8312L76.464 27.1172C76.3437 27.5307 76.0922 27.8938 75.7475 28.1519C75.4028 28.41 74.9836 28.5491 74.553 28.5482H56.475C56.0446 28.5485 55.6257 28.4096 55.2807 28.1522C54.9358 27.8949 54.6833 27.5329 54.561 27.1202L53.892 24.8342C53.7835 24.4652 53.5581 24.1414 53.2497 23.9114C52.9413 23.6815 52.5667 23.5579 52.182 23.5592H44.016C42.2971 23.556 40.6473 24.2356 39.4294 25.4485C38.2114 26.6614 37.525 28.3084 37.521 30.0272L37.575 132.213C37.5777 133.064 37.7481 133.906 38.0763 134.691C38.4045 135.477 38.8841 136.189 39.4878 136.789C40.0915 137.389 40.8074 137.864 41.5946 138.187C42.3819 138.51 43.225 138.675 44.076 138.672L87.051 138.651C88.7699 138.654 90.4197 137.975 91.6376 136.762C92.8556 135.549 93.542 133.902 93.546 132.183L93.492 30.0002C93.4833 28.2853 92.7951 26.6437 91.5782 25.4353C90.3613 24.2268 88.715 23.55 87 23.5532Z" fill="#FAFAFA"/>
<path d="M95.8169 47.2891C95.9225 47.2898 96.0235 47.3321 96.0982 47.4068C96.1728 47.4815 96.2151 47.5825 96.2159 47.6881V60.6871C96.2159 60.7924 96.1743 60.8934 96.1001 60.9681C96.0259 61.0429 95.9252 61.0853 95.8199 61.0861L95.8169 47.2891Z" fill="#455A64"/>
<path d="M35.2108 55.8242C35.1018 55.8242 34.9973 55.8675 34.9202 55.9446C34.8431 56.0217 34.7998 56.1262 34.7998 56.2352V64.1462C34.8006 64.2555 34.8446 64.36 34.9221 64.437C34.9997 64.514 35.1045 64.5572 35.2138 64.5572L35.2108 55.8242Z" fill="#455A64"/>
<path d="M35.205 44.3999C35.1507 44.3999 35.097 44.4106 35.047 44.4315C34.9969 44.4523 34.9515 44.4829 34.9133 44.5213C34.8751 44.5598 34.8449 44.6055 34.8244 44.6557C34.8039 44.7059 34.7936 44.7597 34.794 44.8139V52.7219C34.7947 52.8315 34.8386 52.9363 34.9161 53.0138C34.9936 53.0912 35.0984 53.1351 35.208 53.1359L35.205 44.3999Z" fill="#455A64"/>
<path d="M35.2017 35.8472C35.107 35.8472 35.0162 35.8848 34.9493 35.9517C34.8823 36.0187 34.8447 36.1095 34.8447 36.2042V39.5552C34.8447 39.6019 34.854 39.6482 34.872 39.6913C34.8899 39.7345 34.9163 39.7736 34.9495 39.8066C34.9827 39.8395 35.022 39.8655 35.0653 39.8831C35.1086 39.9007 35.155 39.9096 35.2017 39.9092V35.8472Z" fill="#455A64"/>
<path d="M80.3159 26.8799H79.8989V27.4649H80.3159V26.8799Z" fill="white"/>
<path d="M80.9942 26.6191H80.5771V27.4621H80.9942V26.6191Z" fill="white"/>
<path d="M81.6719 26.4238H81.2549V27.4618H81.6719V26.4238Z" fill="white"/>
<path d="M82.3501 26.0459H81.9331V27.4619H82.3501V26.0459Z" fill="white"/>
<path d="M88.5 27.4889H86.4C86.3804 27.4893 86.361 27.4858 86.3428 27.4786C86.3246 27.4714 86.3081 27.4606 86.2941 27.4469C86.2801 27.4332 86.269 27.4169 86.2615 27.3988C86.2539 27.3808 86.25 27.3614 86.25 27.3419V26.3009C86.25 26.2616 86.2654 26.2239 86.2929 26.1959C86.3203 26.1678 86.3577 26.1517 86.397 26.1509H88.497C88.5071 26.1516 88.5166 26.1559 88.5238 26.1631C88.531 26.1702 88.5353 26.1798 88.536 26.1899V26.5319H88.761C88.766 26.5319 88.7709 26.5329 88.7755 26.5349C88.7801 26.5369 88.7842 26.5398 88.7876 26.5435C88.791 26.5471 88.7936 26.5515 88.7952 26.5562C88.7968 26.5609 88.7974 26.5659 88.797 26.5709V27.0689C88.797 27.0792 88.7929 27.0891 88.7856 27.0965C88.7783 27.1038 88.7683 27.1079 88.758 27.1079H88.533V27.4499C88.5334 27.4546 88.5329 27.4594 88.5314 27.4639C88.53 27.4684 88.5277 27.4726 88.5246 27.4762C88.5216 27.4799 88.5178 27.4829 88.5136 27.485C88.5093 27.4872 88.5047 27.4885 88.5 27.4889ZM88.461 26.2259H86.4C86.3809 26.2259 86.3626 26.2335 86.3491 26.247C86.3356 26.2605 86.328 26.2788 86.328 26.2979V27.3389C86.328 27.358 86.3356 27.3763 86.3491 27.3898C86.3626 27.4033 86.3809 27.4109 86.4 27.4109H88.452V27.0689C88.452 27.0593 88.4558 27.0502 88.4625 27.0434C88.4693 27.0367 88.4784 27.0329 88.488 27.0329H88.713V26.6069H88.5C88.4905 26.6069 88.4813 26.6031 88.4745 26.5963C88.4678 26.5896 88.464 26.5804 88.464 26.5709L88.461 26.2259Z" fill="white"/>
<path d="M86.502 27.243V26.4L88.287 26.397V26.778V26.862V27.243H86.502Z" fill="white"/>
<path d="M84.3421 27.4108C84.3421 27.3806 84.3332 27.351 84.3163 27.3258C84.2995 27.3007 84.2756 27.281 84.2477 27.2695C84.2197 27.2579 84.189 27.2548 84.1593 27.2608C84.1296 27.2667 84.1023 27.2812 84.0809 27.3026C84.0596 27.324 84.045 27.3513 84.0391 27.381C84.0332 27.4106 84.0362 27.4414 84.0478 27.4694C84.0594 27.4973 84.079 27.5212 84.1041 27.538C84.1293 27.5548 84.1589 27.5638 84.1891 27.5638C84.2297 27.5638 84.2686 27.5477 84.2973 27.519C84.326 27.4903 84.3421 27.4514 84.3421 27.4108Z" fill="white"/>
<path d="M83.667 27.0452L83.862 27.2372C83.949 27.1511 84.0665 27.1028 84.189 27.1028C84.3114 27.1028 84.4289 27.1511 84.516 27.2372L84.711 27.0422C84.5722 26.9043 84.3846 26.8267 84.189 26.8262C84.0918 26.8264 83.9957 26.8458 83.9061 26.8834C83.8165 26.921 83.7352 26.976 83.667 27.0452Z" fill="white"/>
<path d="M84.1888 26.3999C83.8785 26.4002 83.5809 26.5231 83.3608 26.7419L83.5558 26.9369C83.7243 26.7702 83.9518 26.6767 84.1888 26.6767C84.4259 26.6767 84.6533 26.7702 84.8218 26.9369L85.0168 26.7419C84.9083 26.633 84.7792 26.5468 84.6371 26.4881C84.4949 26.4294 84.3426 26.3994 84.1888 26.3999Z" fill="white"/>
<path d="M83.043 26.4208L83.238 26.6158C83.3622 26.4899 83.5102 26.39 83.6735 26.322C83.8368 26.254 84.0121 26.2192 84.189 26.2198C84.5454 26.2202 84.8873 26.3614 85.14 26.6128L85.335 26.4178C85.1845 26.2673 85.0059 26.1478 84.8092 26.0663C84.6126 25.9848 84.4018 25.9429 84.189 25.9429C83.9761 25.9429 83.7653 25.9848 83.5687 26.0663C83.3721 26.1478 83.1934 26.2673 83.043 26.4178V26.4208Z" fill="white"/>
<path d="M49.041 52.1101C49.0344 52.8749 48.8012 53.6205 48.3709 54.2528C47.9406 54.8851 47.3324 55.3755 46.6234 55.6621C45.9143 55.9488 45.1362 56.0187 44.3873 55.8631C43.6385 55.7075 42.9527 55.3333 42.4165 54.7879C41.8803 54.2425 41.5179 53.5504 41.3751 52.799C41.2323 52.0477 41.3155 51.2708 41.6142 50.5668C41.9129 49.8627 42.4137 49.263 43.0532 48.8435C43.6927 48.424 44.4422 48.2036 45.207 48.2101C45.7148 48.2144 46.2168 48.3187 46.6843 48.517C47.1519 48.7154 47.5757 49.0039 47.9317 49.366C48.2878 49.7282 48.569 50.1569 48.7593 50.6277C48.9496 51.0986 49.0453 51.6023 49.041 52.1101Z" fill="#A2BFBD"/>
<path d="M68.3702 49.131C68.3702 49.173 64.7702 49.179 60.3602 49.131C55.9502 49.083 52.3472 49.032 52.3472 48.987C52.3472 48.942 55.9472 48.939 60.3602 48.987C64.7732 49.035 68.3732 49.089 68.3702 49.131Z" fill="#263238"/>
<path d="M81.4469 52.8002C81.4469 52.8422 74.9069 52.8242 66.8399 52.7582C58.7729 52.6922 52.2329 52.6022 52.2329 52.5602C52.2329 52.5182 58.7729 52.5362 66.8429 52.6022C74.9129 52.6682 81.4469 52.7552 81.4469 52.8002Z" fill="#E0E0E0"/>
<path d="M81.4232 55.6828C81.4232 55.7248 74.8832 55.7068 66.8162 55.6408C58.7492 55.5748 52.2002 55.4998 52.2002 55.4428C52.2002 55.3858 58.7372 55.4188 66.8072 55.4848C74.8772 55.5508 81.4232 55.6378 81.4232 55.6828Z" fill="#E0E0E0"/>
<path d="M90.045 48.5762C90.045 48.6212 88.629 48.6422 86.886 48.6302C85.143 48.6182 83.73 48.5672 83.73 48.5252C83.73 48.4832 85.143 48.4592 86.889 48.4742C88.635 48.4892 90.045 48.5342 90.045 48.5762Z" fill="#263238"/>
<path d="M87.5999 52.5989L87.8609 53.1389C87.8826 53.1851 87.9153 53.2254 87.956 53.2563C87.9968 53.2871 88.0445 53.3075 88.0949 53.3159L88.6949 53.4059C88.7564 53.4084 88.8155 53.4298 88.8644 53.4672C88.9133 53.5045 88.9495 53.556 88.9682 53.6146C88.9868 53.6732 88.987 53.7361 88.9687 53.7948C88.9504 53.8535 88.9145 53.9052 88.8659 53.9428L88.4309 54.3598C88.3943 54.3956 88.3668 54.4395 88.3506 54.4881C88.3344 54.5366 88.3301 54.5883 88.3379 54.6389L88.4369 55.2389C88.4459 55.297 88.4385 55.3565 88.4156 55.4107C88.3928 55.465 88.3553 55.5118 88.3074 55.546C88.2596 55.5802 88.2031 55.6005 88.1444 55.6045C88.0857 55.6085 88.027 55.5962 87.9749 55.5688L87.4469 55.2839C87.4008 55.2592 87.3492 55.2462 87.2969 55.2462C87.2446 55.2462 87.193 55.2592 87.1469 55.2839L86.6129 55.5598C86.5615 55.5938 86.5009 55.6112 86.4393 55.6095C86.3777 55.6079 86.3181 55.5873 86.2687 55.5506C86.2192 55.5139 86.1822 55.4628 86.1627 55.4044C86.1433 55.3459 86.1423 55.2829 86.1599 55.2239L86.2649 54.6239C86.2754 54.5738 86.2729 54.5219 86.2577 54.473C86.2425 54.4242 86.215 54.3801 86.1779 54.3448L85.7519 53.9219C85.7098 53.8805 85.6802 53.8281 85.6664 53.7706C85.6526 53.7132 85.6553 53.6531 85.674 53.5971C85.6928 53.5411 85.7269 53.4915 85.7725 53.454C85.8181 53.4165 85.8734 53.3925 85.9319 53.3848L86.5319 53.3038C86.5827 53.2979 86.6312 53.2791 86.6726 53.2492C86.7141 53.2192 86.7473 53.1792 86.7689 53.1329L87.0389 52.5989C87.066 52.548 87.1065 52.5056 87.1559 52.4759C87.2053 52.4463 87.2618 52.4307 87.3194 52.4307C87.377 52.4307 87.4335 52.4463 87.4829 52.4759C87.5323 52.5056 87.5728 52.548 87.5999 52.5989Z" fill="#A2BFBD"/>
<path d="M72.6478 48.9571C72.6466 49.1007 72.6028 49.2407 72.5221 49.3594C72.4413 49.4782 72.3272 49.5703 72.1941 49.6241C72.061 49.678 71.9149 49.6911 71.7743 49.662C71.6337 49.6328 71.5049 49.5626 71.4042 49.4602C71.3035 49.3578 71.2355 49.2279 71.2086 49.0868C71.1818 48.9458 71.1973 48.7999 71.2534 48.6677C71.3094 48.5355 71.4034 48.4229 71.5234 48.3441C71.6435 48.2654 71.7842 48.2239 71.9278 48.2251C72.0231 48.2259 72.1174 48.2455 72.2052 48.2827C72.2929 48.3199 72.3725 48.374 72.4394 48.442C72.5062 48.51 72.5591 48.5904 72.5948 48.6788C72.6306 48.7672 72.6486 48.8618 72.6478 48.9571Z" fill="#A2BFBD"/>
<path d="M93.2697 41.952C93.2697 41.994 80.7747 41.928 65.3697 41.802C49.9647 41.676 37.4697 41.538 37.4697 41.502C37.4697 41.466 49.9617 41.526 65.3697 41.652C80.7777 41.778 93.2727 41.91 93.2697 41.952Z" fill="#E0E0E0"/>
<path d="M93.1081 61.9379C93.1081 61.9829 80.6101 61.9139 65.2081 61.7879C49.8061 61.6619 37.3081 61.5239 37.3081 61.4879C37.3081 61.4519 49.8031 61.5119 65.2081 61.6379C80.6131 61.7639 93.1081 61.8959 93.1081 61.9379Z" fill="#E0E0E0"/>
<path d="M47.5816 94.7178C49.0917 93.2076 49.0917 90.7592 47.5816 89.249C46.0714 87.7389 43.623 87.7389 42.1128 89.249C40.6026 90.7592 40.6026 93.2076 42.1128 94.7178C43.623 96.2279 46.0714 96.2279 47.5816 94.7178Z" fill="#A2BFBD"/>
<path d="M68.043 89.0368C68.043 89.0788 64.458 89.0848 60.033 89.0368C55.608 88.9888 52.02 88.9378 52.02 88.8928C52.02 88.8478 55.62 88.8448 60.033 88.8928C64.446 88.9408 68.046 88.9948 68.043 89.0368Z" fill="#263238"/>
<path d="M81.1198 92.7001C81.1198 92.7421 74.5798 92.7241 66.5128 92.6581C58.4458 92.5921 51.9058 92.5021 51.9058 92.4601C51.9058 92.4181 58.4458 92.4361 66.5158 92.5021C74.5858 92.5681 81.1198 92.6611 81.1198 92.7001Z" fill="#E0E0E0"/>
<path d="M81.0958 95.5893C81.0958 95.6313 74.5558 95.6133 66.4888 95.5473C58.4218 95.4813 51.8818 95.3913 51.8848 95.3493C51.8878 95.3073 58.4218 95.3253 66.4918 95.3913C74.5618 95.4573 81.0958 95.5443 81.0958 95.5893Z" fill="#E0E0E0"/>
<path d="M89.7178 88.482C89.7178 88.527 88.3048 88.548 86.5588 88.536C84.8128 88.524 83.4028 88.473 83.4028 88.431C83.4028 88.389 84.8158 88.365 86.5618 88.38C88.3078 88.395 89.7178 88.44 89.7178 88.482Z" fill="#263238"/>
<path d="M87.2698 92.505L87.5308 93.045C87.5525 93.0913 87.5852 93.1316 87.626 93.1624C87.6667 93.1933 87.7144 93.2137 87.7648 93.222L88.3648 93.312C88.4263 93.3146 88.4854 93.336 88.5343 93.3733C88.5832 93.4107 88.6194 93.4621 88.6381 93.5207C88.6568 93.5793 88.657 93.6423 88.6387 93.701C88.6204 93.7597 88.5845 93.8114 88.5358 93.849L88.1008 94.266C88.0642 94.3018 88.0367 94.3457 88.0205 94.3943C88.0043 94.4428 88 94.4945 88.0078 94.545L88.1068 95.145C88.1158 95.2032 88.1084 95.2627 88.0856 95.3169C88.0627 95.3712 88.0253 95.418 87.9774 95.4522C87.9295 95.4864 87.873 95.5066 87.8143 95.5107C87.7556 95.5147 87.6969 95.5024 87.6448 95.475L87.1168 95.175C87.0707 95.1503 87.0192 95.1374 86.9668 95.1374C86.9145 95.1374 86.863 95.1503 86.8168 95.175L86.2828 95.451C86.2314 95.485 86.1708 95.5024 86.1092 95.5007C86.0476 95.4991 85.9881 95.4785 85.9386 95.4418C85.8891 95.4051 85.8521 95.354 85.8327 95.2956C85.8132 95.2371 85.8122 95.1741 85.8298 95.115L85.9378 94.515C85.9479 94.4647 85.945 94.4126 85.9292 94.3638C85.9135 94.3149 85.8854 94.271 85.8478 94.236L85.4218 93.813C85.3797 93.7716 85.3501 93.7192 85.3363 93.6618C85.3225 93.6044 85.3252 93.5443 85.344 93.4883C85.3627 93.4323 85.3969 93.3827 85.4425 93.3452C85.488 93.3076 85.5433 93.2837 85.6018 93.276L86.2018 93.195C86.2526 93.1891 86.3011 93.1703 86.3426 93.1403C86.384 93.1104 86.4172 93.0704 86.4388 93.024L86.7088 92.49C86.7373 92.4399 86.7789 92.3985 86.8291 92.3701C86.8793 92.3418 86.9362 92.3277 86.9938 92.3292C87.0515 92.3308 87.1076 92.3479 87.1562 92.3789C87.2048 92.4099 87.2441 92.4535 87.2698 92.505Z" fill="#A2BFBD"/>
<path d="M72.3088 89.0075C72.387 88.6142 72.1315 88.232 71.7383 88.1539C71.345 88.0757 70.9628 88.3312 70.8847 88.7244C70.8065 89.1177 71.062 89.4999 71.4552 89.578C71.8485 89.6562 72.2307 89.4007 72.3088 89.0075Z" fill="#A2BFBD"/>
<path d="M92.9431 81.8578C92.9431 81.8998 80.4481 81.8338 65.0431 81.7078C49.6381 81.5818 37.1431 81.4438 37.1431 81.4078C37.1431 81.3718 49.6351 81.4318 65.0431 81.5578C80.4511 81.6838 92.9461 81.8158 92.9431 81.8578Z" fill="#E0E0E0"/>
<path d="M92.7811 101.844C92.7811 101.889 80.4811 101.808 65.3041 101.664C50.1271 101.52 37.8271 101.364 37.8271 101.328C37.8271 101.292 50.1272 101.364 65.3072 101.508C80.4872 101.652 92.7811 101.802 92.7811 101.844Z" fill="#E0E0E0"/>
<path d="M48.4048 129.966C48.3982 130.731 48.1651 131.476 47.7349 132.108C47.3047 132.741 46.6967 133.231 45.9878 133.518C45.2789 133.805 44.501 133.875 43.7522 133.719C43.0035 133.564 42.3176 133.19 41.7813 132.645C41.2451 132.1 40.8824 131.408 40.7393 130.657C40.5961 129.906 40.6789 129.129 40.9771 128.425C41.2753 127.721 41.7756 127.121 42.4147 126.701C43.0539 126.281 43.8031 126.06 44.5678 126.066C45.5936 126.075 46.5741 126.49 47.2936 127.222C48.0131 127.953 48.4127 128.94 48.4048 129.966Z" fill="#E0E0E0"/>
<path d="M67.7339 126.99C67.7339 127.032 64.1339 127.038 59.7209 126.99C55.3079 126.942 51.7109 126.891 51.7109 126.846C51.7109 126.801 55.3109 126.798 59.7239 126.846C64.1369 126.894 67.7339 126.948 67.7339 126.99Z" fill="#263238"/>
<path d="M80.8082 130.659C80.8082 130.701 74.2682 130.683 66.2042 130.617C58.1402 130.551 51.5972 130.461 51.5972 130.419C51.5972 130.377 58.1372 130.395 66.2042 130.461C74.2712 130.527 80.8082 130.614 80.8082 130.659Z" fill="#E0E0E0"/>
<path d="M80.7838 133.539C80.7838 133.584 74.2438 133.566 66.1798 133.5C58.1158 133.434 51.5728 133.344 51.5728 133.302C51.5728 133.26 58.1128 133.275 66.1798 133.341C74.2468 133.407 80.7868 133.5 80.7838 133.539Z" fill="#E0E0E0"/>
<path d="M89.4 126.435C89.4 126.477 87.987 126.501 86.244 126.486C84.501 126.471 83.085 126.426 83.085 126.384C83.085 126.342 84.501 126.318 86.244 126.33C87.987 126.342 89.4 126.393 89.4 126.435Z" fill="#263238"/>
<path d="M71.9998 126.816C71.9986 126.96 71.9549 127.1 71.8741 127.218C71.7934 127.337 71.6792 127.429 71.5461 127.483C71.413 127.537 71.2669 127.55 71.1263 127.521C70.9857 127.492 70.857 127.421 70.7563 127.319C70.6556 127.217 70.5875 127.087 70.5607 126.946C70.5338 126.805 70.5494 126.659 70.6054 126.527C70.6615 126.394 70.7555 126.282 70.8755 126.203C70.9955 126.124 71.1362 126.083 71.2798 126.084C71.3752 126.085 71.4694 126.104 71.5572 126.142C71.645 126.179 71.7246 126.233 71.7914 126.301C71.8583 126.369 71.9111 126.449 71.9469 126.538C71.9826 126.626 72.0006 126.721 71.9998 126.816Z" fill="#A2BFBD"/>
<path d="M93.4178 61.9427L37.7847 61.4863L37.6207 81.4717L93.2539 81.928L93.4178 61.9427Z" fill="#F5F5F5"/>
<path d="M47.8604 74.3755C49.3705 72.8653 49.3705 70.4169 47.8604 68.9067C46.3502 67.3966 43.9018 67.3966 42.3916 68.9067C40.8815 70.4169 40.8815 72.8653 42.3916 74.3755C43.9018 75.8857 46.3502 75.8857 47.8604 74.3755Z" fill="#455A64"/>
<path d="M68.3218 68.7001C68.3218 68.7451 64.7218 68.7511 60.3118 68.7151C55.9018 68.6791 52.2988 68.6131 52.2988 68.5711C52.2988 68.5291 55.8988 68.5201 60.3118 68.5711C64.7248 68.6221 68.3218 68.6521 68.3218 68.7001Z" fill="#263238"/>
<path d="M81.3991 72.363C81.3991 72.408 74.8591 72.387 66.7921 72.321C58.7251 72.255 52.1851 72.168 52.1851 72.123C52.1851 72.078 58.7251 72.099 66.7921 72.165C74.8591 72.231 81.3991 72.321 81.3991 72.363Z" fill="#E0E0E0"/>
<path d="M81.3751 75.2459C81.3751 75.2879 74.8351 75.2698 66.7681 75.2038C58.7011 75.1378 52.1611 75.0509 52.1611 75.0059C52.1611 74.9609 58.7011 74.9819 66.7711 75.0479C74.8411 75.1139 81.3751 75.2039 81.3751 75.2459Z" fill="#E0E0E0"/>
<path d="M90.0001 68.1418C90.0001 68.1838 88.5841 68.2078 86.8411 68.1928C85.788 68.2108 84.7346 68.1758 83.6851 68.0878C83.6851 68.0458 85.0981 68.0218 86.8441 68.0368C87.8972 68.0188 88.9505 68.0538 90.0001 68.1418Z" fill="#263238"/>
<path d="M87.5488 72.1649C87.5488 72.1649 87.5248 72.1319 87.4708 72.0839C87.4327 72.052 87.3872 72.0301 87.3385 72.0202C87.2898 72.0102 87.2394 72.0125 87.1918 72.0269C87.1247 72.0453 87.0675 72.0895 87.0328 72.1499C86.9938 72.2159 86.9548 72.3059 86.9128 72.3929L86.7748 72.6929C86.7505 72.7559 86.71 72.8113 86.6573 72.8535C86.6045 72.8956 86.5416 72.923 86.4748 72.9329L86.0878 72.9929L85.8838 73.0229C85.8264 73.0326 85.7743 73.0624 85.7368 73.1069C85.6973 73.1522 85.6756 73.2103 85.6756 73.2704C85.6756 73.3305 85.6973 73.3885 85.7368 73.4339L86.0788 73.7699L86.1688 73.8569C86.205 73.8911 86.2345 73.9318 86.2558 73.9769C86.2977 74.0713 86.3052 74.1775 86.2768 74.2769C86.2468 74.4469 86.2168 74.6209 86.1868 74.7989C86.1772 74.8335 86.1757 74.8699 86.1822 74.9053C86.1888 74.9406 86.2033 74.974 86.2247 75.0029C86.2461 75.0319 86.2738 75.0555 86.3057 75.0721C86.3376 75.0888 86.3728 75.0979 86.4088 75.0989C86.4778 75.0989 86.5408 75.0629 86.6308 75.0179L86.8858 74.8889C86.9727 74.8364 87.0653 74.7942 87.1618 74.7629C87.2165 74.752 87.2729 74.7523 87.3275 74.7636C87.3821 74.775 87.4339 74.7972 87.4798 74.8289L87.9598 75.0869C87.9899 75.1016 88.0228 75.11 88.0563 75.1115C88.0898 75.1129 88.1232 75.1074 88.1545 75.0953C88.1858 75.0832 88.2142 75.0647 88.238 75.041C88.2618 75.0174 88.2805 74.9891 88.2928 74.9579C88.3137 74.8884 88.3137 74.8143 88.2928 74.7449C88.2928 74.6609 88.2688 74.5799 88.2538 74.4989L88.2178 74.2559C88.1997 74.1607 88.2179 74.0623 88.2688 73.9799C88.3197 73.9144 88.377 73.8541 88.4398 73.7999L88.6048 73.6469L88.7608 73.4999C88.8031 73.4618 88.8325 73.4115 88.8448 73.3559C88.8545 73.3029 88.8476 73.2483 88.8251 73.1994C88.8025 73.1505 88.7654 73.1098 88.7188 73.0829C88.6114 73.0481 88.5009 73.024 88.3888 73.0109L88.0888 72.9569C88.0377 72.9523 87.988 72.9372 87.9431 72.9124C87.8982 72.8876 87.8589 72.8537 87.8278 72.8129C87.7879 72.7434 87.7528 72.6712 87.7228 72.5969C87.6567 72.4684 87.6035 72.3338 87.5638 72.1949C87.6465 72.3134 87.7188 72.4388 87.7798 72.5699C87.8117 72.638 87.8477 72.7042 87.8878 72.7679C87.9149 72.7988 87.948 72.8238 87.9852 72.8413C88.0224 72.8588 88.0627 72.8686 88.1038 72.8699L88.4038 72.9119C88.5285 72.9209 88.6516 72.9461 88.7698 72.9869C88.8214 73.0153 88.8656 73.0555 88.8989 73.1041C88.9321 73.1528 88.9533 73.2087 88.9609 73.2671C88.9685 73.3255 88.9622 73.385 88.9426 73.4405C88.9229 73.4961 88.8905 73.5462 88.8478 73.5869L88.6918 73.7369L88.5328 73.8959C88.4784 73.9414 88.4291 73.9927 88.3858 74.0489C88.3547 74.1034 88.3441 74.1672 88.3558 74.2289C88.3708 74.3099 88.3828 74.3909 88.3978 74.4719C88.4128 74.5529 88.4248 74.6339 88.4398 74.7179C88.4701 74.8156 88.4701 74.9202 88.4398 75.0179C88.4207 75.0692 88.3911 75.1159 88.3527 75.1551C88.3144 75.1942 88.2683 75.2248 88.2173 75.2448C88.1664 75.2649 88.1118 75.2741 88.0571 75.2717C88.0024 75.2693 87.9488 75.2554 87.8998 75.2309L87.4168 74.9729C87.3864 74.9497 87.3514 74.9332 87.3142 74.9244C87.277 74.9157 87.2384 74.9148 87.2008 74.9219C87.1191 74.9529 87.0399 74.99 86.9638 75.0329L86.7118 75.1619L86.5828 75.2279C86.5292 75.2523 86.4706 75.2636 86.4118 75.2609C86.3551 75.258 86.2997 75.2431 86.2494 75.217C86.199 75.1909 86.1548 75.1543 86.1198 75.1096C86.0848 75.0649 86.0598 75.0133 86.0465 74.9581C86.0333 74.9029 86.032 74.8456 86.0428 74.7899C86.0758 74.6129 86.1088 74.4389 86.1388 74.2709C86.1634 74.2041 86.1634 74.1307 86.1388 74.0639C86.1007 73.9992 86.0509 73.9422 85.9918 73.8959L85.6348 73.4999C85.5746 73.4297 85.5415 73.3403 85.5415 73.2479C85.5415 73.1554 85.5746 73.066 85.6348 72.9959C85.6936 72.931 85.7732 72.8886 85.8598 72.8759L86.0668 72.8489L86.4568 72.8009C86.5078 72.7952 86.5562 72.7757 86.5969 72.7445C86.6376 72.7133 86.669 72.6716 86.6878 72.6239L86.8348 72.3419C86.8828 72.2549 86.9218 72.1769 86.9698 72.0959C87.0185 72.0244 87.0924 71.974 87.1768 71.9549C87.2331 71.9413 87.292 71.943 87.3474 71.9599C87.4028 71.9768 87.4527 72.0082 87.4918 72.0509C87.5428 72.1199 87.5518 72.1619 87.5488 72.1649Z" fill="#263238"/>
<path d="M72.5999 68.523C72.5987 68.6666 72.555 68.8066 72.4742 68.9254C72.3935 69.0441 72.2793 69.1362 72.1462 69.19C72.0131 69.2439 71.867 69.257 71.7264 69.2279C71.5858 69.1987 71.4571 69.1285 71.3564 69.0261C71.2557 68.9237 71.1876 68.7938 71.1608 68.6528C71.1339 68.5117 71.1495 68.3659 71.2055 68.2337C71.2616 68.1015 71.3556 67.9889 71.4756 67.9101C71.5956 67.8313 71.7363 67.7899 71.8799 67.791C72.0722 67.7934 72.2558 67.8717 72.3907 68.0088C72.5255 68.1459 72.6007 68.3307 72.5999 68.523Z" fill="#A2BFBD"/>
<path d="M93.4598 101.784L37.8267 101.328L37.6627 121.313L93.2958 121.77L93.4598 101.784Z" fill="#F5F5F5"/>
<path d="M47.9024 114.216C49.4125 112.706 49.4125 110.258 47.9024 108.748C46.3922 107.237 43.9438 107.237 42.4336 108.748C40.9234 110.258 40.9234 112.706 42.4336 114.216C43.9438 115.726 46.3922 115.726 47.9024 114.216Z" fill="#455A64"/>
<path d="M68.3638 108.537C68.3638 108.579 64.7638 108.585 60.3538 108.537C55.9438 108.489 52.3408 108.438 52.3408 108.393C52.3408 108.348 55.9408 108.345 60.3538 108.393C64.7668 108.441 68.3638 108.495 68.3638 108.537Z" fill="#263238"/>
<path d="M81.441 112.2C81.441 112.242 74.9011 112.224 66.8341 112.158C58.7671 112.092 52.2271 112.002 52.2271 111.96C52.2271 111.918 58.7671 111.936 66.8341 112.002C74.9011 112.068 81.441 112.161 81.441 112.2Z" fill="#E0E0E0"/>
<path d="M81.4172 115.089C81.4172 115.131 74.8772 115.113 66.8102 115.047C58.7432 114.981 52.2002 114.9 52.2002 114.849C52.2002 114.798 58.7402 114.825 66.8102 114.891C74.8802 114.957 81.4172 115.044 81.4172 115.089Z" fill="#E0E0E0"/>
<path d="M90.0391 107.982C90.0391 108.027 88.6231 108.048 86.8801 108.036C85.1371 108.024 83.7241 107.973 83.7241 107.931C83.7241 107.889 85.1371 107.865 86.8831 107.88C88.6291 107.895 90.0391 107.94 90.0391 107.982Z" fill="#263238"/>
<path d="M87.5998 112.005C87.5998 112.005 87.5758 111.972 87.5218 111.927C87.4839 111.895 87.4386 111.872 87.3899 111.862C87.3412 111.852 87.2906 111.853 87.2428 111.867C87.1762 111.887 87.1194 111.931 87.0838 111.99C87.0448 112.059 87.0058 112.149 86.9638 112.236C86.9218 112.323 86.8738 112.422 86.8258 112.521C86.8022 112.585 86.7619 112.641 86.7092 112.684C86.6564 112.727 86.593 112.754 86.5258 112.764L86.1388 112.821L85.9348 112.854C85.8904 112.861 85.8487 112.879 85.8142 112.908C85.7796 112.937 85.7535 112.974 85.7387 113.016C85.7238 113.059 85.7208 113.104 85.73 113.148C85.7392 113.192 85.7602 113.232 85.7908 113.265L86.1328 113.598L86.2228 113.685C86.2598 113.72 86.2893 113.762 86.3098 113.808C86.3536 113.902 86.3611 114.009 86.3308 114.108C86.3008 114.28 86.2708 114.454 86.2408 114.63C86.2333 114.664 86.2333 114.699 86.2408 114.733C86.2484 114.766 86.2633 114.798 86.2845 114.825C86.3058 114.852 86.3328 114.875 86.3636 114.89C86.3944 114.906 86.4283 114.914 86.4628 114.915C86.5427 114.911 86.6197 114.884 86.6848 114.837L86.9398 114.705C87.0273 114.654 87.1198 114.612 87.2158 114.579C87.3267 114.56 87.441 114.584 87.5338 114.648L88.0138 114.906C88.0439 114.921 88.0768 114.929 88.1103 114.931C88.1438 114.932 88.1773 114.927 88.2085 114.915C88.2398 114.903 88.2682 114.884 88.292 114.86C88.3158 114.837 88.3345 114.808 88.3468 114.777C88.3677 114.708 88.3677 114.634 88.3468 114.564C88.3468 114.48 88.3228 114.396 88.3078 114.315L88.2718 114.075C88.2534 113.98 88.2716 113.882 88.3228 113.799C88.3737 113.734 88.431 113.673 88.4938 113.619L88.6588 113.466L88.8148 113.316C88.8581 113.279 88.8877 113.228 88.8988 113.172C88.9083 113.12 88.9013 113.066 88.8787 113.017C88.8561 112.969 88.8191 112.929 88.7728 112.902C88.6658 112.866 88.5551 112.842 88.4428 112.83L88.1428 112.776C88.0915 112.771 88.0418 112.756 87.9968 112.73C87.9519 112.705 87.9127 112.671 87.8818 112.629C87.8419 112.561 87.8068 112.49 87.7768 112.416C87.7098 112.287 87.6565 112.151 87.6178 112.011C87.7 112.131 87.7722 112.258 87.8338 112.389C87.8657 112.456 87.9018 112.522 87.9418 112.584C87.9686 112.616 88.0017 112.641 88.0388 112.659C88.076 112.677 88.1165 112.688 88.1578 112.689L88.4578 112.731C88.574 112.741 88.6887 112.765 88.7998 112.8C88.8686 112.837 88.9242 112.894 88.9587 112.964C88.9931 113.034 89.0047 113.113 88.9918 113.19C88.9785 113.273 88.9385 113.349 88.8778 113.406L88.7218 113.556L88.5628 113.712C88.509 113.76 88.4598 113.812 88.4158 113.868C88.3845 113.923 88.3738 113.987 88.3858 114.048C88.4008 114.129 88.4128 114.207 88.4278 114.288C88.4428 114.369 88.4548 114.453 88.4698 114.537C88.4986 114.635 88.4986 114.739 88.4698 114.837C88.4497 114.888 88.4193 114.934 88.3805 114.973C88.3417 115.011 88.2953 115.041 88.2443 115.061C88.1933 115.081 88.1387 115.09 88.0841 115.087C88.0294 115.085 87.9759 115.071 87.9268 115.047C87.7678 114.963 87.6058 114.879 87.4438 114.789C87.381 114.745 87.3037 114.727 87.2278 114.738C87.1461 114.77 87.0669 114.809 86.9908 114.852L86.7388 114.981L86.6098 115.047C86.5556 115.069 86.4973 115.08 86.4388 115.077C86.3824 115.074 86.3273 115.059 86.2772 115.034C86.2271 115.008 86.1831 114.971 86.1481 114.927C86.1132 114.883 86.0881 114.831 86.0746 114.777C86.0611 114.722 86.0595 114.665 86.0698 114.609C86.1028 114.432 86.1358 114.258 86.1658 114.087C86.1903 114.02 86.1903 113.947 86.1658 113.88C86.126 113.817 86.0764 113.76 86.0188 113.712L85.6768 113.367C85.6166 113.297 85.5835 113.208 85.5835 113.115C85.5835 113.023 85.6166 112.933 85.6768 112.863C85.7362 112.799 85.8153 112.755 85.9018 112.74L86.1088 112.713L86.4988 112.665C86.5497 112.661 86.5984 112.642 86.6392 112.611C86.6801 112.581 86.7114 112.539 86.7298 112.491L86.8768 112.209C86.9248 112.119 86.9638 112.041 87.0118 111.963C87.0595 111.89 87.1337 111.839 87.2188 111.819C87.2728 111.809 87.3286 111.812 87.381 111.829C87.4334 111.846 87.4808 111.876 87.5188 111.915C87.5998 111.963 87.5998 112.005 87.5998 112.005Z" fill="#263238"/>
<path d="M72.6419 108.363C72.6407 108.506 72.597 108.646 72.5162 108.765C72.4355 108.884 72.3213 108.976 72.1882 109.03C72.0551 109.084 71.909 109.097 71.7684 109.068C71.6278 109.039 71.499 108.968 71.3984 108.866C71.2977 108.764 71.2296 108.634 71.2027 108.493C71.1759 108.352 71.1915 108.206 71.2475 108.074C71.3036 107.941 71.3975 107.829 71.5176 107.75C71.6376 107.671 71.7783 107.63 71.9219 107.631C72.0173 107.632 72.1115 107.651 72.1993 107.688C72.2871 107.726 72.3667 107.78 72.4335 107.848C72.5004 107.916 72.5532 107.996 72.589 108.085C72.6247 108.173 72.6427 108.268 72.6419 108.363Z" fill="#A2BFBD"/>
<path d="M67.8593 34.5423L63.1974 34.5041C62.8247 34.501 62.52 34.8007 62.5169 35.1735L62.4882 38.6774C62.4851 39.0502 62.7848 39.3549 63.1576 39.3579L67.8195 39.3962C68.1922 39.3992 68.4969 39.0995 68.5 38.7267L68.5287 35.2228C68.5318 34.85 68.2321 34.5454 67.8593 34.5423Z" fill="#A2BFBD"/>
<path d="M68.2051 34.7282C68.1549 34.8204 68.0923 34.9052 68.0191 34.9802C67.8931 35.1362 67.7191 35.3582 67.4701 35.6312L66.6421 36.5822L66.1471 37.1402C66.0612 37.2448 65.9701 37.3449 65.8741 37.4402C65.7524 37.5407 65.5962 37.5892 65.4391 37.5752C65.2834 37.559 65.1402 37.4826 65.0401 37.3622L64.7731 37.0622L64.2721 36.5102L63.4321 35.5712C63.1921 35.3012 63.0031 35.0822 62.8741 34.9262C62.8005 34.8518 62.7369 34.7681 62.6851 34.6772C62.6851 34.6772 62.7751 34.7432 62.9191 34.8872C63.0631 35.0312 63.2641 35.2352 63.5191 35.4872L64.3831 36.4052L64.8931 36.9512L65.1601 37.2512C65.1964 37.2965 65.2414 37.3341 65.2925 37.3619C65.3435 37.3896 65.3996 37.4069 65.4574 37.4128C65.5152 37.4186 65.5735 37.4129 65.6291 37.396C65.6847 37.3791 65.7363 37.3513 65.7811 37.3142C65.8621 37.2422 65.9551 37.1252 66.0391 37.0352L66.5401 36.4832L67.3951 35.5532C67.6381 35.2922 67.8391 35.0792 67.9951 34.9532C68.0554 34.8698 68.1259 34.7942 68.2051 34.7282Z" fill="white"/>
<path d="M64.5928 36.9272C64.3022 37.316 63.9801 37.6802 63.6298 38.0162C63.3145 38.3893 62.9513 38.7191 62.5498 38.9972C62.8412 38.6082 63.1643 38.244 63.5158 37.9082C63.8305 37.5357 64.1926 37.2059 64.5928 36.9272Z" fill="white"/>
<path d="M68.4959 39.1109C68.088 38.7854 67.715 38.4185 67.3829 38.0159C67.0109 37.6492 66.6754 37.2473 66.3809 36.8159C66.7893 37.1418 67.1633 37.5087 67.4969 37.9109C67.8684 38.2772 68.203 38.6792 68.4959 39.1109Z" fill="white"/>
<path d="M46.1309 36.4918C46.1309 36.5188 45.1049 36.5398 43.8389 36.5398C42.5729 36.5398 41.5469 36.5188 41.5469 36.4918C41.5469 36.4648 42.5729 36.4438 43.8389 36.4438C45.1049 36.4438 46.1309 36.4648 46.1309 36.4918Z" fill="#263238"/>
<path d="M46.1309 37.6652C46.1309 37.6922 45.1049 37.7132 43.8389 37.7132C42.5729 37.7132 41.5469 37.6922 41.5469 37.6652C41.5469 37.6382 42.5729 37.6172 43.8389 37.6172C45.1049 37.6172 46.1309 37.6382 46.1309 37.6652Z" fill="#263238"/>
<path d="M46.1309 38.838C46.1309 38.865 45.1049 38.889 43.8389 38.889C42.5729 38.889 41.5469 38.865 41.5469 38.841C41.5469 38.817 42.5729 38.79 43.8389 38.79C45.1049 38.79 46.1309 38.814 46.1309 38.838Z" fill="#263238"/>
<path d="M89.154 37.2392C89.139 37.2392 89.154 37.1252 89.088 36.9392C89.014 36.6736 88.8535 36.4403 88.632 36.2762C88.4546 36.1416 88.2433 36.059 88.0217 36.0376C87.8001 36.0162 87.5769 36.057 87.3771 36.1552C87.1773 36.2534 87.0088 36.4053 86.8904 36.5938C86.772 36.7823 86.7083 37.0001 86.7066 37.2227C86.7049 37.4453 86.7651 37.6641 86.8806 37.8544C86.996 38.0448 87.1622 38.1993 87.3604 38.3006C87.5586 38.4019 87.7812 38.4461 88.0031 38.4282C88.225 38.4103 88.4376 38.331 88.617 38.1992C88.8398 38.0364 89.004 37.806 89.085 37.5422C89.139 37.3532 89.139 37.2422 89.154 37.2422C89.1579 37.269 89.1579 37.2963 89.154 37.3232C89.1557 37.4019 89.1476 37.4805 89.13 37.5572C89.0648 37.8446 88.9015 38.1003 88.668 38.2802C88.471 38.4276 88.2368 38.517 87.9918 38.5383C87.7467 38.5597 87.5006 38.5122 87.2811 38.4011C87.0616 38.29 86.8776 38.1199 86.7496 37.9097C86.6217 37.6996 86.5551 37.458 86.5572 37.212C86.5593 36.966 86.6301 36.7255 86.7616 36.5177C86.8931 36.3098 87.0801 36.1428 87.3014 36.0355C87.5227 35.9282 87.7697 35.8849 88.0143 35.9105C88.259 35.936 88.4916 36.0294 88.686 36.1802C88.9164 36.3641 89.0747 36.6232 89.133 36.9122C89.1502 36.9889 89.1572 37.0676 89.154 37.1462C89.1611 37.1768 89.1611 37.2086 89.154 37.2392Z" fill="#263238"/>
<path d="M89.8292 39.417C89.5988 39.2629 89.396 39.0713 89.2292 38.85C89.0242 38.659 88.8528 38.4349 88.7222 38.187C88.9525 38.3411 89.1553 38.5328 89.3222 38.754C89.5279 38.9444 89.6994 39.1686 89.8292 39.417Z" fill="#263238"/>
<path d="M86.3428 99.8999L86.3008 116.022L79.1758 114.558L73.1758 113.304C73.1758 113.304 81.3898 129.504 90.3238 129.504C99.2578 129.504 100.413 116.025 100.413 116.025L100.944 99.8999H86.3428Z" fill="#FFBE9D"/>
<path d="M123.354 58.3108C122.7 58.6828 121.8 58.1998 121.5 57.5038C121.2 56.8078 121.338 56.0038 121.566 55.2718C121.794 54.5398 122.112 53.8378 122.166 53.0788C122.192 52.386 121.996 51.7029 121.605 51.1303C121.214 50.5577 120.649 50.126 119.994 49.8988C121.284 48.8758 121.389 46.6828 120.204 45.5398C119.649 45.0058 118.911 44.7148 118.266 44.2948C117.899 44.0525 117.557 43.7741 117.246 43.4638C117.821 43.6057 118.42 43.6241 119.004 43.5178C119.471 43.4152 119.905 43.1966 120.266 42.882C120.627 42.5674 120.903 42.167 121.068 41.7178C121.22 41.2629 121.242 40.7744 121.132 40.3075C121.022 39.8405 120.783 39.4136 120.444 39.0748C120.093 38.7468 119.651 38.5331 119.176 38.4624C118.702 38.3917 118.217 38.4672 117.786 38.6788C116.952 39.1198 116.496 40.0258 116.091 40.8778L115.713 41.6668C114.54 40.1128 113.436 38.5078 111.627 37.9618C109.986 37.4668 108.222 38.0188 106.512 37.8958C105.267 37.8028 104.073 37.3558 102.831 37.2178C101.589 37.0798 100.176 37.3468 99.4437 38.3578C99.0117 38.9578 98.8767 39.7198 98.4417 40.3108C97.5417 41.5288 95.6037 41.6938 94.8657 43.0108C94.2657 44.0848 94.7277 45.4408 94.4697 46.6438C94.1907 47.9518 93.1107 48.9088 92.2287 49.9138C91.3467 50.9188 90.5757 52.2988 91.0707 53.5408C91.5087 54.6358 92.7837 55.2238 93.1977 56.3248C93.4977 57.1288 93.2817 58.0198 93.2667 58.8778C93.2517 59.7358 93.5937 60.7558 94.4307 60.9508L103.95 63.4648C107.229 64.7968 110.61 66.1648 114.15 66.1468C117.69 66.1288 121.467 64.4428 122.85 61.1908C122.335 61.1714 121.847 60.9569 121.485 60.5908C121.947 60.3748 122.355 60.0578 122.678 59.6632C123.002 59.2686 123.233 58.8065 123.354 58.3108Z" fill="#263238"/>
<path d="M115.551 61.2958C116.337 58.8958 117.111 56.4508 117.468 53.9368C117.825 51.4228 117.75 48.8008 116.868 46.4368C116.736 46.0768 115.593 43.6558 115.209 43.6948C114.936 43.7218 115.638 45.9778 115.509 46.2178C114.189 48.4858 113.829 51.2128 114.042 53.8318C114.269 56.3736 114.779 58.8821 115.563 61.3108" fill="#263238"/>
<path d="M107.145 82.3977C111.081 82.3137 115.545 73.6977 115.545 73.6977L115.8 51.5997C116.004 45.2367 112.473 39.8127 106.107 39.7827L105.507 39.8127C102.652 39.9688 99.9591 41.1923 97.9637 43.2406C95.9682 45.2889 94.8154 48.0123 94.7339 50.8707C94.5869 56.3877 94.4909 62.4867 94.6859 65.4327C95.0879 71.5287 101.241 72.1497 101.241 72.1497C101.241 72.1497 101.277 73.5657 101.295 75.3597C101.337 79.3857 105.552 82.5237 107.13 82.3887L107.145 82.3977Z" fill="#FFBE9D"/>
<path d="M101.256 72.1588C101.256 72.1588 105.114 72.1798 109.074 69.3838C109.074 69.3838 107.376 73.9258 101.259 73.7038L101.256 72.1588Z" fill="#EB996E"/>
<path d="M97.3828 55.6679C97.393 55.8974 97.4931 56.1136 97.6616 56.2697C97.8301 56.4258 98.0533 56.5093 98.2828 56.5019C98.3938 56.5047 98.5043 56.4853 98.6077 56.4449C98.7112 56.4044 98.8055 56.3437 98.8851 56.2663C98.9647 56.1889 99.0281 56.0963 99.0715 55.9941C99.1149 55.8919 99.1374 55.782 99.1378 55.6709C99.1284 55.441 99.0286 55.224 98.8601 55.0672C98.6915 54.9105 98.4679 54.8266 98.2378 54.8339C98.1265 54.8311 98.0158 54.8506 97.9122 54.8913C97.8086 54.9319 97.7141 54.9929 97.6345 55.0707C97.5548 55.1484 97.4915 55.2413 97.4482 55.3439C97.405 55.4464 97.3828 55.5566 97.3828 55.6679Z" fill="#263238"/>
<path d="M96.189 53.343C96.303 53.451 96.936 52.926 97.875 52.878C98.814 52.83 99.525 53.265 99.621 53.142C99.666 53.091 99.546 52.89 99.234 52.689C98.8139 52.4287 98.3231 52.306 97.83 52.338C97.3421 52.3622 96.8746 52.5408 96.4949 52.848C96.2189 53.1 96.132 53.295 96.189 53.343Z" fill="#263238"/>
<path d="M105.828 55.443C105.838 55.6725 105.938 55.8887 106.106 56.0448C106.275 56.2009 106.498 56.2844 106.728 56.277C106.839 56.2799 106.95 56.2604 107.053 56.2197C107.157 56.179 107.251 56.1181 107.331 56.0403C107.411 55.9626 107.474 55.8697 107.517 55.7671C107.56 55.6646 107.583 55.5544 107.583 55.443C107.573 55.2163 107.474 55.0023 107.309 54.8466C107.144 54.6909 106.925 54.6057 106.698 54.609C106.585 54.6046 106.473 54.6229 106.368 54.6628C106.263 54.7027 106.167 54.7633 106.085 54.8412C106.004 54.919 105.94 55.0125 105.895 55.1159C105.851 55.2193 105.828 55.3306 105.828 55.443Z" fill="#263238"/>
<path d="M105.393 53.2287C105.507 53.3367 106.143 52.8147 107.079 52.7667C108.015 52.7187 108.729 53.1507 108.825 53.0307C108.873 52.9767 108.753 52.7787 108.438 52.5747C108.017 52.3161 107.527 52.1935 107.034 52.2237C106.546 52.2486 106.079 52.4271 105.699 52.7337C105.426 52.9707 105.339 53.1807 105.393 53.2287Z" fill="#263238"/>
<path d="M102.417 60.6147C102.417 60.5607 101.817 60.4917 100.878 60.4227C100.638 60.4227 100.41 60.3747 100.359 60.2127C100.325 59.9667 100.368 59.7162 100.482 59.4957C100.682 58.8957 100.882 58.2747 101.082 57.6327C101.928 54.9867 102.525 52.8117 102.417 52.7787C102.309 52.7457 101.538 54.8787 100.695 57.5157C100.494 58.1667 100.299 58.7907 100.116 59.3847C99.9798 59.6819 99.9532 60.0178 100.041 60.3327C100.081 60.4151 100.138 60.4875 100.21 60.5441C100.282 60.6008 100.366 60.6403 100.455 60.6597C100.589 60.6894 100.726 60.7015 100.863 60.6957C101.826 60.6957 102.414 60.6687 102.417 60.6147Z" fill="#263238"/>
<path d="M105.21 61.116C105.057 61.116 105.111 62.133 104.277 62.901C103.443 63.669 102.357 63.618 102.357 63.759C102.357 63.825 102.609 63.945 103.065 63.933C103.662 63.9088 104.231 63.6751 104.673 63.273C105.098 62.8853 105.355 62.3472 105.39 61.773C105.408 61.353 105.279 61.107 105.21 61.116Z" fill="#263238"/>
<path d="M105.24 49.422C105.348 49.674 106.278 49.503 107.385 49.575C108.492 49.647 109.398 49.902 109.53 49.665C109.59 49.551 109.422 49.32 109.05 49.092C108.555 48.8157 108.003 48.6557 107.437 48.624C106.871 48.5923 106.306 48.6898 105.783 48.909C105.387 49.092 105.195 49.305 105.24 49.422Z" fill="#263238"/>
<path d="M96.4077 50.2048C96.5847 50.4088 97.2207 50.1538 97.9947 50.1028C98.7687 50.0518 99.4377 50.1688 99.5757 49.9378C99.6387 49.8268 99.5217 49.6168 99.2247 49.4308C98.8255 49.2104 98.3699 49.1133 97.9155 49.1518C97.4611 49.1902 97.0283 49.3625 96.6717 49.6468C96.4077 49.8808 96.3297 50.0998 96.4077 50.2048Z" fill="#263238"/>
<path d="M115.545 56.1537C115.647 56.1027 119.67 54.6897 119.763 58.8537C119.856 63.0177 115.638 62.2587 115.629 62.1537C115.62 62.0487 115.545 56.1537 115.545 56.1537Z" fill="#FFBE9D"/>
<path d="M116.871 60.5456C116.889 60.5456 116.946 60.5936 117.069 60.6476C117.243 60.7178 117.438 60.7178 117.612 60.6476C118.05 60.4766 118.407 59.7656 118.413 59.0126C118.414 58.6541 118.336 58.2997 118.185 57.9746C118.143 57.8453 118.07 57.7282 117.973 57.6331C117.876 57.538 117.757 57.4679 117.627 57.4286C117.543 57.4084 117.454 57.4184 117.376 57.4568C117.298 57.4951 117.237 57.5594 117.201 57.6386C117.147 57.7556 117.177 57.8396 117.153 57.8456C117.129 57.8516 117.063 57.7766 117.093 57.6056C117.114 57.5012 117.17 57.407 117.252 57.3386C117.308 57.2939 117.372 57.2608 117.44 57.2412C117.509 57.2217 117.58 57.216 117.651 57.2246C117.823 57.2548 117.985 57.3285 118.12 57.4388C118.256 57.5491 118.361 57.6922 118.425 57.8546C118.612 58.2128 118.708 58.6116 118.704 59.0156C118.704 59.8586 118.281 60.6536 117.681 60.8426C117.57 60.878 117.451 60.8878 117.336 60.8711C117.22 60.8545 117.109 60.8119 117.012 60.7466C116.88 60.6446 116.856 60.5516 116.871 60.5456Z" fill="#EB996E"/>
<path d="M97.3647 43.9229C96.6837 43.5599 98.6847 41.3429 100.338 40.5659C102.834 39.3959 106.662 38.6459 108.984 39.2729C111.783 40.0259 114.117 41.3729 115.551 43.9049C116.985 46.4369 117.549 49.3739 117.504 52.2719C117.489 53.1569 117.411 54.0719 116.946 54.8339C116.376 55.7639 115.263 56.3609 115.329 57.6359C115.347 57.8664 115.32 58.0983 115.248 58.3182C115.177 58.5381 115.062 58.7416 114.912 58.9169C114.156 59.7389 113.211 58.9859 112.773 58.2269C111.831 56.6009 111.705 54.6479 111.6 52.7759C111.525 51.4439 111.453 50.0759 111.813 48.7979C112.008 48.0989 112.329 47.4359 112.485 46.7279C112.641 46.0199 112.611 45.2279 112.161 44.6429C112.057 44.5196 111.943 44.4061 111.819 44.3039C111.229 43.8035 110.517 43.4688 109.755 43.3338C108.993 43.1989 108.21 43.2686 107.484 43.5359C105.141 44.3999 101.139 45.6959 100.08 44.9099C98.5557 43.7789 98.1837 43.0349 98.1837 43.0349L97.3647 43.9229Z" fill="#263238"/>
<path d="M108.759 38.7001C106.455 37.9621 103.839 38.0371 101.706 39.1801C100.572 39.7801 99.5518 40.7461 99.2218 41.9851C98.8918 43.2241 99.4378 44.7451 100.632 45.2131L100.716 45.2641C102.516 45.8401 103.662 45.5881 105.432 44.9491C106.932 44.4121 108.24 43.4731 109.731 42.9421C111.329 42.3797 113.059 42.3076 114.699 42.7351C113.079 40.9411 111.066 39.4471 108.759 38.7001Z" fill="#263238"/>
<path d="M116.7 42.8399C116.664 42.8699 116.328 42.4709 115.65 41.9999C115.255 41.7244 114.829 41.4968 114.381 41.3219C113.845 41.0959 113.264 40.9933 112.683 41.0219C111.619 41.1403 110.609 41.5562 109.77 42.2219C109.122 42.7349 108.822 43.1669 108.783 43.1369C108.744 43.1069 108.828 43.0079 108.966 42.8159C109.163 42.5437 109.389 42.2942 109.641 42.0719C110.485 41.3264 111.539 40.8619 112.659 40.7429C113.282 40.7071 113.905 40.8181 114.477 41.0669C114.939 41.2604 115.373 41.5157 115.767 41.8259C116.442 42.3689 116.73 42.8219 116.7 42.8399Z" fill="#455A64"/>
<path d="M117.123 44.319C117.088 44.7345 116.98 45.1407 116.805 45.519C116.054 47.3919 114.675 48.9456 112.905 49.914C112.553 50.1329 112.165 50.2873 111.759 50.37C111.708 50.289 113.514 49.605 115.029 47.871C116.544 46.137 117.036 44.28 117.123 44.319Z" fill="#455A64"/>
<path d="M118.824 45C118.857 45.1559 118.862 45.3163 118.839 45.474C118.817 45.9065 118.757 46.3362 118.659 46.758C118.338 48.164 117.674 49.4688 116.727 50.556C115.78 51.6432 114.578 52.4791 113.229 52.989C112.824 53.143 112.406 53.2615 111.981 53.343C111.827 53.3876 111.666 53.4039 111.507 53.391C111.507 53.343 112.164 53.229 113.154 52.791C114.445 52.247 115.596 51.4149 116.516 50.3584C117.437 49.3019 118.104 48.0488 118.467 46.695C118.749 45.669 118.773 45 118.824 45Z" fill="#455A64"/>
<path d="M103.974 38.3247C103.974 38.3727 103.539 38.4747 102.867 38.7417C101.104 39.4424 99.6042 40.6784 98.58 42.2757C98.3906 42.6213 98.1834 42.9568 97.959 43.2807C98.0388 42.8869 98.1915 42.5115 98.409 42.1737C98.8884 41.3273 99.5188 40.5759 100.269 39.9567C101.019 39.3379 101.878 38.8639 102.801 38.5587C103.175 38.4111 103.572 38.3319 103.974 38.3247Z" fill="#455A64"/>
<path d="M120.135 38.8496C120.204 38.8496 120.021 40.0496 119.076 41.1746C118.131 42.2996 116.976 42.6896 116.976 42.6206C116.976 42.5516 117.987 42.0626 118.869 40.9946C119.751 39.9266 120.051 38.8226 120.135 38.8496Z" fill="#455A64"/>
<path d="M75.7379 113.439L78.2159 111.918C78.6364 111.662 79.1188 111.526 79.6109 111.525H84.4109L89.3669 116.04L90.8459 116.778L90.2939 124.578L87.0719 124.182C87.0719 124.182 80.1929 124.482 79.5269 124.035C78.8609 123.588 77.8979 122.184 77.8979 122.184C77.8979 122.184 74.1269 120.963 73.7579 120.633C72.3569 119.376 72.9209 119.076 72.9209 119.076L72.2759 118.776C72.1559 119.004 71.2169 117.474 71.3159 116.706C71.3729 116.259 71.2409 116.262 71.2409 116.262C70.9283 116.082 70.6588 115.837 70.4515 115.542C70.2442 115.247 70.104 114.91 70.0409 114.555C69.9719 114.099 71.8409 114.426 71.8409 114.426L76.4999 114.489L75.7379 113.439Z" fill="#FFBE9D"/>
<path d="M79.8807 114.384L75.4977 108.417C75.3392 108.2 75.1315 108.023 74.8916 107.902C74.6518 107.78 74.3866 107.717 74.1177 107.718H65.4537C65.2866 107.718 65.1264 107.784 65.0083 107.902C64.8901 108.02 64.8237 108.181 64.8237 108.348C64.8252 108.498 64.8793 108.644 64.9767 108.759L69.9417 114.519L79.8807 114.384Z" fill="#455A64"/>
<path d="M77.7569 116.829C77.438 116.915 77.1091 116.958 76.7789 116.958C75.1915 117.051 73.599 116.913 72.0509 116.55C71.7252 116.491 71.4086 116.39 71.1089 116.25C71.4364 116.272 71.7615 116.321 72.0809 116.397C72.6809 116.502 73.4999 116.631 74.4179 116.697C75.3359 116.763 76.1699 116.793 76.7729 116.79C77.1014 116.774 77.4307 116.787 77.7569 116.829Z" fill="#EB996E"/>
<path d="M79.002 119.442C78.6829 119.527 78.3542 119.57 78.024 119.571C77.2313 119.618 76.4361 119.607 75.645 119.538C74.8529 119.47 74.0668 119.345 73.293 119.163C72.9682 119.104 72.6525 119.003 72.354 118.863C72.6815 118.885 73.0065 118.934 73.326 119.01C73.926 119.115 74.745 119.244 75.663 119.31C76.581 119.376 77.415 119.406 78.018 119.403C78.3465 119.387 78.6758 119.4 79.002 119.442Z" fill="#EB996E"/>
<path d="M70.0528 114.555C70.089 114.74 70.1371 114.922 70.1968 115.101C70.3937 115.594 70.7744 115.992 71.2588 116.211L71.2918 116.226V116.262C71.2813 116.789 71.3975 117.312 71.6308 117.786C71.919 118.368 72.3959 118.835 72.9838 119.112L73.0648 119.148L73.0258 119.223C72.9808 119.316 72.9575 119.419 72.9575 119.523C72.9575 119.627 72.9808 119.729 73.0258 119.823C73.1279 120.025 73.2734 120.202 73.4518 120.342C73.8483 120.647 74.2843 120.897 74.7478 121.086C75.7749 121.512 76.8381 121.845 77.9248 122.082H77.9668L77.9878 122.118C78.2659 122.521 78.5934 122.888 78.9628 123.21C79.318 123.562 79.7551 123.821 80.2348 123.963C80.6046 124.054 80.9853 124.092 81.3658 124.077L82.5058 124.107L84.7048 124.167L88.6648 124.278H88.6798L93.3988 125.241L94.7098 125.523L95.0518 125.604C95.0926 125.608 95.1323 125.621 95.1688 125.64C95.1289 125.644 95.0886 125.644 95.0488 125.64L94.7008 125.586L93.3778 125.352L88.6438 124.452H88.6588L84.6988 124.368L82.5028 124.317L81.3598 124.29C80.9619 124.302 80.5642 124.26 80.1778 124.164C79.6668 124.014 79.201 123.74 78.8218 123.366C78.4394 123.031 78.1017 122.649 77.8168 122.229L77.8798 122.274C76.7816 122.032 75.708 121.69 74.6728 121.251C74.1944 121.053 73.7453 120.79 73.3378 120.471C73.1375 120.309 72.9765 120.104 72.8668 119.871C72.8148 119.755 72.7894 119.629 72.7925 119.503C72.7956 119.376 72.8271 119.252 72.8848 119.139L72.9268 119.25C72.3077 118.952 71.8083 118.453 71.5108 117.834C71.2763 117.338 71.1662 116.792 71.1898 116.244L71.2228 116.295C70.972 116.178 70.7475 116.011 70.5629 115.805C70.3784 115.598 70.2375 115.357 70.1488 115.095C70.0839 114.922 70.0513 114.739 70.0528 114.555Z" fill="#EB996E"/>
<path d="M80.4208 121.737C80.4448 121.785 79.8628 122.082 79.0738 122.187C78.2848 122.292 77.6488 122.16 77.6578 122.109C77.6668 122.058 78.2908 122.082 79.0468 121.977C79.8028 121.872 80.3998 121.68 80.4208 121.737Z" fill="#EB996E"/>
<path d="M82.647 114.375C82.647 114.432 81.696 114.513 80.514 114.558C79.332 114.603 78.375 114.588 78.375 114.528C78.375 114.468 79.326 114.39 80.508 114.345C81.69 114.3 82.647 114.315 82.647 114.375Z" fill="#EB996E"/>
<path d="M90.7529 116.139C90.7529 116.139 90.6629 116.226 90.4529 116.259C90.1516 116.291 89.848 116.224 89.5889 116.067C89.2265 115.83 88.8879 115.559 88.5779 115.257L87.3959 114.222L85.2359 112.365C84.9223 112.125 84.6292 111.859 84.3599 111.57C84.7041 111.765 85.0286 111.993 85.3289 112.251C85.9079 112.695 86.6939 113.331 87.5369 114.051C87.9569 114.417 88.3529 114.771 88.7069 115.098C89.0025 115.4 89.3226 115.677 89.6639 115.926C89.8948 116.08 90.166 116.164 90.4439 116.166C90.6419 116.169 90.7469 116.121 90.7529 116.139Z" fill="#EB996E"/>
<path d="M78.9569 114.513C78.9134 114.474 78.8742 114.431 78.8399 114.384L78.5399 114L77.3999 112.563L75.7559 110.421L74.7899 109.155C74.6195 108.947 74.3953 108.791 74.1419 108.702C74.0122 108.657 73.8769 108.63 73.7399 108.621C73.6049 108.621 73.4399 108.621 73.3079 108.621L67.3079 108.597L65.4869 108.573H64.9919C64.9335 108.574 64.8751 108.569 64.8179 108.558C64.8748 108.545 64.9335 108.539 64.9919 108.543L65.4869 108.528L67.3079 108.501L73.3079 108.48C73.4579 108.48 73.6079 108.48 73.7519 108.48C73.9022 108.49 74.0505 108.521 74.1929 108.57C74.4723 108.67 74.7192 108.844 74.9069 109.074L75.8699 110.349L77.4869 112.512C77.9339 113.112 78.2999 113.613 78.5669 113.979C78.6839 114.141 78.7769 114.279 78.8669 114.381C78.9023 114.421 78.9325 114.465 78.9569 114.513Z" fill="#263238"/>
<path d="M69.5341 109.467C69.5898 109.424 69.6569 109.398 69.727 109.393C69.797 109.389 69.867 109.404 69.9281 109.439C69.9893 109.474 70.0388 109.526 70.0705 109.588C70.1022 109.651 70.1147 109.722 70.1065 109.792C70.0982 109.861 70.0696 109.927 70.0241 109.981C69.9786 110.034 69.9183 110.073 69.8508 110.093C69.7833 110.112 69.7115 110.111 69.6445 110.09C69.5775 110.069 69.5182 110.028 69.4741 109.974C69.4183 109.9 69.3922 109.809 69.4011 109.717C69.41 109.625 69.4532 109.54 69.5221 109.479" fill="#F5F5F5"/>
<path d="M115.974 71.9609L128.178 79.1339L130.422 118.734L133.338 141.138H89.478C89.478 141.138 89.961 113.871 90.111 105.624C90.219 99.8429 90.063 88.6379 92.019 81.7469C92.853 78.8099 101.019 75.0149 101.019 75.0149C105.492 78.9659 110.493 77.7869 115.974 71.9609Z" fill="#A2BFBD"/>
<path d="M132.048 131.238C132.048 131.28 122.58 131.316 110.898 131.316C99.216 131.316 89.748 131.28 89.748 131.238C89.748 131.196 99.216 131.16 110.898 131.16C122.58 131.16 132.048 131.193 132.048 131.238Z" fill="white"/>
<g opacity="0.3">
<path d="M89.7207 124.5C93.1167 127.347 98.3937 128.889 102.738 129.768C107.082 130.647 111.519 130.968 115.875 131.766C118.92 132.333 122.115 133.134 125.052 132.144C126.514 131.625 127.796 130.696 128.746 129.469C129.696 128.242 130.273 126.768 130.41 125.223C130.431 125.119 130.431 125.012 130.408 124.909C130.385 124.805 130.341 124.708 130.278 124.623C130.19 124.556 130.09 124.508 129.983 124.483C129.876 124.457 129.765 124.453 129.657 124.473C116.544 125.055 102.657 124.974 89.7207 124.491" fill="black"/>
</g>
<path d="M87.3989 116.292H118.047L118.197 100.143L132.339 98.3188C132.339 98.3188 132.402 114.72 132.402 120.099C132.402 126.555 126.822 131.043 122.136 130.353C117.45 129.663 87.3989 124.053 87.3989 124.053V116.292Z" fill="#FFBE9D"/>
<path d="M133.32 101.673L116.838 103.386V84.0476C116.838 84.0476 118.458 77.5136 124.152 77.7866C129.846 78.0596 133.2 84.2186 133.32 89.8676C133.44 95.5166 133.32 101.673 133.32 101.673Z" fill="#A2BFBD"/>
<path d="M93.7617 79.479C93.7617 79.479 88.4787 82.956 87.0627 86.793C85.5777 90.816 83.4927 103.848 83.4927 103.848H90.8997L93.7617 79.479Z" fill="#A2BFBD"/>
<path d="M116.7 84.8159C116.719 85.0505 116.719 85.2863 116.7 85.5209C116.685 86.0099 116.664 86.6579 116.64 87.4439C116.592 89.0639 116.541 91.3049 116.547 93.7799C116.553 96.2549 116.619 98.4959 116.682 100.116C116.712 100.902 116.736 101.55 116.754 102.039C116.772 102.274 116.772 102.509 116.754 102.744C116.706 102.513 116.678 102.278 116.67 102.042C116.628 101.592 116.577 100.935 116.529 100.125C116.43 98.5019 116.343 96.2609 116.334 93.7799C116.325 91.2989 116.4 89.0579 116.49 87.4349C116.532 86.6249 116.577 85.9709 116.616 85.5179C116.626 85.2821 116.654 85.0474 116.7 84.8159Z" fill="#263238"/>
<path d="M124.998 78.0987C124.998 78.1407 124.446 77.9937 123.552 78.0087C122.388 78.0207 121.249 78.3485 120.257 78.9572C119.264 79.5659 118.456 80.4325 117.918 81.4647C117.501 82.2537 117.384 82.8057 117.345 82.7967C117.347 82.6641 117.369 82.5327 117.411 82.4067C117.501 82.0588 117.627 81.721 117.786 81.3987C118.303 80.3157 119.123 79.4054 120.146 78.7774C121.169 78.1494 122.352 77.8303 123.552 77.8587C123.912 77.865 124.271 77.9062 124.623 77.9817C124.753 78.0011 124.88 78.0406 124.998 78.0987Z" fill="#263238"/>
<path d="M90.3691 88.5869C90.3831 88.6591 90.3901 88.7324 90.3901 88.8059C90.3901 88.9739 90.3901 89.1809 90.4081 89.4329C90.4081 89.9759 90.4261 90.7619 90.4261 91.7339C90.4261 93.6779 90.3961 96.3629 90.3391 99.3269C90.2821 102.291 90.2251 104.946 90.1861 106.917C90.1681 107.865 90.1531 108.645 90.1411 109.218C90.1411 109.47 90.1231 109.677 90.1171 109.845C90.1209 109.918 90.1138 109.99 90.0961 110.061C90.0804 109.99 90.0733 109.917 90.0751 109.845C90.0751 109.677 90.0751 109.47 90.0571 109.218C90.0571 108.675 90.0391 107.889 90.0391 106.917C90.0391 104.973 90.0691 102.288 90.1261 99.3209C90.1831 96.3539 90.2371 93.7019 90.2761 91.7339C90.2971 90.7829 90.3121 90.0059 90.3241 89.4329C90.3241 89.1809 90.3421 88.9739 90.3451 88.8059C90.3428 88.7321 90.3509 88.6584 90.3691 88.5869Z" fill="#263238"/>
<path d="M90.1801 95.0637C89.346 95.1342 88.5084 95.1533 87.6721 95.1207C86.8348 95.1387 85.9971 95.1047 85.1641 95.0187C85.9981 94.9482 86.8357 94.9291 87.6721 94.9617C88.5094 94.9418 89.3471 94.9758 90.1801 95.0637Z" fill="white"/>
<path d="M116.418 90.6C116.418 90.642 110.718 90.678 103.713 90.678C96.708 90.678 91.002 90.642 91.002 90.6C91.002 90.558 96.702 90.522 103.713 90.522C110.724 90.522 116.418 90.549 116.418 90.6Z" fill="white"/>
<path d="M132.963 87.9536C132.907 87.9601 132.851 87.9601 132.795 87.9536L132.321 87.9146L130.581 87.7646C129.108 87.6416 127.074 87.5066 124.824 87.4436C122.574 87.3806 120.534 87.4076 119.058 87.4436L117.309 87.4976H116.835C116.779 87.5057 116.723 87.5057 116.667 87.4976C116.721 87.4834 116.776 87.4754 116.832 87.4736L117.306 87.4316C117.72 87.3986 118.314 87.3626 119.055 87.3266C120.531 87.2576 122.571 87.2186 124.827 87.2786C127.083 87.3386 129.12 87.4946 130.59 87.6446C131.325 87.7196 131.919 87.7886 132.327 87.8456L132.798 87.9116C132.855 87.9183 132.91 87.9324 132.963 87.9536Z" fill="white"/>
<path d="M133.119 99.411C133.119 99.456 129.396 99.411 124.809 99.303C120.222 99.195 116.496 99.078 116.499 99.036C116.502 98.994 120.219 99.036 124.812 99.147C129.405 99.258 133.119 99.369 133.119 99.411Z" fill="white"/>
<path d="M118.146 80.9667C118.146 81.0117 112.272 81.0447 105.027 81.0447C97.7817 81.0447 91.9077 81.0117 91.9077 80.9667C91.9077 80.9217 97.7817 80.8887 105.027 80.8887C112.272 80.8887 118.146 80.9247 118.146 80.9667Z" fill="white"/>
<path d="M116.502 102.765C116.502 102.807 110.61 102.843 103.341 102.843C96.0717 102.843 90.1797 102.807 90.1797 102.765C90.1797 102.723 96.0717 102.687 103.341 102.687C110.61 102.687 116.502 102.72 116.502 102.765Z" fill="white"/>
<path d="M118.392 112.389C118.392 112.431 111.984 112.467 104.082 112.467C96.18 112.467 89.769 112.431 89.769 112.389C89.769 112.347 96.177 112.311 104.082 112.311C111.987 112.311 118.392 112.344 118.392 112.389Z" fill="white"/>
<path d="M132.879 140.139C132.879 140.181 123.216 140.217 111.3 140.217C99.3837 140.217 89.7207 140.181 89.7207 140.139C89.7207 140.097 99.3807 140.061 111.3 140.061C123.219 140.061 132.879 140.1 132.879 140.139Z" fill="white"/>
<g opacity="0.3">
<path d="M116.637 103.569C116.445 99.7471 116.583 96.1711 116.388 92.3521C115.086 97.9567 114.472 103.699 114.558 109.452C114.579 110.817 114.645 112.206 115.086 113.499C115.527 114.792 116.748 115.899 117.996 116.451L118.116 103.404C117.555 103.446 117.201 103.542 116.637 103.569Z" fill="black"/>
</g>
<path d="M31.7158 127.044L29.5528 141.255H16.9858L14.0698 127.248L31.7158 127.044Z" fill="#A2BFBD"/>
<path d="M15.8281 136.152C15.8281 136.194 19.0471 136.227 23.0281 136.227C27.0091 136.227 30.2281 136.194 30.2281 136.152C30.2281 136.11 27.0091 136.08 23.0281 136.08C19.0471 136.08 15.8281 136.113 15.8281 136.152Z" fill="#FAFAFA"/>
<path d="M15.7798 135.453C15.7798 135.495 19.0198 135.528 23.0188 135.528C27.0178 135.528 30.2578 135.495 30.2578 135.453C30.2578 135.411 27.0178 135.381 23.0188 135.381C19.0198 135.381 15.7798 135.414 15.7798 135.453Z" fill="#FAFAFA"/>
<path d="M15.8042 134.664C15.8042 134.706 19.0442 134.739 23.0432 134.739C27.0422 134.739 30.2822 134.706 30.2822 134.664C30.2822 134.622 27.0422 134.589 23.0432 134.589C19.0442 134.589 15.8042 134.622 15.8042 134.664Z" fill="#FAFAFA"/>
<path d="M28.1099 140.445C28.2841 139.856 28.4125 139.254 28.4939 138.645C28.6224 138.047 28.7027 137.441 28.7339 136.83C28.5571 137.419 28.4286 138.021 28.3499 138.63C28.2196 139.227 28.1393 139.834 28.1099 140.445Z" fill="#FAFAFA"/>
<path d="M27.255 140.295C27.3404 139.716 27.3925 139.133 27.411 138.549C27.4744 137.967 27.5014 137.382 27.492 136.797C27.355 137.367 27.2785 137.95 27.264 138.537C27.1971 139.121 27.194 139.71 27.255 140.295Z" fill="#FAFAFA"/>
<path d="M25.6948 140.295C25.9885 139.118 26.1306 137.908 26.1178 136.695C26.0035 137.29 25.9224 137.891 25.8748 138.495C25.7825 139.092 25.7225 139.693 25.6948 140.295Z" fill="#FAFAFA"/>
<path d="M24.5998 140.37C24.7926 139.164 24.832 137.938 24.7168 136.722C24.6518 137.328 24.6217 137.937 24.6268 138.546C24.5816 139.153 24.5726 139.762 24.5998 140.37Z" fill="#FAFAFA"/>
<path d="M22.6648 140.295C22.7599 139.724 22.8051 139.146 22.7998 138.567C22.8431 137.99 22.8371 137.411 22.7818 136.836C22.6905 137.407 22.6464 137.985 22.6498 138.564C22.6083 139.14 22.6134 139.719 22.6648 140.295Z" fill="#FAFAFA"/>
<path d="M21.2517 140.37C21.323 139.773 21.3431 139.171 21.3117 138.57C21.3314 137.974 21.3013 137.377 21.2217 136.785C21.1544 137.383 21.1354 137.985 21.1647 138.585C21.1451 139.182 21.1742 139.779 21.2517 140.37Z" fill="#FAFAFA"/>
<path d="M19.9258 140.178C19.9408 139.554 19.9046 138.93 19.8178 138.312C19.7816 137.689 19.6973 137.071 19.5658 136.461C19.5508 137.085 19.5869 137.709 19.6738 138.327C19.71 138.95 19.7943 139.568 19.9258 140.178Z" fill="#FAFAFA"/>
<path d="M18.2161 139.992C18.2139 139.456 18.1433 138.923 18.0061 138.405C17.9157 137.877 17.7585 137.363 17.5381 136.875C17.6177 137.401 17.7259 137.923 17.8621 138.438C17.9498 138.962 18.068 139.481 18.2161 139.992Z" fill="#FAFAFA"/>
<path d="M19.428 99C19.4244 99.0239 19.4244 99.0481 19.428 99.072C19.428 99.126 19.461 99.192 19.485 99.273C19.545 99.459 19.623 99.714 19.725 100.038C19.827 100.362 19.962 100.779 20.094 101.256C20.226 101.733 20.394 102.27 20.547 102.876C20.7 103.482 20.88 104.139 21.036 104.856C21.192 105.573 21.357 106.335 21.522 107.145C21.822 108.765 22.098 110.556 22.29 112.446C22.482 114.336 22.56 116.151 22.59 117.801C22.59 118.623 22.59 119.406 22.569 120.141C22.548 120.876 22.515 121.554 22.479 122.178C22.443 122.802 22.395 123.36 22.356 123.855C22.317 124.35 22.275 124.773 22.233 125.121C22.191 125.469 22.17 125.721 22.152 125.919C22.152 126.003 22.146 126.072 22.134 126.126C22.134 126.174 22.134 126.198 22.134 126.198C22.1441 126.176 22.1502 126.153 22.152 126.129C22.152 126.075 22.17 126.006 22.185 125.922C22.209 125.73 22.248 125.463 22.293 125.127C22.338 124.791 22.395 124.356 22.44 123.864C22.485 123.372 22.551 122.808 22.587 122.184C22.623 121.56 22.674 120.879 22.692 120.144C22.71 119.409 22.725 118.626 22.731 117.798C22.713 116.148 22.632 114.33 22.431 112.434C22.23 110.538 21.957 108.741 21.648 107.118C21.48 106.308 21.33 105.54 21.15 104.826C20.97 104.112 20.808 103.449 20.643 102.849C20.478 102.249 20.31 101.706 20.166 101.232C20.022 100.758 19.89 100.35 19.773 100.032C19.656 99.714 19.572 99.459 19.509 99.273C19.479 99.195 19.455 99.129 19.437 99.078C19.4357 99.0518 19.4327 99.0258 19.428 99Z" fill="#263238"/>
<path d="M21.6958 107.799C21.3498 106.774 20.6583 105.901 19.7398 105.33C19.4398 105.138 19.0378 104.982 18.7078 105.141C18.2698 105.354 18.2338 105.969 18.3658 106.44C18.5937 107.238 19.1032 107.927 19.7998 108.378C20.412 108.831 21.1788 109.024 21.9328 108.915" fill="#263238"/>
<path d="M22.4579 113.742C22.1339 112.515 21.1559 110.772 20.1389 110.01C19.9831 109.883 19.8036 109.788 19.6109 109.731C19.5144 109.702 19.4121 109.698 19.3135 109.719C19.215 109.74 19.1233 109.785 19.0469 109.851C18.9602 109.966 18.9033 110.101 18.8813 110.243C18.8593 110.385 18.8729 110.531 18.9209 110.667C19.1294 111.562 19.5827 112.381 20.2301 113.032C20.8776 113.684 21.6936 114.143 22.5869 114.357" fill="#263238"/>
<path d="M22.6679 118.971C22.1634 117.8 21.3556 116.785 20.3279 116.031C20.2193 115.928 20.091 115.849 19.9507 115.797C19.8104 115.746 19.6612 115.723 19.5119 115.731C19.0679 115.809 18.8669 116.352 18.9119 116.802C18.9929 117.726 19.7009 118.47 20.4299 119.043C21.0991 119.507 21.8263 119.881 22.5929 120.156" fill="#263238"/>
<path d="M22.5511 122.733C22.0634 121.839 21.383 121.064 20.5591 120.465C20.3824 120.331 20.177 120.239 19.9591 120.198C19.8483 120.175 19.7332 120.183 19.627 120.222C19.5208 120.262 19.4279 120.33 19.3591 120.42C19.1581 120.72 19.3591 121.11 19.5631 121.395C20.2655 122.373 21.2603 123.102 22.4041 123.477" fill="#263238"/>
<path d="M22.6502 121.2C23.5083 120.149 24.4624 119.18 25.5002 118.305C25.5694 118.225 25.6575 118.164 25.7566 118.126C25.8556 118.089 25.9624 118.077 26.0672 118.092C26.1429 118.123 26.2079 118.176 26.2543 118.244C26.3006 118.311 26.3263 118.391 26.3282 118.473C26.3282 118.638 26.2913 118.801 26.2202 118.95C25.8797 119.706 25.3734 120.375 24.7387 120.909C24.104 121.442 23.3574 121.826 22.5542 122.031" fill="#263238"/>
<path d="M22.5571 116.313L24.7951 113.586C24.992 113.313 25.2382 113.079 25.5211 112.896C25.6651 112.81 25.83 112.764 25.9981 112.764C26.1662 112.764 26.3312 112.81 26.4751 112.896C26.604 113.004 26.7003 113.145 26.7533 113.304C26.8063 113.463 26.8139 113.633 26.7751 113.796C26.6951 114.124 26.5458 114.431 26.3371 114.696C25.9026 115.357 25.3528 115.934 24.7141 116.4C24.0571 116.853 23.4601 117.147 22.6711 117.03" fill="#263238"/>
<path d="M22.248 110.802C22.6849 109.496 23.4615 108.33 24.498 107.424C24.6633 107.258 24.8707 107.14 25.098 107.082C25.3261 107.064 25.5533 107.126 25.7405 107.258C25.9278 107.389 26.0634 107.582 26.124 107.802C26.1959 108.049 26.2149 108.309 26.1797 108.563C26.1446 108.818 26.0561 109.063 25.92 109.281C25.6477 109.718 25.2907 110.097 24.87 110.394C24.1163 110.969 23.2771 111.423 22.383 111.738" fill="#263238"/>
<path d="M21.354 105.9C21.57 104.319 22.392 103.002 23.346 101.724C23.547 101.454 23.829 101.169 24.159 101.22C24.2642 101.242 24.3621 101.29 24.4439 101.36C24.5257 101.43 24.5886 101.519 24.627 101.619C24.7011 101.822 24.7308 102.038 24.714 102.252C24.6731 103.21 24.3508 104.135 23.7873 104.911C23.2239 105.687 22.4443 106.279 21.546 106.614" fill="#263238"/>
<path d="M20.727 103.38C20.8304 102.57 20.8575 101.753 20.808 100.938C20.7572 100.118 20.4765 99.329 19.998 98.6611C19.798 98.3745 19.5215 98.15 19.2 98.0131C19.0366 97.9478 18.8592 97.9257 18.6847 97.9488C18.5103 97.972 18.3448 98.0395 18.204 98.1451C18.0849 98.2567 17.9924 98.3936 17.9332 98.5458C17.874 98.6979 17.8497 98.8613 17.862 99.0241C17.892 99.3482 17.9772 99.6648 18.114 99.9601C18.714 101.394 19.704 102.981 20.742 103.38" fill="#263238"/>
<path d="M30.4709 105.264C30.4638 105.331 30.4638 105.398 30.4709 105.465C30.4709 105.612 30.4709 105.801 30.4709 106.038C30.4709 106.275 30.4709 106.593 30.4559 106.938C30.4409 107.283 30.4559 107.694 30.4139 108.138C30.3749 109.038 30.2879 110.082 30.1529 111.252C30.0179 112.422 29.7899 113.7 29.5169 115.035C29.2439 116.37 28.9169 117.615 28.5659 118.743C28.2149 119.871 27.8729 120.867 27.5519 121.698C27.4019 122.115 27.2519 122.487 27.1109 122.814C26.9699 123.141 26.8589 123.414 26.7569 123.651L26.5349 124.179C26.5056 124.24 26.4815 124.303 26.4629 124.368C26.5014 124.312 26.5346 124.253 26.5619 124.191C26.6249 124.059 26.7059 123.891 26.8109 123.675C26.9159 123.459 27.0479 123.174 27.1859 122.847C27.3239 122.52 27.4859 122.154 27.6509 121.737C27.9839 120.909 28.3409 119.907 28.6949 118.782C29.0489 117.657 29.3759 116.397 29.6609 115.065C29.9459 113.733 30.1319 112.449 30.2609 111.276C30.3899 110.103 30.4649 109.044 30.4889 108.15C30.5129 107.706 30.5069 107.301 30.5099 106.95C30.5129 106.599 30.5099 106.29 30.5099 106.05C30.5099 105.81 30.5099 105.624 30.4889 105.477C30.4915 105.406 30.4855 105.334 30.4709 105.264Z" fill="#263238"/>
<path d="M30.1197 111.744C30.1045 110.973 29.8225 110.231 29.3217 109.644C29.2481 109.536 29.1492 109.448 29.0337 109.386C28.9181 109.325 28.7894 109.293 28.6587 109.293C28.3137 109.344 28.1577 109.755 28.1457 110.103C28.1274 110.694 28.3234 111.271 28.6977 111.729C29.017 112.169 29.4966 112.465 30.0327 112.554" fill="#263238"/>
<path d="M29.3611 115.956C29.4031 115.056 29.1121 113.652 28.5841 112.917C28.5051 112.798 28.4031 112.696 28.2841 112.617C28.2238 112.578 28.1548 112.554 28.0831 112.548C28.0114 112.541 27.9393 112.553 27.8731 112.581C27.7883 112.639 27.7198 112.718 27.6741 112.809C27.6284 112.901 27.607 113.003 27.6121 113.106C27.5616 113.76 27.6939 114.415 27.9943 114.997C28.2947 115.58 28.7513 116.068 29.3131 116.406" fill="#263238"/>
<path d="M28.3767 119.562C28.2864 118.656 27.9561 117.79 27.4197 117.054C27.366 116.962 27.2946 116.882 27.2096 116.818C27.1246 116.754 27.0278 116.708 26.9247 116.682C26.6067 116.64 26.3517 116.967 26.2827 117.282C26.1387 117.927 26.4597 118.584 26.8317 119.133C27.1882 119.592 27.6026 120.004 28.0647 120.357" fill="#263238"/>
<path d="M27.489 122.1C27.3484 121.387 27.0523 120.714 26.622 120.129C26.5285 120.004 26.4087 119.902 26.271 119.829C26.2011 119.793 26.1225 119.776 26.0438 119.781C25.9651 119.785 25.8891 119.811 25.824 119.856C25.626 120.012 25.671 120.321 25.755 120.561C26.0255 121.381 26.5511 122.092 27.255 122.592" fill="#263238"/>
<path d="M27.8998 121.077C28.7098 120.545 29.5675 120.09 30.4618 119.718C30.5259 119.678 30.5992 119.654 30.6747 119.65C30.7503 119.646 30.8257 119.661 30.8938 119.694C30.936 119.73 30.9674 119.777 30.9843 119.83C31.0013 119.883 31.0032 119.94 30.9898 119.994C30.9547 120.106 30.8941 120.209 30.8128 120.294C30.4188 120.736 29.9301 121.083 29.3832 121.31C28.8362 121.537 28.2451 121.638 27.6538 121.605" fill="#263238"/>
<path d="M28.8751 117.726C29.5791 117.27 30.2791 116.812 30.9751 116.352C31.1692 116.212 31.388 116.11 31.6201 116.052C31.7354 116.012 31.8604 116.009 31.9772 116.045C32.094 116.08 32.1966 116.151 32.2705 116.249C32.3443 116.346 32.3856 116.464 32.3884 116.586C32.3912 116.708 32.3554 116.827 32.2861 116.928C32.1601 117.133 31.9925 117.308 31.7941 117.444C31.3546 117.808 30.8523 118.088 30.3121 118.272C30.0711 118.374 29.8119 118.427 29.5501 118.427C29.2882 118.427 29.0291 118.374 28.7881 118.272" fill="#263238"/>
<path d="M29.85 113.91C30.4299 113.116 31.2092 112.489 32.109 112.092C32.2556 112.018 32.4187 111.981 32.583 111.987C32.7421 112.024 32.8833 112.115 32.9824 112.245C33.0815 112.374 33.1323 112.535 33.126 112.698C33.1209 112.882 33.0774 113.062 32.9984 113.228C32.9193 113.394 32.8064 113.541 32.667 113.661C32.3878 113.9 32.0634 114.081 31.713 114.192C31.0761 114.422 30.4068 114.55 29.73 114.57" fill="#263238"/>
<path d="M30.2999 110.373C30.7859 109.344 31.6289 108.624 32.5529 107.958C32.6391 107.875 32.7457 107.815 32.862 107.786C32.9783 107.756 33.1003 107.758 33.2159 107.79C33.2829 107.828 33.3394 107.881 33.3803 107.946C33.4212 108.011 33.4451 108.085 33.4499 108.162C33.457 108.316 33.4304 108.47 33.3719 108.612C33.1377 109.256 32.7192 109.816 32.1686 110.223C31.618 110.63 30.9597 110.866 30.2759 110.901" fill="#263238"/>
<path d="M30.4141 108.531C30.6586 108.001 30.8525 107.45 30.9931 106.884C31.1358 106.315 31.115 105.717 30.9331 105.159C30.8531 104.925 30.7098 104.717 30.5192 104.559C30.4218 104.479 30.3056 104.426 30.1816 104.403C30.0576 104.381 29.9301 104.392 29.8112 104.433C29.7063 104.483 29.6141 104.557 29.5414 104.648C29.4687 104.739 29.4174 104.845 29.3911 104.958C29.3391 105.184 29.329 105.418 29.3612 105.648C29.4572 106.752 29.7931 108.048 30.4141 108.546" fill="#263238"/>
<path d="M14.5828 105.126C14.5783 105.193 14.5783 105.26 14.5828 105.327C14.5828 105.474 14.5678 105.663 14.5618 105.9C14.5558 106.137 14.5438 106.455 14.5618 106.8C14.5798 107.145 14.5618 107.559 14.5828 108C14.6098 108.9 14.6848 109.953 14.8108 111.126C14.9368 112.299 15.1468 113.583 15.4108 114.915C15.6748 116.247 16.0288 117.504 16.3738 118.632C16.7188 119.76 17.0848 120.759 17.4208 121.587C17.5798 122.004 17.7448 122.37 17.8858 122.697C18.0268 123.024 18.1498 123.297 18.2608 123.525L18.5098 124.041C18.5355 124.103 18.5676 124.163 18.6058 124.218C18.5875 124.153 18.5644 124.09 18.5368 124.029L18.2998 123.513C18.1978 123.285 18.0778 123.006 17.9488 122.676C17.8198 122.346 17.6488 121.977 17.5048 121.56C17.1838 120.729 16.8388 119.727 16.4908 118.605C16.1428 117.483 15.8218 116.226 15.5398 114.9C15.2578 113.574 15.0658 112.293 14.9188 111.126C14.7718 109.959 14.6998 108.9 14.6608 108C14.6308 107.556 14.6278 107.154 14.6158 106.8C14.6038 106.446 14.6158 106.14 14.6158 105.9C14.6158 105.66 14.6158 105.474 14.6158 105.327C14.6133 105.259 14.6022 105.191 14.5828 105.126Z" fill="#455A64"/>
<path d="M14.9341 111.6C14.9491 110.828 15.2323 110.086 15.7351 109.5C15.8079 109.392 15.9062 109.303 16.0213 109.242C16.1363 109.181 16.2647 109.149 16.3951 109.149C16.7401 109.2 16.8961 109.611 16.9081 109.959C16.9312 110.555 16.736 111.138 16.3591 111.6C16.0389 112.04 15.5582 112.337 15.0211 112.425" fill="#455A64"/>
<path d="M15.693 115.818C15.651 114.918 15.942 113.514 16.47 112.779C16.5491 112.66 16.6511 112.558 16.77 112.479C16.8297 112.44 16.8982 112.416 16.9694 112.41C17.0406 112.404 17.1123 112.415 17.178 112.443C17.2627 112.501 17.3313 112.58 17.377 112.672C17.4227 112.764 17.444 112.866 17.439 112.968C17.4902 113.622 17.3581 114.277 17.0576 114.86C16.7572 115.443 16.3002 115.931 15.738 116.268" fill="#455A64"/>
<path d="M16.6768 119.424C16.7695 118.518 17.1008 117.653 17.6368 116.916C17.69 116.825 17.7609 116.745 17.8454 116.681C17.9298 116.617 18.0262 116.57 18.1288 116.544C18.4498 116.502 18.7018 116.829 18.7738 117.144C18.9178 117.789 18.5968 118.449 18.2218 118.995C17.8661 119.455 17.4516 119.867 16.9888 120.219" fill="#455A64"/>
<path d="M17.5679 121.959C17.7076 121.25 18.0038 120.58 18.4349 120C18.5273 119.876 18.6461 119.773 18.7829 119.7C18.8528 119.664 18.9314 119.647 19.0101 119.652C19.0888 119.656 19.1648 119.683 19.2299 119.727C19.4279 119.883 19.3859 120.195 19.3019 120.432C19.0301 121.251 18.5048 121.962 17.8019 122.463" fill="#455A64"/>
<path d="M17.1721 120.939C16.361 120.408 15.5023 119.953 14.607 119.58C14.543 119.54 14.4697 119.517 14.3941 119.512C14.3186 119.508 14.2432 119.523 14.1751 119.556C14.1306 119.594 14.0981 119.644 14.0816 119.7C14.0651 119.756 14.0652 119.815 14.082 119.871C14.1161 119.983 14.1757 120.086 14.2561 120.171C14.6502 120.613 15.1389 120.96 15.6858 121.187C16.2328 121.414 16.8238 121.515 17.4151 121.482" fill="#455A64"/>
<path d="M16.1787 117.6L14.0787 116.226C13.8854 116.087 13.6676 115.985 13.4367 115.926C13.3205 115.896 13.1982 115.898 13.0833 115.933C12.9684 115.968 12.8654 116.034 12.7857 116.124C12.7195 116.224 12.683 116.341 12.6803 116.461C12.6777 116.581 12.709 116.699 12.7707 116.802C12.895 116.999 13.0584 117.169 13.2507 117.3C13.6907 117.664 14.1928 117.944 14.7327 118.128C14.9742 118.231 15.2339 118.284 15.4962 118.284C15.7586 118.284 16.0183 118.231 16.2597 118.128" fill="#455A64"/>
<path d="M15.2041 113.772C14.6256 112.977 13.8459 112.349 12.9451 111.954C12.7996 111.88 12.6375 111.844 12.4741 111.849C12.3148 111.886 12.1732 111.977 12.0736 112.107C11.974 112.236 11.9226 112.397 11.9281 112.56C11.9333 112.744 11.9767 112.924 12.0558 113.09C12.1348 113.256 12.2477 113.404 12.3871 113.523C12.6663 113.762 12.9907 113.943 13.3411 114.054C13.978 114.284 14.6473 114.412 15.3241 114.432" fill="#455A64"/>
<path d="M14.757 110.235C14.268 109.206 13.425 108.486 12.501 107.82C12.4149 107.737 12.3083 107.677 12.192 107.647C12.0756 107.618 11.9535 107.62 11.838 107.652C11.7717 107.69 11.7159 107.744 11.6756 107.809C11.6353 107.874 11.6117 107.948 11.607 108.024C11.5988 108.178 11.6244 108.332 11.682 108.474C11.9165 109.117 12.3351 109.677 12.8856 110.084C13.4361 110.491 14.0942 110.728 14.778 110.763" fill="#455A64"/>
<path d="M14.643 108.393C14.3976 107.864 14.2027 107.312 14.061 106.746C13.9194 106.177 13.9412 105.579 14.124 105.021C14.1983 104.778 14.3422 104.562 14.538 104.4C14.6347 104.32 14.7505 104.267 14.874 104.245C14.9975 104.223 15.1246 104.233 15.243 104.274C15.3483 104.325 15.4409 104.398 15.5142 104.489C15.5874 104.58 15.6392 104.686 15.666 104.799C15.715 105.026 15.7252 105.259 15.696 105.489C15.597 106.596 15.264 107.889 14.643 108.387" fill="#455A64"/>
<path d="M33.1562 124.23V126.9C33.1562 127.037 33.1291 127.174 33.0765 127.301C33.0239 127.428 32.9468 127.543 32.8495 127.64C32.7523 127.738 32.6369 127.815 32.5099 127.867C32.3828 127.92 32.2467 127.947 32.1092 127.947H13.9142C13.7767 127.947 13.6405 127.92 13.5135 127.867C13.3865 127.815 13.2711 127.738 13.1738 127.64C13.0766 127.543 12.9995 127.428 12.9469 127.301C12.8943 127.174 12.8672 127.037 12.8672 126.9V124.23H33.1562Z" fill="#A2BFBD"/>
<g opacity="0.4">
<path d="M31.5779 127.935L31.4279 128.781L14.6399 129.978L14.2139 127.935H31.5779Z" fill="black"/>
</g>
<path d="M141.324 141.198C141.324 141.24 111.624 141.276 75.0028 141.276C38.3818 141.276 8.67578 141.24 8.67578 141.198C8.67578 141.156 38.3758 141.12 75.0028 141.12C111.63 141.12 141.324 141.153 141.324 141.198Z" fill="#263238"/>
</svg>
