<svg width="25" height="24" viewBox="0 0 25 24" fill="none" xmlns="http://www.w3.org/2000/svg">
<path d="M20.9201 4.57996C20.4184 4.07653 19.8223 3.67709 19.1659 3.40455C18.5095 3.132 17.8058 2.9917 17.0951 2.9917C16.3844 2.9917 15.6806 3.132 15.0243 3.40455C14.3679 3.67709 13.7718 4.07653 13.2701 4.57996L12.5001 5.35996L11.7301 4.57996C11.2284 4.07653 10.6323 3.67709 9.97591 3.40455C9.31953 3.132 8.6158 2.9917 7.90509 2.9917C7.19437 2.9917 6.49065 3.132 5.83427 3.40455C5.17789 3.67709 4.58176 4.07653 4.08009 4.57996C1.96009 6.69996 1.83009 10.28 4.50009 13L12.5001 21L20.5001 13C23.1701 10.28 23.0401 6.69996 20.9201 4.57996Z" stroke="#ECEFEF" stroke-width="2" stroke-linecap="round" stroke-linejoin="round"/>
</svg>
