<svg width="26" height="30" viewBox="0 0 26 30" fill="none" xmlns="http://www.w3.org/2000/svg">
<path d="M25.6608 23.3574C25.6582 23.3564 25.6552 23.355 25.6522 23.3537C25.01 23.1835 24.3267 23.2245 23.7241 23.4026C23.4197 23.4892 23.1317 23.6133 22.8652 23.7601C22.6027 23.9095 22.3783 24.0986 22.1388 24.2677C20.0382 25.7568 18.2634 29.929 11.8515 29.6058C11.6817 29.5948 11.5134 29.5834 11.3463 29.5662C6.80353 28.9378 3.91172 25.8717 2.72413 21.6668C2.46772 20.7581 2.33724 19.825 2.33661 18.894V8.71904H4.33979C4.43916 8.73508 4.51424 8.76608 4.56501 8.81486C4.63809 8.88778 4.67387 8.99534 4.67387 9.13908V16.8671C4.67387 17.0112 4.63809 17.1194 4.56501 17.1912C4.49305 17.2639 4.3675 17.2994 4.18764 17.2994H3.91683V17.6233H5.75394V17.2994H5.48405C5.34013 17.2994 5.21457 17.2639 5.10564 17.1912C5.03368 17.1194 4.99853 17.0112 4.99853 16.8671V9.94985H5.10564L8.29423 17.6233H8.61746L11.9693 9.62567H12.0771V17.4677C12.0771 17.6118 12.0403 17.7199 11.9693 17.7917C11.8962 17.8644 11.7703 17.8999 11.5909 17.8999H11.2125V18.2238H14.0643L13.0588 20.7451C12.9857 20.9615 12.8784 21.1055 12.7344 21.1776C12.6259 21.2858 12.5001 21.3399 12.3561 21.3399H12.2472V21.6643H14.3018V21.3399H14.1396C13.8865 21.3399 13.6891 21.2679 13.545 21.1234C13.4361 20.9802 13.4361 20.782 13.545 20.5291L14.4567 18.2238H18.4705L19.3809 20.5827C19.4543 20.7992 19.4543 20.9801 19.3809 21.1234C19.3456 21.2678 19.2198 21.3399 19.0028 21.3399H18.7865V21.6643H23.6632H23.9905V21.2618V11.1055C23.9905 10.1474 23.8559 9.18819 23.592 8.25341C22.3657 3.9136 19.3474 0.7529 14.6527 0.122308V0.120196C14.6372 0.118567 14.623 0.118122 14.6083 0.116863C14.5136 0.104715 14.2652 0.0833444 14.2485 0.0893814C13.9677 0.0701592 13.6844 0.0566406 13.3989 0.0566406C13.3689 0.0566406 13.3382 0.0583072 13.309 0.0583072C7.78553 0.014048 5.63764 3.86023 3.5215 5.43156C3.30839 5.59045 3.09213 5.74201 2.85661 5.86675C2.62068 5.98815 2.36942 6.08823 2.10731 6.1543C1.5872 6.29386 1.02657 6.30334 0.53624 6.15938L0.534648 6.15871C0.377759 6.1123 0.206907 6.18323 0.152463 6.31652C0.0980555 6.45045 0.180648 6.59571 0.338907 6.64219C0.340796 6.64319 0.343907 6.64449 0.346981 6.64593C0.988796 6.81597 1.67254 6.77512 2.27583 6.59693C2.58024 6.5103 2.86624 6.38626 3.13405 6.23952C3.39713 6.09004 3.62161 5.90134 3.86142 5.73189C5.96094 4.24275 7.73627 0.0702336 14.1481 0.393863C14.3173 0.404641 14.4859 0.416492 14.6527 0.433418C19.1957 1.06164 22.0883 4.12771 23.2757 8.3326C23.5323 9.24156 23.6619 10.1744 23.6633 11.1055V21.2619H20.7862C20.749 21.2385 20.7126 21.2118 20.6787 21.1777C20.5697 21.1057 20.4806 20.9616 20.4076 20.7452L19.4517 18.2239H20.1302L20.4843 15.9824L20.2865 15.8673C20.1566 16.5193 19.9601 17.0168 19.6979 17.362C19.5602 17.5274 19.4159 17.6522 19.266 17.738L17.1666 12.2072H16.4605L14.2016 17.8793H13.474C13.3689 17.8793 13.2777 17.8407 13.1986 17.7642C13.1464 17.6879 13.1208 17.573 13.1208 17.4194V7.85741C13.1208 7.70463 13.1463 7.59 13.1986 7.51289C13.2777 7.43652 13.3689 7.39793 13.474 7.39793H13.7486V7.31908H13.7529V6.99482H13.474H12.077H11.3509V7.39793H12.077L12.0753 8.49015L8.77971 16.2724H8.67294L5.37653 8.38271H3.86298V8.38323H2.33665V8.38271H2.00931V18.8941C2.00931 19.8521 2.14383 20.8115 2.40757 21.7461C3.63346 26.0863 6.65209 29.2468 11.3464 29.8774V29.8795C11.3616 29.8812 11.3769 29.8818 11.3911 29.8828C11.4858 29.8951 11.7339 29.9161 11.7508 29.9101C12.0316 29.9295 12.3148 29.9431 12.5996 29.9431C12.6303 29.9431 12.6605 29.9412 12.6901 29.9412C18.2136 29.9855 20.3614 26.1391 22.4779 24.568C22.6916 24.409 22.9064 24.2577 23.1424 24.1324C23.3793 24.0114 23.6299 23.9112 23.8932 23.8454C24.4126 23.7057 24.9732 23.6962 25.4636 23.8403V23.8409C25.6213 23.8872 25.7931 23.8162 25.8466 23.6827C25.9016 23.5496 25.8186 23.4037 25.6608 23.3574ZM16.4632 13.1256H16.5174L18.3528 17.8794H14.573L16.4632 13.1256Z" fill="#162938"/>
<path d="M24.2492 24.5189C24.2426 24.5175 24.235 24.5175 24.2276 24.5168H24.2254C23.2144 24.4793 22.2553 24.9276 21.7632 25.6215C21.7409 25.6524 21.7529 25.6932 21.7894 25.7118C21.8236 25.7304 21.8678 25.7234 21.8908 25.6969C22.4285 25.0889 23.3545 24.7802 24.1932 24.8872C24.3128 24.9027 24.4219 24.8323 24.4372 24.7305C24.4541 24.6294 24.3698 24.5336 24.2492 24.5189Z" fill="url(#paint0_linear_249_5776)"/>
<path d="M1.74999 5.48078C1.75625 5.48201 1.76369 5.48201 1.77158 5.48282H1.77421C2.78506 5.52004 3.74336 5.07193 4.23669 4.37801C4.25828 4.34741 4.24613 4.30645 4.21017 4.28775C4.1755 4.26923 4.13039 4.27619 4.10754 4.3026C3.57024 4.9106 2.64458 5.21967 1.80676 5.11249C1.68628 5.09693 1.5768 5.16727 1.56151 5.26908C1.54565 5.37019 1.62888 5.46589 1.74999 5.48078Z" fill="url(#paint1_linear_249_5776)"/>
<defs>
<linearGradient id="paint0_linear_249_5776" x1="21.752" y1="25.1184" x2="24.4394" y2="25.1184" gradientUnits="userSpaceOnUse">
<stop stop-color="#AE782B"/>
<stop offset="0.3405" stop-color="#CB9B44"/>
<stop offset="0.6558" stop-color="#E6BC61"/>
<stop offset="0.829" stop-color="#F3CB6E"/>
<stop offset="0.9471" stop-color="#F9D26F"/>
<stop offset="1" stop-color="#FFD86F"/>
</linearGradient>
<linearGradient id="paint1_linear_249_5776" x1="1.55956" y1="4.88119" x2="4.24742" y2="4.88119" gradientUnits="userSpaceOnUse">
<stop stop-color="#AE782B"/>
<stop offset="0.3405" stop-color="#CB9B44"/>
<stop offset="0.6558" stop-color="#E6BC61"/>
<stop offset="0.829" stop-color="#F3CB6E"/>
<stop offset="0.9471" stop-color="#F9D26F"/>
<stop offset="1" stop-color="#FFD86F"/>
</linearGradient>
</defs>
</svg>
