<svg width="16" height="17" viewBox="0 0 16 17" fill="none" xmlns="http://www.w3.org/2000/svg">
<path d="M13.3337 7.16683C13.3337 11.1668 8.00033 15.1668 8.00033 15.1668C8.00033 15.1668 2.66699 11.1668 2.66699 7.16683C2.66699 5.75234 3.2289 4.39579 4.22909 3.39559C5.22928 2.3954 6.58584 1.8335 8.00033 1.8335C9.41481 1.8335 10.7714 2.3954 11.7716 3.39559C12.7718 4.39579 13.3337 5.75234 13.3337 7.16683Z" stroke="black" stroke-width="1.6" stroke-linecap="round" stroke-linejoin="round"/>
<path d="M8 9.1665C9.10457 9.1665 10 8.27107 10 7.1665C10 6.06193 9.10457 5.1665 8 5.1665C6.89543 5.1665 6 6.06193 6 7.1665C6 8.27107 6.89543 9.1665 8 9.1665Z" stroke="black" stroke-width="1.6" stroke-linecap="round" stroke-linejoin="round"/>
</svg>
