<svg width="48" height="54" viewBox="0 0 48 54" fill="none" xmlns="http://www.w3.org/2000/svg">
<path d="M46.7905 42.0434C46.7858 42.0417 46.7805 42.0391 46.775 42.0368C45.6191 41.7305 44.3891 41.8042 43.3045 42.1248C42.7566 42.2807 42.238 42.5041 41.7585 42.7683C41.2859 43.0373 40.8819 43.3776 40.4509 43.682C36.6698 46.3623 33.4753 53.8724 21.9337 53.2905C21.6281 53.2708 21.3251 53.2503 21.0243 53.2192C12.8474 52.0881 7.64205 46.5692 5.50438 39.0005C5.04278 37.3647 4.80798 35.6852 4.80685 34.0094V15.6944H8.41258C8.59138 15.7233 8.72658 15.7791 8.81791 15.8669C8.94945 15.9981 9.01385 16.1917 9.01385 16.4505V30.3609C9.01385 30.6203 8.94938 30.8151 8.81791 30.9443C8.68845 31.0752 8.46238 31.139 8.13865 31.139H7.65118V31.7221H10.958V31.139H10.4722C10.2131 31.139 9.98718 31.0752 9.79105 30.9443C9.66158 30.8151 9.59825 30.6203 9.59825 30.3609V17.9098H9.79105L15.5306 31.7221H16.1124L22.1456 17.3263H22.3397V31.442C22.3397 31.7014 22.2734 31.8959 22.1456 32.0252C22.0141 32.1561 21.7875 32.2199 21.4645 32.2199H20.7833V32.803H25.9167L24.1068 37.3413C23.9753 37.7309 23.7821 37.9901 23.5229 38.1199C23.3274 38.3147 23.101 38.4119 22.8418 38.4119H22.646V38.9958H26.3442V38.4119H26.0522C25.5965 38.4119 25.2413 38.2823 24.9819 38.0223C24.7859 37.7645 24.7859 37.4078 24.9819 36.9524L26.6229 32.803H33.8479L35.4866 37.049C35.6187 37.4387 35.6187 37.7644 35.4866 38.0223C35.4231 38.2822 35.1966 38.4119 34.806 38.4119H34.4167V38.9958H43.1948H43.7839V38.2715V19.99C43.7839 18.2655 43.5417 16.5388 43.0667 14.8562C40.8591 7.04458 35.4263 1.35532 26.9758 0.220251V0.216451C26.9478 0.213518 26.9224 0.212718 26.8958 0.210451C26.7254 0.188585 26.2784 0.150118 26.2482 0.160984C25.7428 0.126384 25.2329 0.102051 24.7189 0.102051C24.665 0.102051 24.6096 0.105051 24.5572 0.105051C14.6148 0.025384 10.7487 6.94852 6.93958 9.77692C6.55598 10.0629 6.16665 10.3357 5.74278 10.5603C5.31811 10.7788 4.86591 10.9589 4.39405 11.0778C3.45785 11.3291 2.44871 11.3461 1.56611 11.087L1.56325 11.0858C1.28085 11.0023 0.973313 11.1299 0.875313 11.3699C0.777379 11.6109 0.926046 11.8724 1.21085 11.956C1.21431 11.9578 1.21985 11.9602 1.22545 11.9628C2.38065 12.2689 3.61138 12.1953 4.69731 11.8746C5.24525 11.7187 5.76005 11.4954 6.24211 11.2312C6.71571 10.9622 7.11971 10.6225 7.55145 10.3175C11.3306 7.63705 14.5261 0.126518 26.0675 0.709051C26.3721 0.728451 26.6756 0.749784 26.9759 0.780251C35.1531 1.91105 40.3599 7.42998 42.4972 14.9988C42.9591 16.6349 43.1923 18.314 43.1949 19.99V38.2715H38.016C37.949 38.2294 37.8837 38.1814 37.8225 38.12C37.6263 37.9903 37.4659 37.731 37.3346 37.3414L35.6139 32.8031H36.8352L37.4727 28.7684L37.1166 28.5613C36.8829 29.7349 36.529 30.6304 36.0572 31.2517C35.8092 31.5494 35.5495 31.7741 35.2797 31.9285L31.5009 21.9731H30.23L26.1639 32.1829H24.8542C24.6649 32.1829 24.5008 32.1133 24.3585 31.9757C24.2645 31.8384 24.2184 31.6314 24.2184 31.355V14.1434C24.2184 13.8685 24.2644 13.6621 24.3585 13.5233C24.5008 13.3858 24.6649 13.3164 24.8542 13.3164H25.3483V13.1744H25.3561V12.5908H24.8542H22.3396H21.0326V13.3164H22.3396L22.3365 15.2824L16.4044 29.2905H16.2121L10.2786 15.089H7.55418V15.0899H4.80685V15.089H4.21758V34.0094C4.21758 35.734 4.45971 37.4608 4.93445 39.143C7.14105 46.9555 12.5746 52.6443 21.0243 53.7794V53.7832C21.0516 53.7862 21.0791 53.7874 21.1048 53.7891C21.2752 53.8114 21.7218 53.8492 21.7523 53.8384C22.2577 53.8732 22.7674 53.8976 23.28 53.8976C23.3354 53.8976 23.3898 53.8942 23.4431 53.8942C33.3854 53.974 37.2515 47.0505 41.0611 44.2225C41.4457 43.9364 41.8325 43.6639 42.2573 43.4384C42.6837 43.2207 43.1346 43.0403 43.6086 42.9218C44.5436 42.6704 45.5527 42.6533 46.4354 42.9126V42.9138C46.7193 42.9971 47.0285 42.8694 47.1249 42.6291C47.2238 42.3894 47.0744 42.1268 46.7905 42.0434ZM30.2347 23.6262H30.3324L33.6361 32.183H26.8323L30.2347 23.6262Z" fill="url(#paint0_linear_249_7857)"/>
<path d="M44.2489 44.1346C44.2371 44.1321 44.2234 44.1321 44.2101 44.1309H44.2062C42.3863 44.0634 40.6599 44.8702 39.7743 46.1193C39.7339 46.1749 39.7555 46.2484 39.8214 46.2818C39.8829 46.3154 39.9624 46.3026 40.0038 46.255C40.9718 45.1606 42.6385 44.6049 44.1481 44.7976C44.3634 44.8255 44.5598 44.6987 44.5873 44.5154C44.6179 44.3336 44.466 44.1611 44.2489 44.1346Z" fill="url(#paint1_linear_249_7857)"/>
<path d="M3.75151 9.86541C3.76271 9.86761 3.77611 9.86761 3.79037 9.86908H3.79511C5.61464 9.93608 7.33951 9.12948 8.22751 7.88041C8.26644 7.82535 8.24451 7.75161 8.17971 7.71795C8.11731 7.68461 8.03611 7.69715 7.99497 7.74468C7.02791 8.83908 5.36164 9.39541 3.85364 9.20248C3.63677 9.17448 3.43964 9.30108 3.41217 9.48435C3.38364 9.66635 3.53344 9.83861 3.75151 9.86541Z" fill="url(#paint2_linear_249_7857)"/>
<defs>
<linearGradient id="paint0_linear_249_7857" x1="0.844999" y1="26.9999" x2="47.1553" y2="26.9999" gradientUnits="userSpaceOnUse">
<stop stop-color="#AE782B"/>
<stop offset="0.3405" stop-color="#CB9B44"/>
<stop offset="0.6558" stop-color="#E6BC61"/>
<stop offset="0.829" stop-color="#F3CB6E"/>
<stop offset="0.9471" stop-color="#F9D26F"/>
<stop offset="1" stop-color="#FFD86F"/>
</linearGradient>
<linearGradient id="paint1_linear_249_7857" x1="39.7539" y1="45.2138" x2="44.5912" y2="45.2138" gradientUnits="userSpaceOnUse">
<stop stop-color="#AE782B"/>
<stop offset="0.3405" stop-color="#CB9B44"/>
<stop offset="0.6558" stop-color="#E6BC61"/>
<stop offset="0.829" stop-color="#F3CB6E"/>
<stop offset="0.9471" stop-color="#F9D26F"/>
<stop offset="1" stop-color="#FFD86F"/>
</linearGradient>
<linearGradient id="paint2_linear_249_7857" x1="3.40867" y1="8.78609" x2="8.24681" y2="8.78609" gradientUnits="userSpaceOnUse">
<stop stop-color="#AE782B"/>
<stop offset="0.3405" stop-color="#CB9B44"/>
<stop offset="0.6558" stop-color="#E6BC61"/>
<stop offset="0.829" stop-color="#F3CB6E"/>
<stop offset="0.9471" stop-color="#F9D26F"/>
<stop offset="1" stop-color="#FFD86F"/>
</linearGradient>
</defs>
</svg>
