<svg width="250" height="250" viewBox="0 0 250 250" fill="none" xmlns="http://www.w3.org/2000/svg">
<path d="M37.9253 37.33C33.4994 39.1481 29.9753 42.6475 28.126 47.0604C26.2766 51.4734 26.253 56.4396 28.0603 60.87L39.2653 88.22L44.2653 86.165L33.0653 58.81C31.7976 55.7136 31.8118 52.2404 33.1049 49.1545C34.3979 46.0686 36.8639 43.6227 39.9603 42.355C43.0567 41.0872 46.5299 41.1015 49.6158 42.3945C52.7017 43.6876 55.1476 46.1536 56.4153 49.25L61.4403 47.19C59.6232 42.7694 56.1278 39.2494 51.7201 37.4012C47.3124 35.553 42.3519 35.5274 37.9253 37.33Z" fill="#A2BFBD"/>
<g opacity="0.3">
<path d="M37.9253 37.33C33.4994 39.1481 29.9753 42.6475 28.126 47.0604C26.2766 51.4734 26.253 56.4396 28.0603 60.87L39.2653 88.22L44.2653 86.165L33.0653 58.81C31.7976 55.7136 31.8118 52.2404 33.1049 49.1545C34.3979 46.0686 36.8639 43.6227 39.9603 42.355C43.0567 41.0872 46.5299 41.1015 49.6158 42.3945C52.7017 43.6876 55.1476 46.1536 56.4153 49.25L61.4403 47.19C59.6232 42.7694 56.1278 39.2494 51.7201 37.4012C47.3124 35.553 42.3519 35.5274 37.9253 37.33Z" fill="black"/>
</g>
<path d="M70.8077 61.0948L31.1678 77.328C29.6831 77.9361 28.9724 79.6326 29.5804 81.1173L39.2063 104.623C39.8143 106.107 41.5108 106.818 42.9955 106.21L82.6354 89.9768C84.1201 89.3688 84.8308 87.6723 84.2228 86.1876L74.5969 62.6822C73.9889 61.1975 72.2924 60.4868 70.8077 61.0948Z" fill="#A2BFBD"/>
<g opacity="0.5">
<path d="M59.115 78.3499C58.8308 77.6483 58.3564 77.04 57.7452 76.5934C57.134 76.1469 56.4102 75.8799 55.6554 75.8225C54.9007 75.7651 54.1448 75.9196 53.4731 76.2686C52.8014 76.6176 52.2405 77.1472 51.8535 77.7978C51.4666 78.4484 51.2689 79.1941 51.2829 79.9509C51.2969 80.7077 51.5219 81.4456 51.9327 82.0815C52.3434 82.7173 52.9235 83.2259 53.6077 83.5498C54.2918 83.8737 55.0528 84.0002 55.805 83.9149L58.105 89.5399L60.16 88.6999L57.855 83.0749C58.5512 82.5323 59.0511 81.777 59.2786 80.9241C59.5061 80.0711 59.4486 79.1672 59.115 78.3499Z" fill="black"/>
</g>
<path d="M41.5803 103.59C41.4753 103.635 39.4203 98.85 36.9903 92.91C34.5603 86.97 32.6653 82.12 32.7703 82.075C32.8753 82.03 34.9303 86.815 37.3603 92.76C39.7903 98.705 41.6803 103.55 41.5803 103.59Z" fill="#FAFAFA"/>
<path d="M54.3801 85.9251C54.1972 85.9377 54.0136 85.9139 53.8401 85.8551C53.3548 85.726 52.8914 85.5254 52.4651 85.2601C51.7414 84.8335 51.1212 84.252 50.649 83.5574C50.1767 82.8627 49.8641 82.0721 49.7336 81.2423C49.6031 80.4125 49.658 79.5641 49.8942 78.758C50.1305 77.9519 50.5423 77.2082 51.1001 76.5801C51.4196 76.1891 51.7993 75.8516 52.2251 75.5801C52.5251 75.3951 52.7251 75.3251 52.7251 75.3451C52.2236 75.7738 51.7555 76.2401 51.3251 76.7401C50.8296 77.3533 50.4681 78.0636 50.2641 78.8251C50.06 79.5866 50.0179 80.3824 50.1404 81.1612C50.2629 81.94 50.5473 82.6844 50.9753 83.3465C51.4032 84.0086 51.9653 84.5736 52.6251 85.0051C53.1861 85.3554 53.7728 85.6629 54.3801 85.9251Z" fill="#FAFAFA"/>
<path d="M22.4701 90.855L22.7151 90.145L23.1801 90.735C23.5541 91.1998 24.054 91.5469 24.6201 91.735L25.3301 91.98L24.7401 92.445C24.278 92.8215 23.9314 93.3206 23.7401 93.885L23.5001 94.61L23.0001 94.025C22.6229 93.5616 22.1217 93.2148 21.5551 93.025L20.8501 92.78L21.4351 92.315C21.9132 91.9379 22.2725 91.431 22.4701 90.855Z" fill="#A2BFBD"/>
<path d="M46.2 62.96L46.34 62.55L46.61 62.89C46.8258 63.1696 47.1174 63.3813 47.45 63.5L47.86 63.64L47.52 63.9151C47.2455 64.1304 47.039 64.4203 46.925 64.75L46.785 65.1601L46.5 64.8001C46.2858 64.5255 45.9953 64.3203 45.665 64.21L45.25 64.0651L45.595 63.795C45.8721 63.5801 46.082 63.2904 46.2 62.96Z" fill="#A2BFBD"/>
<path d="M17.6651 66.435L18.0751 65.24L18.8601 66.24C19.4854 67.031 20.3257 67.6247 21.2801 67.95L22.4701 68.36L21.4701 69.145C20.6791 69.7714 20.084 70.6112 19.7551 71.565L19.3451 72.755L18.5651 71.755C17.94 70.9626 17.0998 70.3672 16.1451 70.04L14.9551 69.63L15.9551 68.85C16.7432 68.2241 17.3364 67.3863 17.6651 66.435Z" fill="#A2BFBD"/>
<path d="M155.53 239.95L81.7248 239.905C77.4618 239.902 73.3744 238.207 70.361 235.192C67.3475 232.177 65.6548 228.088 65.6548 223.825L65.6898 38.7901C65.6904 36.678 66.1072 34.5868 66.9162 32.6358C67.7252 30.6848 68.9107 28.9123 70.4048 27.4195C71.899 25.9267 73.6726 24.743 75.6243 23.9358C77.5761 23.1286 79.6677 22.7138 81.7798 22.7151L155.585 22.7551C159.848 22.7577 163.935 24.4531 166.949 27.4683C169.962 30.4836 171.655 34.5721 171.655 38.8351L171.62 223.875C171.619 225.987 171.202 228.078 170.393 230.029C169.584 231.98 168.399 233.753 166.905 235.246C165.411 236.738 163.637 237.922 161.685 238.729C159.734 239.537 157.642 239.951 155.53 239.95Z" fill="#263238"/>
<path d="M155.5 29.3H141.2C140.733 29.3098 140.273 29.4114 139.846 29.5992C139.418 29.787 139.032 30.0572 138.71 30.3944C138.387 30.7315 138.134 31.129 137.965 31.5641C137.796 31.9992 137.714 32.4634 137.725 32.93V35.5C137.745 36.4421 137.39 37.3536 136.739 38.0342C136.087 38.7149 135.192 39.109 134.25 39.13H106.36C105.891 39.1222 105.428 39.0219 104.999 38.8348C104.569 38.6477 104.18 38.3775 103.855 38.0397C103.529 37.702 103.274 37.3033 103.103 36.8666C102.933 36.4299 102.85 35.9638 102.86 35.495V32.905C102.871 32.4381 102.789 31.9737 102.62 31.5384C102.451 31.103 102.198 30.7051 101.876 30.3676C101.553 30.03 101.167 29.7593 100.739 29.571C100.312 29.3827 99.8518 29.2804 99.3849 29.27H81.8499C78.8674 29.2687 76.0062 30.4501 73.8935 32.5553C71.7808 34.6605 70.5892 37.5176 70.5799 40.5L70.5449 221.11C70.5449 224.096 71.7306 226.959 73.8411 229.07C75.9517 231.182 78.8145 232.369 81.7999 232.37L155.46 232.415C156.939 232.416 158.404 232.126 159.771 231.561C161.138 230.995 162.38 230.166 163.427 229.12C164.473 228.075 165.303 226.833 165.869 225.466C166.435 224.099 166.726 222.634 166.725 221.155L166.76 40.55C166.757 37.5654 165.57 34.704 163.458 32.5945C161.347 30.485 158.485 29.3 155.5 29.3Z" fill="white"/>
<path d="M111.815 218.625C111.818 218.905 111.738 219.179 111.585 219.414C111.432 219.648 111.213 219.832 110.955 219.942C110.698 220.051 110.414 220.082 110.139 220.031C109.863 219.979 109.61 219.847 109.41 219.651C109.21 219.455 109.073 219.205 109.015 218.931C108.958 218.657 108.983 218.372 109.087 218.112C109.191 217.853 109.37 217.63 109.601 217.472C109.832 217.314 110.105 217.228 110.385 217.225C110.76 217.222 111.12 217.368 111.388 217.63C111.656 217.893 111.81 218.25 111.815 218.625Z" fill="#263238"/>
<path d="M119.735 218.56C119.738 218.84 119.657 219.115 119.504 219.349C119.351 219.584 119.132 219.767 118.874 219.877C118.616 219.987 118.332 220.017 118.057 219.965C117.781 219.913 117.528 219.781 117.328 219.584C117.128 219.388 116.991 219.137 116.934 218.863C116.877 218.589 116.903 218.304 117.008 218.044C117.113 217.784 117.293 217.562 117.525 217.404C117.756 217.247 118.03 217.162 118.31 217.16C118.684 217.157 119.044 217.303 119.311 217.566C119.579 217.828 119.731 218.186 119.735 218.56Z" fill="#263238"/>
<path d="M127.66 218.5C127.663 218.78 127.583 219.055 127.43 219.289C127.276 219.524 127.057 219.707 126.799 219.817C126.542 219.927 126.257 219.957 125.982 219.905C125.707 219.853 125.453 219.721 125.253 219.524C125.054 219.328 124.917 219.077 124.86 218.803C124.803 218.529 124.828 218.244 124.934 217.984C125.039 217.724 125.218 217.502 125.45 217.345C125.682 217.187 125.955 217.102 126.235 217.1C126.609 217.097 126.97 217.243 127.237 217.506C127.504 217.768 127.656 218.126 127.66 218.5Z" fill="#263238"/>
<path d="M155.94 47.54C155.94 47.58 154.075 47.63 151.78 47.65C149.485 47.67 147.625 47.65 147.625 47.605C147.625 47.56 149.5 47.5 151.78 47.5C154.06 47.5 155.935 47.5 155.94 47.54Z" fill="#263238"/>
<path d="M155.955 49.6651C155.955 49.7101 154.095 49.7601 151.8 49.7801C149.505 49.8001 147.64 49.7801 147.64 49.7351C147.64 49.6901 149.5 49.6401 151.8 49.6201C154.1 49.6001 155.955 49.6201 155.955 49.6651Z" fill="#263238"/>
<path d="M156 51.79C156 51.835 154.135 51.885 151.84 51.905C149.545 51.925 147.685 51.905 147.685 51.86C147.685 51.815 149.545 51.77 151.84 51.75C154.135 51.73 155.97 51.75 156 51.79Z" fill="#263238"/>
<path d="M80.3247 54.2201H80.4947H80.9947L82.7747 54.1801L82.7297 54.2251C82.7297 53.8351 82.7297 53.4051 82.7297 52.9401C82.7173 52.6936 82.7173 52.4466 82.7297 52.2001C82.7559 52.059 82.827 51.9302 82.9325 51.8329C83.0379 51.7355 83.172 51.6749 83.3147 51.6601C83.5997 51.6601 83.8547 51.6601 84.1647 51.6601C84.3259 51.6842 84.4729 51.7658 84.5786 51.8899C84.6843 52.014 84.7415 52.1721 84.7397 52.3351C84.7397 52.9351 84.7397 53.5651 84.7397 54.2151L84.6647 54.1401H86.9047L86.8297 54.2151C86.8297 53.3151 86.8297 52.3801 86.8297 51.4251C86.8297 51.1901 86.8297 50.9251 86.8297 50.7151C86.8258 50.6122 86.7947 50.5121 86.7397 50.4251C86.6698 50.3373 86.5929 50.2554 86.5097 50.1801C86.1797 49.8551 85.8547 49.5301 85.5097 49.2151L84.5647 48.2851C84.4147 48.1301 84.2597 47.9801 84.1097 47.8301C83.9597 47.6801 83.8297 47.5201 83.6397 47.4851C83.5541 47.4643 83.465 47.4625 83.3787 47.4798C83.2923 47.4971 83.2107 47.533 83.1397 47.5851C83.0047 47.7001 82.8597 47.8601 82.7247 47.9951L81.9197 48.8051C81.4197 49.3051 80.8897 49.8051 80.5047 50.2651C80.3935 50.5302 80.3555 50.8203 80.3947 51.1051C80.3947 51.3851 80.3947 51.6451 80.3947 51.8951C80.3947 52.3951 80.3947 52.8051 80.3947 53.1651C80.3947 53.5251 80.3947 53.7651 80.3947 53.9801C80.3947 54.1951 80.3947 54.2701 80.3947 54.2701C80.3947 54.2701 80.3947 54.1801 80.3947 54.0001C80.3947 53.8201 80.3947 53.5001 80.3947 53.2001C80.3947 52.9001 80.3947 52.4101 80.3697 51.9201C80.3697 51.6651 80.3697 51.4201 80.3697 51.1151C80.3697 50.9701 80.3697 50.8251 80.3697 50.6751C80.3691 50.5117 80.4123 50.3511 80.4947 50.2101C80.9097 49.7101 81.4047 49.2551 81.9147 48.7101L82.7097 47.8951C82.8547 47.7551 82.9747 47.6101 83.1397 47.4651C83.2309 47.397 83.3362 47.3504 83.4479 47.3287C83.5596 47.3071 83.6747 47.311 83.7847 47.3401C83.9933 47.4149 84.1769 47.5465 84.3147 47.7201L84.7747 48.1701L85.7247 49.1001L86.7247 50.0651C86.8167 50.1467 86.9004 50.2371 86.9747 50.3351C87.0448 50.4462 87.0844 50.5738 87.0897 50.7051C87.0897 50.9451 87.0897 51.2051 87.0897 51.4201C87.0897 52.3751 87.0897 53.3101 87.0897 54.2101V54.2851H87.0097H84.7697H84.6997V54.2101C84.6997 53.5601 84.6997 52.9351 84.6997 52.3351C84.7017 52.2029 84.6564 52.0745 84.5721 51.9727C84.4878 51.871 84.3699 51.8027 84.2397 51.7801C83.9797 51.7801 83.6747 51.7801 83.4247 51.7801C83.305 51.7894 83.1915 51.8374 83.1014 51.9167C83.0112 51.9961 82.9492 52.1025 82.9247 52.2201C82.9247 52.4501 82.9247 52.7201 82.9247 52.9351C82.9247 53.4001 82.9247 53.8301 82.9247 54.2251V54.2701H82.8797H81.0747H80.4997C80.4397 54.2599 80.381 54.2432 80.3247 54.2201Z" fill="#263238"/>
<path d="M99.235 97.1C99.235 98.835 97.935 99.915 95.855 99.915H94.29V102.055H92.5V94.28H95.865C97.935 94.28 99.235 95.36 99.235 97.1ZM97.41 97.1C97.41 96.245 96.855 95.745 95.755 95.745H94.29V98.445H95.755C96.855 98.445 97.41 97.945 97.41 97.1Z" fill="#263238"/>
<path d="M105.62 98.6452V102.055H104V101.31C103.799 101.6 103.524 101.83 103.204 101.977C102.884 102.124 102.53 102.182 102.18 102.145C100.78 102.145 99.9448 101.37 99.9448 100.335C99.9448 99.3002 100.69 98.5452 102.51 98.5452H103.89C103.89 97.8002 103.445 97.3702 102.51 97.3702C101.892 97.3647 101.288 97.5594 100.79 97.9252L100.165 96.7152C100.934 96.2222 101.832 95.9698 102.745 95.9902C104.565 96.0002 105.62 96.8352 105.62 98.6452ZM103.89 100.17V99.5602H102.7C101.89 99.5602 101.635 99.8552 101.635 100.255C101.635 100.655 102 101 102.61 101C102.884 101.018 103.157 100.947 103.388 100.798C103.618 100.648 103.794 100.428 103.89 100.17Z" fill="#263238"/>
<path d="M106.61 101.5L107.19 100.255C107.817 100.632 108.534 100.832 109.265 100.835C110.065 100.835 110.365 100.625 110.365 100.29C110.365 99.2902 106.755 100.29 106.755 97.9252C106.755 96.7902 107.755 95.9902 109.52 95.9902C110.318 95.9745 111.108 96.1547 111.82 96.5152L111.245 97.7452C110.718 97.4506 110.124 97.2973 109.52 97.3002C108.745 97.3002 108.41 97.5452 108.41 97.8602C108.41 98.8602 112.02 97.8902 112.02 100.245C112.02 101.355 110.985 102.145 109.2 102.145C108.295 102.164 107.401 101.941 106.61 101.5Z" fill="#263238"/>
<path d="M112.5 101.5L113.075 100.255C113.704 100.631 114.422 100.831 115.155 100.835C115.955 100.835 116.255 100.625 116.255 100.29C116.255 99.2901 112.645 100.29 112.645 97.9251C112.645 96.7901 113.645 95.9901 115.41 95.9901C116.208 95.975 116.998 96.1552 117.71 96.5151L117.13 97.7451C116.605 97.4492 116.012 97.2958 115.41 97.3001C114.63 97.3001 114.3 97.5451 114.3 97.8601C114.3 98.8601 117.91 97.8901 117.91 100.245C117.91 101.355 116.875 102.145 115.09 102.145C114.185 102.164 113.291 101.942 112.5 101.5Z" fill="#263238"/>
<path d="M128.47 96.0801L126.305 102.08H124.64L123.295 98.3701L121.905 102.08H120.24L118.085 96.0801H119.72L121.13 100.125L122.595 96.0801H124.06L125.485 100.125L126.94 96.0801H128.47Z" fill="#263238"/>
<path d="M128.675 99.07C128.675 97.27 130.06 95.99 131.96 95.99C133.86 95.99 135.24 97.27 135.24 99.07C135.24 100.87 133.86 102.145 131.96 102.145C130.06 102.145 128.675 100.87 128.675 99.07ZM133.485 99.07C133.461 98.7737 133.35 98.4909 133.168 98.2562C132.986 98.0215 132.739 97.8449 132.458 97.7482C132.177 97.6515 131.873 97.6388 131.585 97.7116C131.297 97.7844 131.036 97.9396 130.835 98.1582C130.633 98.3768 130.5 98.6494 130.451 98.9426C130.402 99.2358 130.439 99.5369 130.559 99.8092C130.678 100.081 130.874 100.313 131.123 100.476C131.372 100.638 131.663 100.725 131.96 100.725C132.174 100.732 132.387 100.693 132.585 100.61C132.782 100.528 132.96 100.404 133.106 100.248C133.252 100.091 133.363 99.9046 133.43 99.7014C133.498 99.4983 133.522 99.283 133.5 99.07H133.485Z" fill="#263238"/>
<path d="M140.105 96.0001V97.6001C139.96 97.6001 139.85 97.6001 139.715 97.6001C138.76 97.6001 138.125 98.1001 138.125 99.2651V102.085H136.395V96.0851H138.05V96.8751C138.296 96.5736 138.612 96.3365 138.97 96.184C139.328 96.0316 139.717 95.9685 140.105 96.0001Z" fill="#263238"/>
<path d="M147.17 93.8152V102.055H145.5V101.37C145.268 101.632 144.98 101.839 144.657 101.973C144.333 102.107 143.984 102.166 143.635 102.145C142.84 102.113 142.088 101.775 141.537 101.201C140.986 100.628 140.679 99.8631 140.679 99.0677C140.679 98.2723 140.986 97.5078 141.537 96.9341C142.088 96.3605 142.84 96.0222 143.635 95.9902C143.967 95.9738 144.299 96.0301 144.607 96.1554C144.916 96.2806 145.193 96.4716 145.42 96.7152V93.8152H147.17ZM145.47 99.0702C145.445 98.7729 145.334 98.4892 145.151 98.254C144.967 98.0188 144.719 97.8424 144.436 97.7466C144.154 97.6507 143.85 97.6395 143.561 97.7143C143.272 97.7892 143.011 97.9469 142.811 98.1679C142.611 98.3889 142.479 98.6637 142.433 98.9585C142.387 99.2532 142.428 99.555 142.551 99.8268C142.674 100.098 142.874 100.328 143.126 100.488C143.378 100.648 143.671 100.73 143.97 100.725C144.18 100.726 144.389 100.683 144.582 100.598C144.775 100.513 144.948 100.389 145.089 100.233C145.231 100.076 145.338 99.8922 145.403 99.6919C145.469 99.4916 145.491 99.2798 145.47 99.0702Z" fill="#263238"/>
<path d="M160.5 108.5C160.5 108.57 142 108.63 119.155 108.63C96.3098 108.63 77.7998 108.57 77.7998 108.5C77.7998 108.43 96.2998 108.37 119.155 108.37C142.01 108.37 160.5 108.415 160.5 108.5Z" fill="#E0E0E0"/>
<path d="M158.575 184.615C158.575 184.69 140.075 184.745 117.225 184.745C94.375 184.745 75.875 184.69 75.875 184.615C75.875 184.54 94.375 184.485 117.225 184.485C140.075 184.485 158.575 184.545 158.575 184.615Z" fill="#E0E0E0"/>
<path d="M139.87 190.335C139.87 190.405 129.585 190.465 116.9 190.465C104.215 190.465 93.9297 190.405 93.9297 190.335C93.9297 190.265 104.21 190.205 116.9 190.205C129.59 190.205 139.87 190.26 139.87 190.335Z" fill="#E0E0E0"/>
<path d="M85.2497 130.65L86.8147 131.495L86.1097 132.675L84.5297 131.74L84.5597 133.48H83.2097V131.725L81.6247 132.675L80.9497 131.5L82.4997 130.65L80.9297 129.785L81.6197 128.61L83.2047 129.555V127.805H84.5547L84.5247 129.555L86.1047 128.61L86.8097 129.785L85.2497 130.65Z" fill="#A2BFBD"/>
<path d="M103.21 130.65L104.775 131.495L104.07 132.675L102.5 131.74V133.5H101.145V131.745L99.5647 132.695L98.9097 131.5L100.5 130.65L98.9347 129.785L99.6247 128.61L101.205 129.555V127.805H102.5L102.47 129.555L104.05 128.61L104.755 129.785L103.21 130.65Z" fill="#A2BFBD"/>
<path d="M120.69 130.65L122.255 131.495L121.55 132.675L119.97 131.74L120 133.5H118.65V131.745L117.065 132.695L116.39 131.5L117.96 130.655L116.39 129.79L117.08 128.615L118.665 129.56V127.81H120L119.97 129.56L121.55 128.615L122.255 129.79L120.69 130.65Z" fill="#A2BFBD"/>
<path d="M137.625 130.65L139.19 131.495L138.5 132.675L136.92 131.74L136.95 133.48H135.6V131.725L134.02 132.675L133.325 131.5L134.895 130.655L133.325 129.79L134.015 128.615L135.595 129.56V127.81H136.945L136.915 129.56L138.495 128.615L139.2 129.79L137.625 130.65Z" fill="#A2BFBD"/>
<path d="M154.425 130.65L156 131.5L155.295 132.68L153.715 131.745L153.74 133.485H152.39V131.73L150.81 132.68L150.13 131.5L151.695 130.655L150.13 129.79L150.82 128.615L152.4 129.56V127.81H153.75L153.725 129.56L155.305 128.615L156.01 129.79L154.425 130.65Z" fill="#A2BFBD"/>
<path d="M88.0348 141.54H80.4598C79.5227 141.539 78.6243 141.166 77.9616 140.503C77.299 139.841 76.9261 138.942 76.9248 138.005V124.555C76.9261 123.618 77.2991 122.721 77.9619 122.059C78.6247 121.397 79.5231 121.025 80.4598 121.025H88.0348C88.9715 121.025 89.8699 121.397 90.5327 122.059C91.1955 122.721 91.5685 123.618 91.5698 124.555V138C91.5698 138.938 91.1975 139.838 90.5347 140.502C89.8719 141.165 88.9728 141.539 88.0348 141.54ZM80.4598 121.275C79.5894 121.275 78.7546 121.621 78.1387 122.236C77.5228 122.851 77.1761 123.685 77.1748 124.555V138C77.1761 138.871 77.5226 139.706 78.1384 140.322C78.7542 140.937 79.589 141.284 80.4598 141.285H88.0348C88.906 141.285 89.7416 140.939 90.3577 140.323C90.9737 139.707 91.3198 138.871 91.3198 138V124.55C91.3185 123.68 90.9718 122.846 90.3559 122.231C89.74 121.616 88.9052 121.27 88.0348 121.27L80.4598 121.275Z" fill="#263238"/>
<path d="M105.63 141.54H98.055C97.5889 141.542 97.1269 141.452 96.6957 141.275C96.2645 141.098 95.8724 140.837 95.5421 140.509C95.2118 140.18 94.9497 139.789 94.7709 139.358C94.5921 138.928 94.5 138.466 94.5 138V124.55C94.5013 123.613 94.8743 122.715 95.5371 122.054C96.1999 121.392 97.0983 121.02 98.035 121.02H105.61C106.547 121.02 107.445 121.392 108.108 122.054C108.771 122.715 109.144 123.613 109.145 124.55V138C109.145 138.935 108.775 139.831 108.117 140.494C107.459 141.158 106.565 141.533 105.63 141.54ZM98.055 121.275C97.1846 121.275 96.3498 121.62 95.7339 122.235C95.118 122.85 94.7713 123.685 94.77 124.555V138C94.7713 138.871 95.1178 139.706 95.7336 140.321C96.3494 140.937 97.1842 141.284 98.055 141.285H105.63C106.501 141.285 107.337 140.939 107.953 140.323C108.569 139.707 108.915 138.871 108.915 138V124.55C108.914 123.68 108.567 122.845 107.951 122.23C107.335 121.615 106.5 121.27 105.63 121.27L98.055 121.275Z" fill="#263238"/>
<path d="M122.745 141.54H115.165C114.228 141.539 113.329 141.166 112.667 140.503C112.004 139.841 111.631 138.942 111.63 138.005V124.555C111.631 123.618 112.004 122.721 112.667 122.059C113.33 121.397 114.228 121.025 115.165 121.025H122.745C123.681 121.026 124.578 121.399 125.24 122.061C125.901 122.722 126.274 123.619 126.275 124.555V138C126.276 138.464 126.185 138.924 126.008 139.353C125.831 139.782 125.571 140.173 125.243 140.501C124.915 140.83 124.526 141.091 124.097 141.269C123.669 141.447 123.209 141.539 122.745 141.54ZM115.165 121.275C114.295 121.275 113.46 121.621 112.844 122.236C112.228 122.851 111.881 123.685 111.88 124.555V138C111.881 138.871 112.228 139.706 112.843 140.322C113.459 140.937 114.294 141.284 115.165 141.285H122.745C123.615 141.284 124.45 140.937 125.064 140.321C125.679 139.705 126.025 138.871 126.025 138V124.55C126.025 123.68 125.679 122.846 125.064 122.231C124.449 121.616 123.615 121.27 122.745 121.27L115.165 121.275Z" fill="#263238"/>
<path d="M140.05 141.54H132.47C131.532 141.539 130.634 141.166 129.971 140.503C129.309 139.841 128.936 138.942 128.935 138.005V124.555C128.936 123.618 129.309 122.721 129.972 122.059C130.635 121.397 131.533 121.025 132.47 121.025H140.05C140.985 121.026 141.882 121.399 142.544 122.061C143.206 122.722 143.578 123.619 143.58 124.555V138C143.58 138.464 143.489 138.924 143.312 139.353C143.135 139.782 142.876 140.173 142.548 140.501C142.22 140.83 141.831 141.091 141.402 141.269C140.973 141.447 140.514 141.539 140.05 141.54ZM132.47 121.275C131.599 121.275 130.764 121.621 130.148 122.236C129.533 122.851 129.186 123.685 129.185 124.555V138C129.186 138.871 129.532 139.706 130.148 140.322C130.764 140.937 131.599 141.284 132.47 141.285H140.05C140.92 141.284 141.754 140.937 142.369 140.321C142.984 139.705 143.33 138.871 143.33 138V124.55C143.33 123.68 142.984 122.846 142.369 122.231C141.754 121.616 140.919 121.27 140.05 121.27L132.47 121.275Z" fill="#263238"/>
<path d="M156.85 141.54H149.275C148.338 141.539 147.439 141.166 146.777 140.503C146.114 139.841 145.741 138.942 145.74 138.005V124.555C145.741 123.618 146.114 122.721 146.777 122.059C147.44 121.397 148.338 121.025 149.275 121.025H156.85C157.786 121.025 158.685 121.397 159.348 122.059C160.01 122.721 160.383 123.618 160.385 124.555V138C160.385 138.938 160.012 139.838 159.35 140.502C158.687 141.165 157.788 141.539 156.85 141.54ZM149.275 121.275C148.404 121.275 147.57 121.621 146.954 122.236C146.338 122.851 145.991 123.685 145.99 124.555V138C145.99 138.871 146.336 139.707 146.952 140.323C147.568 140.939 148.403 141.285 149.275 141.285H156.85C157.721 141.284 158.555 140.937 159.171 140.322C159.787 139.706 160.133 138.871 160.135 138V124.55C160.133 123.68 159.787 122.846 159.171 122.231C158.555 121.616 157.72 121.27 156.85 121.27L149.275 121.275Z" fill="#263238"/>
<path d="M156.295 157.78H82.6899C79.5723 157.78 77.0449 160.307 77.0449 163.425V167.005C77.0449 170.123 79.5723 172.65 82.6899 172.65H156.295C159.413 172.65 161.94 170.123 161.94 167.005V163.425C161.94 160.307 159.413 157.78 156.295 157.78Z" fill="#A2BFBD"/>
<path d="M108.775 162.225H111.06C112.705 162.225 113.835 163.225 113.835 164.725C113.835 166.225 112.705 167.225 111.06 167.225H108.775V162.225ZM111 166.3C111.414 166.3 111.81 166.136 112.103 165.843C112.396 165.551 112.56 165.154 112.56 164.74C112.56 164.326 112.396 163.93 112.103 163.637C111.81 163.344 111.414 163.18 111 163.18H109.935V166.3H111Z" fill="white"/>
<path d="M114.345 165.325C114.319 164.899 114.421 164.475 114.639 164.109C114.857 163.742 115.179 163.448 115.566 163.267C115.952 163.086 116.384 163.025 116.805 163.092C117.226 163.158 117.618 163.35 117.929 163.642C118.24 163.934 118.456 164.313 118.549 164.729C118.643 165.146 118.609 165.581 118.452 165.977C118.295 166.374 118.023 166.715 117.671 166.955C117.318 167.195 116.901 167.324 116.475 167.325C116.201 167.343 115.927 167.304 115.669 167.212C115.412 167.119 115.175 166.975 114.976 166.787C114.776 166.6 114.617 166.373 114.508 166.122C114.4 165.87 114.344 165.599 114.345 165.325ZM117.46 165.325C117.46 165.06 117.354 164.806 117.167 164.618C116.979 164.431 116.725 164.325 116.46 164.325C116.195 164.325 115.94 164.431 115.753 164.618C115.565 164.806 115.46 165.06 115.46 165.325C115.46 165.59 115.565 165.845 115.753 166.032C115.94 166.22 116.195 166.325 116.46 166.325C116.725 166.325 116.979 166.22 117.167 166.032C117.354 165.845 117.46 165.59 117.46 165.325Z" fill="white"/>
<path d="M123.295 165.045V167.255H122.175V165.215C122.175 164.59 121.885 164.305 121.39 164.305C120.895 164.305 120.465 164.635 120.465 165.345V167.255H119.345V163.39H120.415V163.845C120.581 163.677 120.781 163.546 121.002 163.46C121.222 163.374 121.458 163.335 121.695 163.345C122.605 163.335 123.295 163.865 123.295 165.045Z" fill="white"/>
<path d="M128.12 165.64H125.195C125.256 165.88 125.401 166.09 125.604 166.232C125.806 166.375 126.053 166.439 126.3 166.415C126.479 166.423 126.657 166.394 126.824 166.329C126.991 166.265 127.143 166.166 127.27 166.04L127.87 166.69C127.666 166.904 127.417 167.072 127.142 167.18C126.866 167.288 126.57 167.334 126.275 167.315C124.935 167.315 124.065 166.475 124.065 165.315C124.06 165.045 124.11 164.778 124.213 164.528C124.316 164.279 124.469 164.054 124.662 163.866C124.856 163.678 125.086 163.533 125.339 163.438C125.591 163.343 125.86 163.301 126.13 163.315C126.396 163.302 126.662 163.345 126.91 163.441C127.159 163.537 127.384 163.684 127.573 163.872C127.761 164.061 127.908 164.286 128.004 164.535C128.1 164.783 128.143 165.049 128.13 165.315C128.14 165.425 128.125 165.545 128.12 165.64ZM125.18 165H127.085C127.048 164.774 126.932 164.568 126.758 164.42C126.583 164.271 126.361 164.19 126.132 164.19C125.903 164.19 125.682 164.271 125.507 164.42C125.333 164.568 125.217 164.774 125.18 165Z" fill="white"/>
<path d="M118.655 86.7851C126.953 86.7851 133.68 80.0582 133.68 71.7601C133.68 63.462 126.953 56.7351 118.655 56.7351C110.357 56.7351 103.63 63.462 103.63 71.7601C103.63 80.0582 110.357 86.7851 118.655 86.7851Z" fill="#A2BFBD"/>
<path d="M116 69.0251H115.75V67.6251C115.75 66.848 116.059 66.1027 116.608 65.5532C117.158 65.0038 117.903 64.6951 118.68 64.6951C119.457 64.6951 120.202 65.0038 120.752 65.5532C121.301 66.1027 121.61 66.848 121.61 67.6251V68.7651H121.36V67.6251C121.36 66.9143 121.078 66.2326 120.575 65.73C120.072 65.2274 119.391 64.9451 118.68 64.9451C117.969 64.9451 117.288 65.2274 116.785 65.73C116.282 66.2326 116 66.9143 116 67.6251V69.0251Z" fill="white"/>
<path d="M122.38 78.8251H114.93C114.603 78.8238 114.289 78.6933 114.058 78.462C113.827 78.2306 113.696 77.9173 113.695 77.5901V70.1351C113.696 69.808 113.827 69.4946 114.058 69.2633C114.289 69.032 114.603 68.9015 114.93 68.9001H122.38C122.707 68.9015 123.02 69.032 123.252 69.2633C123.483 69.4946 123.614 69.808 123.615 70.1351V77.5901C123.614 77.9173 123.483 78.2306 123.252 78.462C123.02 78.6933 122.707 78.8238 122.38 78.8251ZM114.93 69.1501C114.665 69.1501 114.41 69.2555 114.223 69.443C114.035 69.6306 113.93 69.8849 113.93 70.1501V77.6051C113.93 77.8704 114.035 78.1247 114.223 78.3122C114.41 78.4998 114.665 78.6051 114.93 78.6051H122.38C122.645 78.6051 122.899 78.4998 123.087 78.3122C123.274 78.1247 123.38 77.8704 123.38 77.6051V70.1351C123.38 69.8699 123.274 69.6156 123.087 69.428C122.899 69.2405 122.645 69.1351 122.38 69.1351L114.93 69.1501Z" fill="white"/>
<path d="M118.69 74.1051C118.459 74.1051 118.232 74.0365 118.04 73.908C117.848 73.7794 117.698 73.5967 117.609 73.3829C117.521 73.1691 117.497 72.9338 117.543 72.7069C117.588 72.4799 117.699 72.2714 117.863 72.1078C118.026 71.9442 118.235 71.8328 118.462 71.7876C118.689 71.7425 118.924 71.7656 119.138 71.8542C119.352 71.9427 119.534 72.0927 119.663 72.2851C119.791 72.4775 119.86 72.7037 119.86 72.9351C119.86 73.2454 119.737 73.543 119.517 73.7625C119.298 73.9819 119 74.1051 118.69 74.1051ZM118.69 72.0201C118.508 72.0201 118.33 72.0742 118.178 72.1755C118.027 72.2769 117.909 72.4208 117.84 72.5892C117.77 72.7576 117.752 72.9429 117.788 73.1215C117.824 73.3001 117.912 73.464 118.041 73.5924C118.17 73.7209 118.335 73.8081 118.514 73.8431C118.692 73.878 118.878 73.8591 119.046 73.7887C119.214 73.7183 119.357 73.5996 119.457 73.4476C119.558 73.2957 119.611 73.1173 119.61 72.9351C119.612 72.8131 119.59 72.6918 119.544 72.5785C119.499 72.4651 119.432 72.3619 119.346 72.2749C119.26 72.1879 119.158 72.1187 119.046 72.0716C118.933 72.0244 118.812 72.0001 118.69 72.0001V72.0201Z" fill="white"/>
<path d="M118.78 73.9302H118.53V76.0402H118.78V73.9302Z" fill="white"/>
<path d="M223.155 229.385L213.72 207.62L202.895 214.57L214.375 234.465L220.13 231.885L223.155 229.385Z" fill="#FFBE9D"/>
<path d="M222.945 228.17L223.255 228.79C223.255 228.79 235.83 227.715 236.945 229.645L216.125 240L212.96 232.93C216.77 232.83 220.09 231.38 222.945 228.17Z" fill="#A2BFBD"/>
<g opacity="0.6">
<path d="M216.17 234.105C216 234.265 215.895 234.482 215.876 234.715C215.856 234.947 215.924 235.179 216.065 235.365C216.219 235.541 216.434 235.651 216.667 235.672C216.9 235.694 217.132 235.625 217.315 235.48C217.495 235.31 217.605 235.079 217.624 234.833C217.643 234.586 217.571 234.341 217.42 234.145C217.243 233.975 217.008 233.881 216.763 233.881C216.518 233.881 216.282 233.975 216.105 234.145" fill="white"/>
</g>
<g opacity="0.6">
<path d="M216.125 240L215.365 238.3L235.595 229C235.595 229 236.725 228.945 236.945 229.65L216.125 240Z" fill="white"/>
</g>
<path d="M223.36 228.81C223.405 228.915 222.92 229.21 222.585 229.81C222.25 230.41 222.19 230.945 222.085 230.95C221.98 230.955 221.83 230.295 222.25 229.605C222.67 228.915 223.335 228.705 223.36 228.81Z" fill="#263238"/>
<path d="M226 228.625C226.075 228.715 225.72 229.125 225.59 229.705C225.46 230.285 225.59 230.815 225.48 230.86C225.37 230.905 225.025 230.36 225.205 229.615C225.385 228.87 225.94 228.53 226 228.625Z" fill="#263238"/>
<path d="M228.535 230.62C228.45 230.69 228.035 230.25 228.035 229.565C228.035 228.88 228.385 228.42 228.47 228.485C228.555 228.55 228.41 228.985 228.43 229.555C228.45 230.125 228.63 230.56 228.535 230.62Z" fill="#263238"/>
<path d="M205.41 233.165L205.77 209.44L193.045 211.32L195.315 234.18L201.625 234.195L205.41 233.165Z" fill="#FFBE9D"/>
<path d="M205.715 231.97L205.75 232.66C205.75 232.66 217.65 236.86 217.87 239.075L194.63 239.945L194.655 232.2C198.17 233.67 201.795 233.715 205.715 231.97Z" fill="#A2BFBD"/>
<g opacity="0.6">
<path d="M197.1 234.585C196.879 234.663 196.695 234.818 196.582 235.023C196.468 235.228 196.434 235.467 196.485 235.695C196.554 235.919 196.705 236.108 196.909 236.223C197.113 236.338 197.353 236.371 197.58 236.315C197.815 236.234 198.011 236.068 198.131 235.85C198.25 235.631 198.284 235.377 198.225 235.135C198.127 234.911 197.946 234.735 197.721 234.641C197.495 234.548 197.242 234.546 197.015 234.635" fill="white"/>
</g>
<g opacity="0.6">
<path d="M194.63 239.945V238.085L216.9 237.93C216.9 237.93 217.955 238.34 217.865 239.075L194.63 239.945Z" fill="white"/>
</g>
<path d="M205.83 232.72C205.83 232.835 205.265 232.91 204.72 233.295C204.175 233.68 203.9 234.165 203.79 234.125C203.68 234.085 203.83 233.425 204.495 232.97C205.16 232.515 205.85 232.615 205.83 232.72Z" fill="#263238"/>
<path d="M208.305 233.64C208.335 233.745 207.855 233.96 207.485 234.455C207.115 234.95 207.025 235.455 206.91 235.455C206.795 235.455 206.705 234.815 207.17 234.205C207.635 233.595 208.3 233.53 208.305 233.64Z" fill="#263238"/>
<path d="M209.8 236.5C209.7 236.525 209.52 235.965 209.8 235.335C210.08 234.705 210.59 234.435 210.645 234.525C210.7 234.615 210.38 234.965 210.145 235.485C209.91 236.005 209.915 236.5 209.8 236.5Z" fill="#263238"/>
<path d="M196.255 136.445L195.78 117.765L177.6 118.72L177 120.93C176.023 124.352 175.228 127.823 174.62 131.33C173.4 139.155 173.545 146.275 176.62 154.64C179.695 163.005 184.5 178.91 184.5 178.91L202.535 228.725L223.535 221.82L196.255 136.445Z" fill="#263238"/>
<path d="M207.25 117.16L208.835 122.335C211.165 123.835 214.93 131.185 215.275 134.195C215.62 137.205 216.275 147.51 215.59 159.59C215.005 169.525 210.09 227.675 210.09 227.675L190.22 228.725L192.29 134.695L193.165 117.905L207.25 117.16Z" fill="#263238"/>
<path d="M173.2 133.05C173.421 133.144 173.653 133.213 173.89 133.255C174.526 133.397 175.173 133.484 175.825 133.515C177.994 133.632 180.157 133.187 182.104 132.224C184.051 131.26 185.717 129.811 186.94 128.015C187.312 127.478 187.635 126.91 187.905 126.315C188.016 126.103 188.102 125.878 188.16 125.645C188.11 125.62 187.735 126.58 186.78 127.905C185.537 129.635 183.89 131.033 181.982 131.979C180.074 132.925 177.963 133.389 175.835 133.33C174.952 133.281 174.073 133.188 173.2 133.05Z" fill="#455A64"/>
<path d="M206.5 123.06C206.514 123.21 206.553 123.357 206.615 123.495C206.744 123.878 206.898 124.252 207.075 124.615C208.235 127.046 210.049 129.107 212.315 130.565C212.654 130.785 213.006 130.984 213.37 131.16C213.499 131.237 213.639 131.294 213.785 131.33C213.81 131.285 213.255 130.985 212.425 130.4C210.255 128.885 208.481 126.872 207.25 124.53C206.765 123.635 206.535 123.045 206.5 123.06Z" fill="#455A64"/>
<path d="M197.135 138.94C197.135 138.94 197.185 139.065 197.27 139.325L197.635 140.47C197.955 141.47 198.42 142.97 199.015 144.875C200.205 148.715 201.925 154.255 204.05 161.1C208.36 174.78 213.835 193.835 221.175 214.46C222.015 216.93 222.848 219.368 223.675 221.775L223.715 221.905L223.59 221.945L202.59 228.84L202.475 228.88L202.435 228.765L190.36 195.265L186.925 185.67C186.53 184.56 186.23 183.7 186.02 183.115C185.92 182.828 185.845 182.608 185.795 182.455L185.72 182.23C185.72 182.23 185.755 182.3 185.81 182.45C185.865 182.6 185.95 182.82 186.06 183.1L187 185.64C187.815 187.875 189 191.14 190.5 195.215L202.66 228.665L202.51 228.59L223.51 221.68L223.425 221.845C222.605 219.438 221.771 217 220.925 214.53C213.585 193.9 208.14 174.84 203.875 161.145C201.785 154.285 200.095 148.735 198.92 144.895C198.345 142.975 197.895 141.49 197.59 140.47C197.44 139.97 197.325 139.585 197.25 139.32C197.175 139.055 197.135 138.94 197.135 138.94Z" fill="#455A64"/>
<path d="M215 84.7249C215 84.7249 214.05 79.4099 211.325 76.8649C208.6 74.3199 197.245 71.4399 197.245 71.4399C197.245 71.4399 197.38 75.3849 194.84 76.4399C192.15 77.5649 189.46 77.1849 187.34 74.9399C186.063 73.5445 185.172 71.8401 184.755 69.9949C184.755 69.9949 171.295 71.9599 169.38 75.6099C167.465 79.2599 165.46 93.1099 165.46 93.1099L177.655 95.0349L177.26 118.725L209.31 117.04L207.5 94.9349L216.29 95.7199L215 84.7249Z" fill="#455A64"/>
<path d="M180.085 95.6998C180.104 95.5237 180.104 95.346 180.085 95.1698C180.085 94.8248 180.055 94.3298 180.02 93.7148C179.955 92.4948 179.85 90.8048 179.71 88.9398C179.57 87.0748 179.435 85.3848 179.32 84.1648C179.26 83.5548 179.21 83.0598 179.17 82.7198C179.162 82.5414 179.13 82.3648 179.075 82.1948C179.049 82.3706 179.049 82.5491 179.075 82.7248C179.075 83.0698 179.105 83.5648 179.14 84.1748C179.205 85.3998 179.31 87.0898 179.45 88.9548C179.59 90.8198 179.725 92.5098 179.84 93.7298C179.895 94.3398 179.95 94.8348 179.99 95.1748C179.995 95.3536 180.027 95.5307 180.085 95.6998Z" fill="#263238"/>
<path d="M209.93 84.385C209.855 84.385 209.23 86.8 208.53 89.82C208.062 91.6333 207.685 93.469 207.4 95.32C207.958 93.5331 208.425 91.7191 208.8 89.885C209.268 88.0717 209.645 86.2361 209.93 84.385Z" fill="#263238"/>
<path d="M170.67 74.71C170.67 74.76 171.25 74.835 172.17 75.125C173.337 75.5041 174.43 76.0827 175.4 76.835C176.364 77.5959 177.191 78.5158 177.845 79.555C178.345 80.36 178.555 80.91 178.605 80.89C178.587 80.7515 178.549 80.6166 178.49 80.49C178.36 80.1326 178.201 79.7864 178.015 79.455C176.756 77.2479 174.674 75.6297 172.225 74.955C171.86 74.8507 171.487 74.7788 171.11 74.74C170.966 74.7026 170.817 74.6925 170.67 74.71Z" fill="#263238"/>
<path d="M211.58 77.9348C211.325 78.4699 211.156 79.0419 211.08 79.6298C210.92 80.1971 210.851 80.786 210.875 81.3748C211.119 80.8393 211.279 80.2692 211.35 79.6848C211.518 79.1172 211.596 78.5266 211.58 77.9348Z" fill="#263238"/>
<path d="M167.62 93.4648C167.62 93.4648 172.2 111.62 172.695 113.17C173.19 114.72 174.08 118.91 178.5 119.55C184.47 120.42 207.62 118.375 207.62 118.375L202.955 113.065L182.36 108.445L178.86 95.2449L167.62 93.4648Z" fill="#FFBE9D"/>
<path d="M203.175 109.95C203.096 110.084 203.045 110.231 203.025 110.385C202.924 110.789 202.867 111.203 202.855 111.62C202.804 113.01 203.166 114.385 203.895 115.57C204.284 116.224 204.764 116.82 205.32 117.34C205.781 117.765 206.326 118.088 206.92 118.29C207.319 118.418 207.735 118.489 208.155 118.5C208.308 118.517 208.462 118.503 208.61 118.46C208.06 118.392 207.518 118.273 206.99 118.105C206.431 117.89 205.921 117.565 205.49 117.15C204.965 116.635 204.508 116.055 204.13 115.425C203.433 114.278 203.059 112.963 203.05 111.62C203.045 110.59 203.225 109.96 203.175 109.95Z" fill="#EB996E"/>
<path d="M179.94 91.285C179.755 91.2862 179.571 91.2677 179.39 91.23L177.89 91.015C176.64 90.835 174.89 90.63 172.995 90.38C171.357 90.1808 169.729 89.8988 168.12 89.535C167.505 89.385 167.01 89.25 166.675 89.14C166.501 89.096 166.334 89.0323 166.175 88.95C166.175 88.905 166.945 89.105 168.175 89.35C169.405 89.595 171.135 89.85 173.045 90.115C174.955 90.38 176.69 90.615 177.935 90.825C178.56 90.94 179.06 91.045 179.405 91.13C179.59 91.1556 179.77 91.2078 179.94 91.285Z" fill="#A2BFBD"/>
<path d="M179 85.24C178.845 85.2683 178.687 85.2767 178.53 85.265C178.225 85.265 177.785 85.265 177.24 85.225C176.155 85.17 174.655 85.05 173.005 84.845C171.355 84.64 169.87 84.385 168.805 84.17C168.27 84.06 167.84 83.965 167.545 83.89C167.388 83.8693 167.236 83.8219 167.095 83.75C167.681 83.787 168.264 83.8655 168.84 83.985C169.91 84.15 171.395 84.375 173.035 84.58C174.675 84.785 176.17 84.935 177.255 85.035C177.841 85.0609 178.424 85.1294 179 85.24Z" fill="#A2BFBD"/>
<path d="M177.955 80.64C177.481 80.6945 177.003 80.6945 176.53 80.64C174.24 80.4832 171.976 80.0587 169.785 79.375C169.323 79.2568 168.875 79.0892 168.45 78.875C168.92 78.9446 169.383 79.0534 169.835 79.2C170.68 79.42 171.86 79.7 173.17 79.95C174.48 80.2 175.67 80.355 176.55 80.45C177.022 80.4761 177.492 80.5397 177.955 80.64Z" fill="#A2BFBD"/>
<path d="M186.5 74.085C185.978 74.297 185.44 74.4643 184.89 74.585C183.89 74.845 182.495 75.165 180.95 75.475C179.405 75.785 177.99 76.02 176.95 76.17C176.399 76.2773 175.841 76.3358 175.28 76.345C175.815 76.186 176.362 76.0657 176.915 75.985L180.875 75.215L184.83 74.4C185.377 74.2514 185.936 74.1461 186.5 74.085Z" fill="#A2BFBD"/>
<path d="M211.345 79.4998C211.148 79.4538 210.957 79.3868 210.775 79.2998L209.245 78.6698C207.96 78.1398 206.18 77.4048 204.2 76.6298C202.22 75.8548 200.415 75.1898 199.105 74.7098L197.56 74.1398C197.364 74.0811 197.176 73.9988 197 73.8948C197.201 73.9215 197.399 73.9701 197.59 74.0398C197.97 74.1448 198.505 74.3148 199.17 74.5398C200.495 74.9748 202.315 75.6148 204.3 76.3898C206.285 77.1648 208.055 77.9248 209.3 78.5048C209.935 78.7948 210.445 79.0348 210.8 79.2098C210.992 79.285 211.175 79.3824 211.345 79.4998Z" fill="#A2BFBD"/>
<path d="M209.93 84.16C209.825 84.1596 209.721 84.1479 209.62 84.125L208.73 83.985L205.48 83.415C202.735 82.915 198.94 82.27 194.72 81.76C192.61 81.515 190.595 81.34 188.755 81.23C186.915 81.12 185.255 81.095 183.87 81.12C183.175 81.12 182.545 81.15 181.99 81.165C181.435 81.18 180.965 81.2 180.575 81.23L179.68 81.275C179.575 81.2869 179.469 81.2869 179.365 81.275C179.466 81.2468 179.57 81.23 179.675 81.225L180.565 81.13C180.955 81.085 181.43 81.045 181.985 81.02C182.54 80.995 183.17 80.94 183.865 80.935C185.26 80.89 186.925 80.91 188.77 80.99C190.615 81.07 192.635 81.255 194.77 81.49C198.995 81.99 202.77 82.695 205.53 83.225C206.895 83.49 208.03 83.725 208.765 83.875L209.645 84.07C209.743 84.0879 209.839 84.1182 209.93 84.16Z" fill="#A2BFBD"/>
<path d="M197 92.33C196.772 92.3509 196.543 92.3509 196.315 92.33C195.87 92.305 195.235 92.25 194.445 92.17C192.875 92.005 190.705 91.72 188.33 91.285C185.955 90.85 183.83 90.355 182.295 89.955C181.53 89.75 180.915 89.58 180.495 89.455C180.272 89.3999 180.054 89.3246 179.845 89.23C180.074 89.2457 180.3 89.2876 180.52 89.355L182.34 89.78C183.88 90.135 186.01 90.6 188.38 91.035C190.75 91.47 192.905 91.78 194.47 91.99L196.325 92.24C196.552 92.246 196.779 92.2761 197 92.33Z" fill="#A2BFBD"/>
<path d="M207.875 92.5C206.184 92.647 204.487 92.7071 202.79 92.68C201.096 92.7373 199.401 92.7089 197.71 92.595C199.399 92.4447 201.095 92.3846 202.79 92.415C204.485 92.3519 206.183 92.3802 207.875 92.5Z" fill="#A2BFBD"/>
<path d="M193.59 99.68C193.405 99.697 193.218 99.6886 193.035 99.655C192.685 99.625 192.17 99.56 191.535 99.47C190.275 99.29 188.535 98.97 186.65 98.545C184.765 98.12 183.07 97.605 181.865 97.21C181.26 97.01 180.775 96.84 180.44 96.71C180.265 96.6561 180.098 96.5823 179.94 96.49C180.125 96.5053 180.306 96.5457 180.48 96.61L181.925 97.03C183.14 97.38 184.83 97.84 186.715 98.285C188.6 98.73 190.32 99.06 191.57 99.285L193.07 99.555C193.248 99.5752 193.422 99.6171 193.59 99.68Z" fill="#A2BFBD"/>
<path d="M205.365 100.2C204.83 100.253 204.29 100.253 203.755 100.2C202.755 100.165 201.39 100.065 199.885 99.8699C198.38 99.6749 197.025 99.4199 196.055 99.2049C195.525 99.1133 195.006 98.9692 194.505 98.7749C195.04 98.8158 195.572 98.8977 196.095 99.0199C197.07 99.1899 198.42 99.4099 199.92 99.6049C201.42 99.7999 202.78 99.9299 203.765 100.015C204.302 100.039 204.837 100.1 205.365 100.2Z" fill="#A2BFBD"/>
<path d="M202.91 106.73C202.847 106.769 202.777 106.798 202.705 106.815C202.57 106.855 202.37 106.925 202.105 106.995C201.365 107.194 200.613 107.35 199.855 107.46C197.347 107.809 194.804 107.831 192.29 107.525C189.781 107.222 187.294 106.756 184.845 106.13C183.905 105.9 183.15 105.7 182.625 105.555C182.349 105.497 182.08 105.413 181.82 105.305C182.1 105.336 182.377 105.386 182.65 105.455L184.89 105.955C187.34 106.522 189.819 106.961 192.315 107.27C194.806 107.563 197.323 107.563 199.815 107.27C200.77 107.15 201.54 107.005 202.07 106.89C202.346 106.816 202.626 106.763 202.91 106.73Z" fill="#A2BFBD"/>
<path d="M214.465 87.9649C213.627 88.1009 212.779 88.1694 211.93 88.1699C211.081 88.2601 210.224 88.24 209.38 88.1099C210.218 87.974 211.066 87.9055 211.915 87.9049C212.764 87.8147 213.621 87.8349 214.465 87.9649Z" fill="#A2BFBD"/>
<path d="M213.79 81.8748C212.865 81.9953 211.926 81.9341 211.025 81.6948C211.95 81.581 212.888 81.6421 213.79 81.8748Z" fill="#A2BFBD"/>
<path d="M192.62 100.115C192.595 100.07 193.145 99.795 193.895 99.175C194.328 98.8094 194.727 98.4043 195.085 97.965C195.959 96.8797 196.573 95.609 196.88 94.25C197.001 93.6944 197.07 93.1285 197.085 92.56C197.11 91.59 196.98 90.99 197.03 90.98C197.092 91.1109 197.133 91.251 197.15 91.395C197.189 91.5594 197.216 91.7265 197.23 91.895C197.257 92.1157 197.272 92.3377 197.275 92.56C197.287 93.1439 197.235 93.7273 197.12 94.3C196.831 95.7067 196.197 97.0194 195.275 98.12C194.899 98.5669 194.475 98.971 194.01 99.325C193.835 99.4627 193.651 99.5896 193.46 99.705C193.319 99.7972 193.172 99.8791 193.02 99.95C192.897 100.027 192.762 100.083 192.62 100.115Z" fill="#263238"/>
<g opacity="0.3">
<path d="M196.905 95.2449L194.96 98.1349C193.645 99.7795 191.806 100.925 189.75 101.38C190.651 101.696 191.619 101.769 192.558 101.593C193.496 101.417 194.371 100.997 195.096 100.375C195.821 99.7537 196.37 98.9526 196.687 98.0521C197.005 97.1516 197.08 96.1835 196.905 95.2449Z" fill="black"/>
</g>
<path d="M202.67 65.1199C204.526 65.2821 206.389 64.9035 208.035 64.0299C205.615 62.5299 204.09 59.8999 203.35 57.1549C202.61 54.4099 201.66 49.7299 201.635 46.8899L197.205 66.5749C199.54 67.1023 201.98 66.9124 204.205 66.0299C203.895 66.013 203.593 65.9214 203.326 65.763C203.059 65.6045 202.834 65.3839 202.67 65.1199Z" fill="#263238"/>
<path d="M190.03 67.4998C189.066 65.288 188.698 62.863 188.96 60.4648L180.03 57.0798C179.619 59.5089 178.642 61.8074 177.18 63.7898C176.635 64.5298 175.985 65.3898 176.24 66.2898C176.351 66.5886 176.537 66.8541 176.779 67.0614C177.021 67.2687 177.312 67.411 177.625 67.4748C178.253 67.5824 178.896 67.5824 179.525 67.4748L178.385 68.7198C182.224 67.9816 186.12 67.5734 190.03 67.4998Z" fill="#263238"/>
<path d="M190.785 38.0799C187.97 37.7899 185.59 39.0249 183.345 40.7449C181.108 42.5146 179.464 44.9255 178.635 47.6549C177.702 50.514 177.723 53.5988 178.695 56.4449C179.192 57.8556 179.969 59.151 180.981 60.2527C181.992 61.3544 183.217 62.2396 184.58 62.8549C188.32 64.4549 192.915 63.5099 195.995 60.8549C199.075 58.1999 200.66 54.0199 200.55 49.9449C200.515 47.1184 199.589 44.3749 197.905 42.1049C197.056 40.9858 195.985 40.0533 194.761 39.3652C193.536 38.6771 192.183 38.2481 190.785 38.1049" fill="#263238"/>
<path d="M183.5 48.0699C183.835 46.9799 183.6 45.7999 183.685 44.6599C183.88 42.1599 185.755 40.0249 188.005 38.9049C190.105 37.8599 192.75 37.9049 195.4 38.5549C197.24 38.9819 198.919 39.9256 200.24 41.2749C201.086 42.193 201.7 43.3004 202.029 44.5044C202.359 45.7085 202.395 46.974 202.135 48.1949L189.29 47.1949C188.221 48.3208 186.975 49.2634 185.6 49.9849C185.197 50.1969 184.745 50.3003 184.29 50.2849C184.056 50.2725 183.83 50.1915 183.642 50.0519C183.453 49.9123 183.31 49.7204 183.23 49.4999C183.08 49.0399 183.335 48.5449 183.5 48.0699Z" fill="#263238"/>
<path d="M195.89 42.0499L184.935 45.1299C184.419 45.1982 183.948 45.4574 183.613 45.8563C183.279 46.2553 183.107 46.765 183.13 47.2849L184.84 71.3199C184.957 72.9606 185.611 74.5172 186.7 75.7499L187.85 77.0449C190.47 80.0049 195.35 79.3699 196.96 75.7649C197.057 75.5598 197.128 75.343 197.17 75.1199C197.206 74.9384 197.229 74.7546 197.24 74.5699C197.353 73.3534 197.338 72.1283 197.195 70.9149C197.165 68.7699 197.14 67.8899 197.14 67.9149C197.14 67.9399 201.64 67.0399 202.43 61.1099C202.82 58.1549 202.545 53.3449 202.19 49.4099C201.875 45.8699 199.41 41.5799 195.89 42.0499Z" fill="#FFBE9D"/>
<path d="M200.085 53.1899C200.09 53.3878 200.019 53.5802 199.886 53.7266C199.752 53.873 199.567 53.962 199.37 53.9749C199.274 53.9852 199.177 53.9762 199.085 53.9484C198.993 53.9206 198.907 53.8745 198.833 53.813C198.759 53.7514 198.698 53.6756 198.653 53.5901C198.609 53.5045 198.582 53.4109 198.575 53.3149C198.567 53.1179 198.636 52.9255 198.768 52.7788C198.899 52.6321 199.083 52.5427 199.28 52.5299C199.376 52.5188 199.474 52.5272 199.567 52.5547C199.66 52.5821 199.747 52.6279 199.822 52.6895C199.897 52.751 199.959 52.8271 200.004 52.913C200.049 52.999 200.077 53.0931 200.085 53.1899Z" fill="#263238"/>
<path d="M201.215 51.9398C201.12 52.0398 200.535 51.6298 199.715 51.6548C198.895 51.6798 198.315 52.1048 198.215 52.0048C198.115 51.9048 198.26 51.7798 198.515 51.5848C198.861 51.3315 199.276 51.1918 199.705 51.1848C200.13 51.1714 200.549 51.294 200.9 51.5348C201.17 51.7198 201.26 51.8948 201.215 51.9398Z" fill="#263238"/>
<path d="M192.365 53.5948C192.372 53.7923 192.302 53.9847 192.169 54.1312C192.037 54.2778 191.852 54.3669 191.655 54.3798C191.559 54.3902 191.462 54.3812 191.369 54.3534C191.277 54.3257 191.191 54.2797 191.116 54.2182C191.041 54.1567 190.98 54.081 190.935 53.9954C190.89 53.9098 190.863 53.8161 190.855 53.7198C190.848 53.5224 190.918 53.3299 191.051 53.1834C191.183 53.0369 191.368 52.9477 191.565 52.9348C191.661 52.9245 191.758 52.9335 191.851 52.9612C191.943 52.989 192.029 53.0349 192.104 53.0964C192.178 53.1579 192.24 53.2337 192.285 53.3193C192.33 53.4049 192.357 53.4985 192.365 53.5948Z" fill="#263238"/>
<path d="M193.2 52.3049C193.11 52.4049 192.525 51.9999 191.7 52.0199C190.875 52.0399 190.3 52.4699 190.2 52.3699C190.1 52.2699 190.245 52.1499 190.505 51.9499C190.85 51.6966 191.266 51.5569 191.695 51.5499C192.119 51.5375 192.535 51.6601 192.885 51.8999C193.155 52.0849 193.245 52.2599 193.2 52.3049Z" fill="#263238"/>
<path d="M196.32 58.275C196.747 58.128 197.19 58.0356 197.64 58C197.85 58 198.045 57.925 198.075 57.785C198.086 57.5691 198.032 57.3549 197.92 57.17L197.26 55.6C196.345 53.365 195.68 51.525 195.76 51.49C195.84 51.455 196.665 53.235 197.58 55.49L198.21 57.07C198.349 57.3176 198.395 57.6065 198.34 57.885C198.313 57.9605 198.269 58.0285 198.211 58.0833C198.153 58.1381 198.082 58.1781 198.005 58.2C197.891 58.2335 197.774 58.252 197.655 58.255C197.213 58.3181 196.764 58.3248 196.32 58.275Z" fill="#263238"/>
<path d="M197.14 67.91C194.36 68.025 191.603 67.3673 189.175 66.01C189.175 66.01 191.27 70.045 197.175 69.335L197.14 67.91Z" fill="#EB996E"/>
<path d="M196.03 60.2499C195.869 60.0605 195.662 59.9153 195.43 59.8278C195.197 59.7404 194.946 59.7135 194.7 59.7499C194.522 59.7667 194.348 59.8197 194.191 59.9057C194.034 59.9917 193.896 60.1088 193.785 60.2499C193.675 60.3915 193.612 60.5641 193.605 60.7435C193.598 60.9228 193.647 61.0999 193.745 61.2499C193.881 61.3907 194.056 61.4885 194.247 61.5312C194.438 61.5739 194.637 61.5595 194.82 61.4899C195.203 61.3442 195.554 61.1231 195.85 60.8399C195.938 60.7708 196.014 60.6881 196.075 60.5949C196.105 60.5495 196.12 60.4965 196.12 60.4424C196.12 60.3882 196.105 60.3353 196.075 60.2899" fill="#EB996E"/>
<path d="M193.94 58.8999C194.07 58.8999 194.095 59.7749 194.87 60.3999C195.645 61.0249 196.585 60.8999 196.595 61.0099C196.605 61.1199 196.39 61.1849 195.99 61.2049C195.471 61.227 194.962 61.066 194.55 60.7499C194.157 60.4446 193.899 59.9979 193.83 59.5049C193.785 59.1199 193.875 58.8999 193.94 58.8999Z" fill="#263238"/>
<path d="M193.275 49.8348C193.2 50.0598 192.38 49.9748 191.43 50.1198C190.48 50.2648 189.71 50.5398 189.575 50.3448C189.515 50.2498 189.645 50.0398 189.95 49.8148C190.36 49.5447 190.827 49.3735 191.315 49.3148C191.804 49.2438 192.302 49.2901 192.77 49.4498C193.125 49.5598 193.305 49.7298 193.275 49.8348Z" fill="#263238"/>
<path d="M200.88 48.3798C200.745 48.5698 200.175 48.3798 199.5 48.3798C198.825 48.3798 198.255 48.5398 198.12 48.3498C198.06 48.2548 198.145 48.0698 198.39 47.8848C198.719 47.6645 199.106 47.5469 199.503 47.5469C199.899 47.5469 200.286 47.6645 200.615 47.8848C200.86 48.0998 200.945 48.2898 200.88 48.3798Z" fill="#263238"/>
<path d="M181.335 46.4998C182.265 43.0398 186.99 38.1048 190.57 38.1898L196.425 41.3498C196.284 42.3302 195.88 43.2543 195.257 44.0244C194.634 44.7944 193.814 45.3819 192.885 45.7248C191.885 46.0798 190.685 46.2248 190.125 47.1098C189.565 47.9948 189.97 49.2948 189.44 50.2348C188.71 51.5348 186.55 51.5748 186.02 52.9698C185.785 53.5748 185.955 54.2848 185.71 54.8898C185.39 55.6948 183.435 56.7898 182.595 56.5648C181.755 56.3398 181.69 54.9298 181.385 54.2048C181.006 53.3869 180.921 52.4631 181.145 51.5898C181.43 49.8998 180.89 48.1398 181.335 46.4998Z" fill="#263238"/>
<path d="M185.07 57.1399C185.07 56.6999 184.52 55.6749 184.07 55.6399C182.905 55.4899 180.82 55.6399 180.875 58.5849C180.96 62.6149 184.985 61.7049 184.99 61.5849C184.995 61.4649 185.11 58.6599 185.07 57.1399Z" fill="#FFBE9D"/>
<path d="M183.74 60.0649C183.74 60.0649 183.67 60.1149 183.555 60.1749C183.386 60.2425 183.198 60.2425 183.03 60.1749C182.6 60.0299 182.23 59.3599 182.195 58.6349C182.177 58.2926 182.237 57.9507 182.37 57.6349C182.402 57.5096 182.465 57.3941 182.552 57.2983C182.639 57.2025 182.748 57.1293 182.87 57.0849C182.95 57.061 183.037 57.0665 183.114 57.1004C183.191 57.1343 183.253 57.1943 183.29 57.2699C183.345 57.3799 183.325 57.4599 183.345 57.4699C183.365 57.4799 183.43 57.3999 183.395 57.2349C183.369 57.1356 183.311 57.0477 183.23 56.9849C183.175 56.943 183.112 56.9129 183.045 56.8965C182.978 56.8802 182.908 56.8779 182.84 56.8899C182.676 56.9273 182.524 57.0056 182.398 57.1175C182.272 57.2294 182.176 57.3712 182.12 57.5299C181.955 57.881 181.879 58.2675 181.9 58.6549C181.94 59.4699 182.37 60.2199 182.955 60.3749C183.064 60.405 183.178 60.4099 183.289 60.3891C183.4 60.3683 183.504 60.3224 183.595 60.2549C183.735 60.1649 183.755 60.0749 183.74 60.0649Z" fill="#EB996E"/>
<path d="M180.405 45.5C180.335 44.24 178.715 43.5 177.47 43.315C176.205 43.1812 174.934 43.5117 173.895 44.245C173.275 44.64 172.655 45.185 172.56 45.915C172.465 46.645 173.215 47.46 173.885 47.155C173.56 47.2891 173.268 47.4935 173.03 47.7536C172.793 48.0136 172.616 48.3229 172.512 48.6592C172.408 48.9956 172.38 49.3508 172.429 49.6994C172.479 50.0479 172.604 50.3813 172.797 50.6757C172.991 50.97 173.246 51.2181 173.546 51.4021C173.847 51.5861 174.184 51.7016 174.534 51.7402C174.883 51.7789 175.238 51.7397 175.571 51.6256C175.904 51.5114 176.207 51.3251 176.46 51.08C176.186 52.2682 175.514 53.3268 174.555 54.08C175.604 54.1573 176.655 53.9574 177.602 53.5004C178.55 53.0434 179.361 52.3453 179.953 51.4762C180.546 50.6071 180.899 49.5975 180.979 48.5486C181.058 47.4997 180.86 46.4483 180.405 45.5Z" fill="#263238"/>
<path d="M173.39 62.7599C173.39 62.5699 173.915 62.4799 174.63 62.2599C175.543 62.0065 176.4 61.5824 177.155 61.0099C177.895 60.4162 178.514 59.6864 178.98 58.8599C179.365 58.2149 179.57 57.7499 179.76 57.7799C179.95 57.8099 180.06 58.3449 179.86 59.2049C179.562 60.3374 178.902 61.3414 177.98 62.0636C177.058 62.7859 175.926 63.1867 174.755 63.2049C173.87 63.1899 173.37 62.9349 173.39 62.7599Z" fill="#263238"/>
<path d="M178.035 52.075C177.891 51.6927 177.813 51.2885 177.805 50.88C177.664 48.8949 178.192 46.9198 179.305 45.27C179.515 44.9184 179.784 44.6056 180.1 44.345C179.329 45.4664 178.734 46.6989 178.335 48C178.029 49.3352 177.928 50.7093 178.035 52.075Z" fill="#A2BFBD"/>
<path d="M195.18 40.1999C195.655 41.8099 198.28 43.7449 199.455 44.9499C201.695 47.2399 202.16 48.0199 202.495 53.4499C203.355 51.5099 203.995 49.6199 203.77 47.5099C203.582 45.3736 202.622 43.379 201.07 41.8999C200.288 41.178 199.348 40.6481 198.326 40.3521C197.304 40.0562 196.226 40.0024 195.18 40.1949" fill="#263238"/>
<path d="M221.45 87.215C221.45 87.215 218.76 98.395 217.655 103.215C216.5 108.35 213.93 120 207.11 118.3C201.92 117.02 203.075 110.3 203.075 110.3L207.5 94.935L211.6 95.4L215.365 86.13L219.425 81.855L221.45 87.215Z" fill="#FFBE9D"/>
<path d="M204.885 110.7C204.657 109.887 204.61 109.033 204.75 108.2C204.921 107.307 205.246 106.451 205.71 105.67C206.306 104.717 206.975 103.811 207.71 102.96C208.448 102.096 209.117 101.175 209.71 100.205C210.182 99.4065 210.586 98.5703 210.92 97.7049C211.142 97.1217 211.329 96.5256 211.48 95.9199C211.547 95.7004 211.589 95.4739 211.605 95.2449C211.511 95.4534 211.434 95.6691 211.375 95.8899C211.24 96.3049 211.04 96.8899 210.735 97.6299C210.381 98.4744 209.964 99.2917 209.49 100.075C208.888 101.025 208.22 101.93 207.49 102.785C206.747 103.647 206.078 104.571 205.49 105.545C205.02 106.355 204.703 107.245 204.555 108.17C204.459 108.796 204.486 109.434 204.635 110.05C204.676 110.221 204.732 110.388 204.8 110.55C204.845 110.65 204.875 110.705 204.885 110.7Z" fill="#EB996E"/>
<path d="M215.05 87C215.05 86.8 215.15 83.545 215.215 82.695C215.267 82.1571 215.418 81.6333 215.66 81.15C215.753 80.973 215.885 80.8197 216.047 80.7018C216.208 80.5839 216.395 80.5046 216.592 80.4698C216.788 80.4351 216.991 80.4458 217.183 80.5013C217.375 80.5569 217.552 80.6556 217.7 80.79L217.775 80.855C218.161 80.0995 218.709 79.4387 219.38 78.92C220.335 78.295 221.12 77.87 221.94 78.36C222.164 78.4709 222.355 78.6387 222.493 78.8467C222.632 79.0547 222.714 79.2956 222.73 79.545C222.73 79.545 223.945 79.38 224.47 79.87C224.995 80.36 224.47 81.84 224.47 81.84C224.47 81.84 225.55 81.51 225.815 82.3C225.947 82.8463 225.865 83.4226 225.585 83.91C225.585 83.91 226.435 84.17 226.535 84.795C226.635 85.42 225.685 86.105 225.685 86.105L222.72 88.465C222.325 89.6974 221.518 90.7565 220.435 91.465C218.375 92.255 215.05 87 215.05 87Z" fill="#FFBE9D"/>
<path d="M217.31 83.4548C217.34 83.4548 217.335 83.5798 217.245 83.7298C217.133 83.9293 216.957 84.0846 216.745 84.1698C216.524 84.2438 216.285 84.2438 216.065 84.1698C215.9 84.1148 215.82 84.0348 215.835 83.9998C215.85 83.9648 216.24 84.0548 216.65 83.8948C217.06 83.7348 217.24 83.4198 217.31 83.4548Z" fill="#EB996E"/>
<path d="M219.66 80.5449C219.615 80.6049 219.33 80.4049 219.28 80.0149C219.23 79.6249 219.445 79.3599 219.505 79.4049C219.565 79.4499 219.505 79.6899 219.545 79.9799C219.585 80.2699 219.715 80.4999 219.66 80.5449Z" fill="#EB996E"/>
<path d="M224.615 81.8098C224.615 81.8098 224.405 82.1148 223.96 82.4998C223.372 82.9859 222.756 83.4367 222.115 83.8498C221.769 84.1222 221.365 84.3105 220.935 84.3998C220.75 84.4309 220.56 84.4126 220.384 84.3467C220.209 84.2809 220.054 84.1698 219.935 84.0248C219.859 83.9206 219.812 83.7985 219.798 83.6704C219.784 83.5424 219.803 83.4129 219.855 83.2948C219.935 83.1348 220.035 83.0948 220.045 83.1098C220.055 83.1248 219.99 83.1898 219.95 83.3348C219.927 83.4354 219.927 83.5399 219.95 83.6404C219.974 83.7409 220.02 83.8347 220.085 83.9148C220.192 84.022 220.325 84.1003 220.471 84.1422C220.617 84.1842 220.772 84.1885 220.92 84.1548C221.308 84.0575 221.671 83.8785 221.985 83.6298C222.73 83.1298 223.395 82.6948 223.86 82.3498C224.093 82.1458 224.346 81.965 224.615 81.8098Z" fill="#EB996E"/>
<path d="M225.565 83.8948C224.665 84.4532 223.72 84.9349 222.74 85.3348C222.364 85.5448 221.945 85.6678 221.515 85.6948C221.324 85.7043 221.135 85.6572 220.971 85.5593C220.808 85.4614 220.677 85.3171 220.595 85.1448C220.565 85.0752 220.55 85.0004 220.55 84.9248C220.55 84.8492 220.565 84.7743 220.595 84.7048C220.639 84.6024 220.714 84.5166 220.81 84.4598C220.975 84.3698 221.08 84.4198 221.075 84.4298C221.07 84.4398 220.98 84.4298 220.87 84.5448C220.802 84.6067 220.756 84.6889 220.739 84.779C220.722 84.8691 220.735 84.9623 220.775 85.0448C220.85 85.1722 220.96 85.2754 221.092 85.3419C221.224 85.4084 221.373 85.4354 221.52 85.4198C221.912 85.3791 222.291 85.2583 222.635 85.0648C223.578 84.5959 224.558 84.2046 225.565 83.8948Z" fill="#EB996E"/>
<path d="M224.125 86.5599C224.125 86.5899 223.965 86.7149 223.625 86.7949C223.432 86.8402 223.233 86.8604 223.035 86.8549C222.78 86.8599 222.528 86.8033 222.3 86.6899C222.228 86.6462 222.169 86.5833 222.131 86.5082C222.093 86.433 222.077 86.3487 222.085 86.2649C222.102 86.1304 222.157 86.0036 222.245 85.8999C222.369 85.7451 222.512 85.6058 222.67 85.4849C222.94 85.2849 223.14 85.2199 223.17 85.2499C223.2 85.2799 223.03 85.4049 222.81 85.6299C222.681 85.7577 222.564 85.8966 222.46 86.0449C222.345 86.2099 222.305 86.3799 222.46 86.4649C222.65 86.5522 222.856 86.6015 223.065 86.6099C223.246 86.6275 223.429 86.6275 223.61 86.6099C223.92 86.5799 224.11 86.5249 224.125 86.5599Z" fill="#EB996E"/>
<path d="M221.31 87.055C221.326 86.601 221.214 86.1517 220.987 85.7585C220.76 85.3652 220.426 85.0438 220.025 84.8311C219.624 84.6184 219.171 84.5229 218.718 84.5556C218.265 84.5883 217.83 84.7478 217.463 85.0159C217.097 85.284 216.813 85.6499 216.644 86.0717C216.476 86.4935 216.429 86.9542 216.511 87.4012C216.592 87.8481 216.797 88.2632 217.103 88.599C217.409 88.9348 217.803 89.1777 218.24 89.3L218.215 89.975L218.875 90.475L218.18 90.865L218.15 91.71L218.81 92.21L218.115 92.6L218.09 93.325L218.49 93.625L218.07 93.86V94.285L218.57 94.855L219.57 94.26L219.76 89.26C220.208 89.087 220.594 88.7852 220.87 88.3926C221.146 88.0001 221.299 87.5346 221.31 87.055ZM218.955 85.195C219.092 85.2 219.225 85.2456 219.337 85.3261C219.448 85.4065 219.533 85.5182 219.581 85.647C219.629 85.7758 219.638 85.9159 219.606 86.0496C219.574 86.1833 219.504 86.3047 219.403 86.3983C219.303 86.4919 219.176 86.5536 219.041 86.5756C218.905 86.5975 218.766 86.5788 218.641 86.5217C218.516 86.4646 218.411 86.3718 218.339 86.2549C218.266 86.138 218.23 86.0023 218.235 85.865C218.238 85.7737 218.26 85.6839 218.298 85.6008C218.335 85.5177 218.389 85.4429 218.456 85.3807C218.523 85.3185 218.602 85.2701 218.687 85.2382C218.773 85.2063 218.864 85.1916 218.955 85.195Z" fill="#263238"/>
<path d="M218.955 85.1949C218.955 85.1949 218.895 85.1949 218.79 85.2249C218.64 85.2606 218.507 85.345 218.41 85.4649C218.335 85.5627 218.289 85.6793 218.276 85.8017C218.263 85.9241 218.285 86.0477 218.337 86.1589C218.39 86.2701 218.473 86.3646 218.576 86.432C218.679 86.4995 218.798 86.5372 218.921 86.5412C219.044 86.5451 219.166 86.5151 219.273 86.4544C219.38 86.3937 219.468 86.3047 219.528 86.1971C219.588 86.0895 219.617 85.9676 219.612 85.8446C219.607 85.7216 219.568 85.6023 219.5 85.4999C219.413 85.373 219.286 85.2782 219.14 85.2299C219.04 85.1999 218.975 85.1999 218.975 85.1899H219C219.043 85.1843 219.087 85.1843 219.13 85.1899C219.285 85.2308 219.422 85.3245 219.515 85.4549C219.586 85.5526 219.631 85.6667 219.646 85.7865C219.661 85.9062 219.645 86.0278 219.6 86.1399C219.547 86.2729 219.455 86.3864 219.335 86.4649C219.209 86.5515 219.058 86.5954 218.905 86.5899C218.751 86.5842 218.602 86.53 218.48 86.4349C218.368 86.3438 218.285 86.2222 218.24 86.0849C218.206 85.9699 218.2 85.8483 218.224 85.7306C218.247 85.613 218.299 85.5029 218.375 85.4099C218.481 85.2874 218.626 85.2045 218.785 85.1749C218.827 85.1709 218.869 85.1709 218.91 85.1749L218.955 85.1949Z" fill="#263238"/>
<path d="M221.31 87.0548V87.1048V87.2498C221.29 87.4338 221.25 87.6149 221.19 87.7898C221.09 88.0726 220.937 88.3339 220.74 88.5598C220.471 88.8718 220.127 89.1094 219.74 89.2498C219.69 90.5448 219.63 92.2498 219.56 94.2498L218.56 94.8498L218.06 94.2798C218.06 94.1448 218.06 93.9998 218.06 93.8548L218.48 93.6198V93.6698L218.075 93.3648C218.075 93.1398 218.075 92.8648 218.1 92.6398L218.795 92.2548V92.3048L218.135 91.8048V91.4998C218.135 91.2898 218.135 91.0848 218.16 90.8798L218.855 90.4898V90.5398L218.195 90.0398C218.195 89.8098 218.195 89.5848 218.22 89.3648V89.3948C217.848 89.2881 217.505 89.0964 217.22 88.8348C217.081 88.7089 216.958 88.5662 216.855 88.4098C216.606 88.0458 216.46 87.6205 216.435 87.18C216.409 86.7395 216.504 86.3003 216.71 85.9098C216.894 85.5534 217.162 85.248 217.493 85.0208C217.823 84.7935 218.205 84.6516 218.603 84.6075C219.002 84.5635 219.405 84.6187 219.777 84.7683C220.149 84.9179 220.478 85.1572 220.735 85.4648C220.948 85.7143 221.106 86.0055 221.2 86.3198L221.23 86.4098V86.4998C221.23 86.5598 221.255 86.6098 221.26 86.6648C221.265 86.7198 221.285 86.8498 221.285 86.9198V86.9998C221.287 87.0164 221.287 87.0333 221.285 87.0498V86.8398C221.285 86.7698 221.285 86.6848 221.255 86.5848C221.248 86.5307 221.236 86.4772 221.22 86.4248V86.3348L221.19 86.2448C221.096 85.9352 220.937 85.649 220.725 85.4048C220.443 85.0756 220.079 84.8271 219.67 84.6848C219.237 84.5398 218.773 84.521 218.33 84.6307C217.887 84.7403 217.485 84.9737 217.17 85.3038C216.855 85.6338 216.641 86.0466 216.553 86.494C216.464 86.9414 216.505 87.4048 216.67 87.8298C216.732 88.0062 216.816 88.1741 216.92 88.3298C217.022 88.4827 217.143 88.6222 217.28 88.7448C217.557 89.0013 217.891 89.1881 218.255 89.2898H218.28C218.28 89.5148 218.28 89.7398 218.255 89.9648L218.92 90.4648H218.955L218.915 90.4898L218.22 90.8748V90.8498C218.22 91.0548 218.22 91.2648 218.22 91.4698V91.6948L218.88 92.1948L218.915 92.2248H218.875L218.18 92.6148C218.18 92.8648 218.18 93.1148 218.155 93.3398L218.56 93.6398L218.595 93.6698H218.555L218.135 93.9098C218.135 94.0548 218.135 94.1998 218.135 94.3298L218.635 94.8998H218.6L219.6 94.3048V94.3298C219.68 92.3298 219.745 90.6098 219.795 89.3298C220.169 89.1903 220.502 88.96 220.765 88.6598C220.959 88.4352 221.111 88.1779 221.215 87.8998C221.277 87.725 221.321 87.544 221.345 87.3598V87.2198C221.348 87.1628 221.335 87.106 221.31 87.0548Z" fill="#263238"/>
<path d="M221.06 86.92C221.077 86.4646 220.966 86.0136 220.739 85.6186C220.512 85.2236 220.178 84.9006 219.775 84.6867C219.373 84.4728 218.919 84.3765 218.464 84.409C218.01 84.4415 217.573 84.6014 217.205 84.8704C216.838 85.1394 216.553 85.5065 216.384 85.9298C216.216 86.3531 216.17 86.8154 216.251 87.2637C216.333 87.712 216.54 88.1281 216.847 88.4644C217.155 88.8006 217.551 89.0435 217.99 89.165L217.965 89.835L218.625 90.335L217.93 90.72L217.9 91.565L218.56 92.065L217.865 92.45L217.835 93.175L218.24 93.48L217.815 93.715V94.135L218.315 94.705L219.315 94.11L219.505 89.11C219.952 88.9393 220.338 88.6403 220.614 88.2505C220.891 87.8608 221.046 87.3978 221.06 86.92ZM218.705 85.06C218.796 85.0632 218.886 85.0844 218.969 85.1224C219.052 85.1603 219.127 85.2142 219.189 85.2811C219.252 85.348 219.3 85.4265 219.332 85.5121C219.364 85.5977 219.379 85.6887 219.375 85.78C219.372 85.8713 219.35 85.9609 219.312 86.0439C219.273 86.1268 219.219 86.2014 219.152 86.2634C219.085 86.3254 219.006 86.3735 218.921 86.4051C218.835 86.4367 218.744 86.4511 218.653 86.4475C218.561 86.4439 218.472 86.4223 218.389 86.3841C218.306 86.3458 218.231 86.2916 218.169 86.2245C218.107 86.1574 218.059 86.0788 218.028 85.9931C217.996 85.9074 217.982 85.8163 217.985 85.725C217.993 85.5415 218.073 85.3686 218.208 85.244C218.343 85.1194 218.522 85.0532 218.705 85.06Z" fill="#A2BFBD"/>
<path d="M218.705 85.0599C218.649 85.0571 218.592 85.0571 218.535 85.0599C218.387 85.0959 218.255 85.1804 218.16 85.2999C218.089 85.3868 218.042 85.49 218.022 85.6002C218.002 85.7103 218.01 85.8237 218.045 85.9299C218.088 86.0602 218.169 86.1744 218.278 86.2575C218.387 86.3405 218.518 86.3885 218.655 86.3949C218.791 86.397 218.924 86.3586 219.038 86.2847C219.152 86.2109 219.242 86.1048 219.295 85.9799C219.331 85.893 219.349 85.7995 219.347 85.7053C219.345 85.6112 219.323 85.5185 219.283 85.4333C219.243 85.3481 219.186 85.2721 219.115 85.2104C219.043 85.1487 218.96 85.1025 218.87 85.0749C218.816 85.0588 218.761 85.0455 218.705 85.0349H218.75C218.792 85.0297 218.834 85.0297 218.875 85.0349C219.033 85.0739 219.171 85.1679 219.265 85.2999C219.373 85.4565 219.415 85.6497 219.382 85.8371C219.348 86.0245 219.241 86.1909 219.085 86.2999C218.957 86.3873 218.805 86.4311 218.65 86.4249C218.497 86.4168 218.35 86.3608 218.23 86.2649C218.132 86.1982 218.052 86.1069 218 85.9999C217.97 85.9044 217.961 85.8035 217.972 85.704C217.983 85.6045 218.016 85.5085 218.067 85.4222C218.117 85.336 218.186 85.2614 218.267 85.2033C218.349 85.1452 218.442 85.1048 218.54 85.0849C218.583 85.0777 218.627 85.0777 218.67 85.0849L218.705 85.0599Z" fill="#263238"/>
<path d="M221.06 86.92V86.97V87.11C221.04 87.2955 221 87.4783 220.94 87.655C220.836 87.9358 220.684 88.1963 220.49 88.425C220.219 88.7337 219.875 88.9707 219.49 89.115C219.445 90.41 219.385 92.115 219.315 94.115L218.315 94.71L217.815 94.14C217.815 94.01 217.815 93.865 217.815 93.72L218.235 93.48V93.53L217.835 93.23C217.835 93 217.835 92.755 217.86 92.505L218.555 92.115V92.165L217.895 91.665V91.44C217.895 91.235 217.895 91.025 217.92 90.82L218.615 90.435V90.485L217.955 89.985C217.955 89.76 217.955 89.535 217.98 89.31V89.34C217.606 89.2376 217.263 89.0453 216.98 88.78C216.84 88.654 216.716 88.5112 216.61 88.355C216.506 88.199 216.42 88.0312 216.355 87.855C216.236 87.5466 216.18 87.2173 216.191 86.8869C216.203 86.5565 216.281 86.2318 216.421 85.9323C216.561 85.6329 216.76 85.3649 217.007 85.1445C217.253 84.9241 217.542 84.7559 217.855 84.65C218.368 84.4792 218.922 84.4792 219.435 84.65C219.835 84.7576 220.201 84.9639 220.5 85.25C220.711 85.5007 220.869 85.7915 220.965 86.105L220.995 86.2V86.29C220.995 86.345 221.02 86.4 221.025 86.45C221.03 86.5 221.05 86.64 221.05 86.705V86.92C221.051 86.9017 221.051 86.8833 221.05 86.865V86.71C221.05 86.64 221.05 86.555 221.025 86.45C221 86.345 221 86.35 220.99 86.29V86.205L220.96 86.11C220.862 85.8011 220.702 85.5154 220.49 85.27C220.21 84.9396 219.846 84.6923 219.435 84.555C218.932 84.3847 218.388 84.3847 217.885 84.555C217.304 84.7595 216.822 85.1755 216.535 85.72C216.378 86.0228 216.288 86.3553 216.269 86.6957C216.25 87.0361 216.303 87.3767 216.425 87.695C216.492 87.8704 216.577 88.038 216.68 88.195C216.782 88.348 216.903 88.4875 217.04 88.61C217.318 88.8656 217.652 89.0523 218.015 89.155H218V89.18C218 89.4 218 89.625 218 89.855V89.83C218.22 89.99 218.44 90.16 218.66 90.33L218.7 90.36H218.66L217.965 90.75V90.725C217.965 90.93 217.965 91.135 217.94 91.345C217.94 91.42 217.94 91.495 217.94 91.565L218.6 92.065H218.64L218.6 92.09L217.905 92.475C217.905 92.725 217.905 92.975 217.875 93.2L218.28 93.505L218.315 93.53H218.275L217.85 93.765C217.85 93.91 217.85 94.055 217.85 94.185L218.35 94.76H218.315L219.315 94.165V94.19C219.39 92.19 219.46 90.47 219.51 89.19C219.884 89.0464 220.219 88.8149 220.485 88.515C220.677 88.2892 220.83 88.0322 220.935 87.755C220.998 87.582 221.042 87.4026 221.065 87.22V87.075C221.051 87.0519 221.043 87.0254 221.042 86.9981C221.041 86.9709 221.047 86.944 221.06 86.92Z" fill="#263238"/>
<path d="M220.77 86.9399C220.763 86.772 220.743 86.6048 220.71 86.4399C220.669 86.2398 220.596 86.0474 220.495 85.8699C220.369 85.6332 220.2 85.4227 219.995 85.2499C219.721 85.0226 219.393 84.8693 219.043 84.8045C218.693 84.7398 218.332 84.7657 217.995 84.8799C217.8 84.9396 217.617 85.029 217.45 85.1449C217.364 85.2041 217.282 85.2692 217.205 85.3399C217.128 85.4134 217.056 85.4919 216.99 85.5749C216.708 85.9263 216.546 86.3591 216.529 86.8093C216.512 87.2594 216.64 87.7032 216.895 88.0749C216.957 88.1633 217.024 88.2484 217.095 88.3299C217.167 88.4051 217.243 88.4752 217.325 88.5399C217.475 88.6669 217.643 88.7698 217.825 88.8449C218.175 88.9869 218.556 89.0335 218.93 88.9799C219.254 88.9355 219.563 88.8137 219.83 88.6249C220.052 88.4682 220.244 88.2716 220.395 88.0449C220.506 87.8731 220.592 87.6862 220.65 87.4899C220.696 87.3261 220.729 87.1589 220.75 86.9899V87.1299C220.75 87.1749 220.75 87.2299 220.75 87.2949C220.75 87.3599 220.725 87.4299 220.7 87.5149C220.645 87.7157 220.559 87.9064 220.445 88.0799C220.296 88.3125 220.104 88.5144 219.88 88.6749C219.607 88.8694 219.291 88.9963 218.96 89.0449C218.578 89.1024 218.188 89.0575 217.83 88.9149C217.636 88.8384 217.456 88.7322 217.295 88.5999C217.211 88.5323 217.131 88.4606 217.055 88.3849C216.981 88.3039 216.914 88.2169 216.855 88.1249C216.594 87.7453 216.463 87.2919 216.48 86.8317C216.497 86.3716 216.662 85.9292 216.95 85.5699C217.018 85.4836 217.091 85.4018 217.17 85.3249C217.25 85.2541 217.335 85.1889 217.425 85.1299C217.669 84.9602 217.946 84.844 218.238 84.7888C218.53 84.7337 218.831 84.7409 219.12 84.8099C219.448 84.8822 219.753 85.0333 220.01 85.2499C220.215 85.4279 220.385 85.6434 220.51 85.8849C220.607 86.0673 220.678 86.2626 220.72 86.4649C220.736 86.539 220.746 86.6143 220.75 86.6899C220.754 86.7449 220.754 86.8 220.75 86.8549V86.9899L220.77 86.9399Z" fill="#263238"/>
<path d="M219.5 85.79C219.494 85.7245 219.484 85.6594 219.47 85.595C219.432 85.4181 219.333 85.2603 219.19 85.15C219.093 85.0723 218.981 85.0176 218.86 84.99C218.722 84.9611 218.579 84.9698 218.445 85.015C218.295 85.0597 218.164 85.1507 218.07 85.275C217.967 85.4048 217.909 85.5645 217.905 85.73C217.898 85.8931 217.943 86.0541 218.033 86.1904C218.122 86.3268 218.253 86.4315 218.405 86.49C218.528 86.5389 218.661 86.5572 218.792 86.5433C218.924 86.5293 219.05 86.4836 219.16 86.41C219.308 86.307 219.417 86.1574 219.47 85.985C219.489 85.9211 219.504 85.8559 219.515 85.79C219.515 85.79 219.515 85.79 219.515 85.845C219.512 85.8957 219.503 85.946 219.49 85.995C219.441 86.1762 219.332 86.3351 219.18 86.445C219.073 86.5211 218.95 86.5708 218.82 86.59C218.664 86.6146 218.504 86.5943 218.358 86.5314C218.213 86.4686 218.089 86.3658 218 86.235C217.898 86.0886 217.845 85.9134 217.85 85.735C217.857 85.5529 217.922 85.3779 218.035 85.235C218.139 85.1042 218.28 85.0083 218.44 84.96C218.585 84.9176 218.74 84.9176 218.885 84.96C219.011 84.9899 219.129 85.048 219.23 85.13C219.38 85.2575 219.477 85.4353 219.505 85.63C219.512 85.6798 219.512 85.7302 219.505 85.78C219.5 85.775 219.5 85.79 219.5 85.79Z" fill="#263238"/>
<path d="M219 94.225C219 94.225 219 93.08 219.065 91.675C219.13 90.27 219.175 89.125 219.19 89.125C219.205 89.125 219.19 90.265 219.125 91.675C219.06 93.085 219 94.225 219 94.225Z" fill="#263238"/>
<path d="M218.915 85.2999C218.864 85.3246 218.809 85.3374 218.752 85.3374C218.696 85.3374 218.64 85.3246 218.59 85.2999V82.2249L218.915 82.2499V85.2999Z" fill="#E0E0E0"/>
<path d="M218.75 85.3498C218.693 85.3485 218.636 85.3348 218.585 85.3098V82.2148L218.935 82.2398V85.3098C218.877 85.3376 218.814 85.3513 218.75 85.3498ZM218.605 85.2898C218.651 85.312 218.701 85.3235 218.752 85.3235C218.804 85.3235 218.854 85.312 218.9 85.2898V82.2598H218.6L218.605 85.2898Z" fill="#263238"/>
<path d="M217.5 80.7148C217.772 80.9476 218.061 81.1598 218.365 81.3498C218.516 81.4481 218.643 81.58 218.735 81.7352C218.827 81.8905 218.882 82.0649 218.895 82.2449C218.869 82.4284 218.796 82.6022 218.684 82.75C218.572 82.8977 218.424 83.0147 218.255 83.0898C218.024 83.2144 217.77 83.2921 217.508 83.3186C217.247 83.345 216.983 83.3197 216.731 83.244C216.479 83.1683 216.245 83.0438 216.042 82.8775C215.838 82.7112 215.669 82.5064 215.545 82.2748" fill="#FFBE9D"/>
<path d="M215.565 82.275C215.774 82.4972 216.001 82.7012 216.245 82.885C216.516 83.0573 216.825 83.1604 217.145 83.185C217.534 83.2143 217.923 83.1292 218.265 82.94C218.429 82.8661 218.566 82.7423 218.656 82.586C218.746 82.4298 218.784 82.2492 218.765 82.07C218.665 81.7736 218.47 81.5187 218.21 81.345C217.735 81.025 217.47 80.745 217.51 80.715C217.55 80.685 217.805 80.9 218.315 81.19C218.634 81.3675 218.878 81.6555 219 82C219.052 82.2285 219.015 82.4685 218.895 82.67C218.772 82.8757 218.601 83.0476 218.395 83.17C218.006 83.3882 217.558 83.4791 217.115 83.43C216.753 83.3918 216.407 83.2571 216.115 83.04C215.65 82.665 215.54 82.28 215.565 82.275Z" fill="#EB996E"/>
<path d="M220.58 79.4399C219.999 80.1146 219.495 80.8525 219.08 81.6399C218.946 81.8812 218.869 82.1496 218.855 82.4249C218.849 82.5634 218.879 82.7009 218.944 82.8238C219.008 82.9466 219.103 83.0505 219.22 83.1249C219.327 83.1756 219.444 83.2019 219.562 83.2019C219.681 83.2019 219.798 83.1756 219.905 83.1249C220.116 83.0218 220.308 82.885 220.475 82.7199C221.162 82.0932 221.785 81.3998 222.335 80.6499C222.478 80.4756 222.59 80.2776 222.665 80.0649C222.704 79.959 222.721 79.846 222.714 79.7331C222.708 79.6203 222.677 79.5102 222.625 79.4099" fill="#FFBE9D"/>
<path d="M222.63 79.4048C222.63 79.4048 222.755 79.5048 222.77 79.7748C222.754 80.1457 222.609 80.4993 222.36 80.7748C222.057 81.2085 221.723 81.6196 221.36 82.0048C221.16 82.2248 220.94 82.4498 220.705 82.6698C220.468 82.9308 220.178 83.1387 219.855 83.2798C219.668 83.3398 219.467 83.3398 219.28 83.2798C219.09 83.2171 218.932 83.0825 218.84 82.9048C218.77 82.7475 218.733 82.5771 218.733 82.4048C218.733 82.2325 218.77 82.0621 218.84 81.9048C219.048 81.4115 219.317 80.9462 219.64 80.5198C219.909 80.1162 220.229 79.7483 220.59 79.4248C220.35 79.8425 220.085 80.245 219.795 80.6298C219.505 81.053 219.263 81.5075 219.075 81.9848C219.018 82.1096 218.989 82.2452 218.989 82.3823C218.989 82.5194 219.018 82.655 219.075 82.7798C219.144 82.8983 219.253 82.9874 219.384 83.0298C219.514 83.0723 219.655 83.0651 219.78 83.0098C220.064 82.88 220.319 82.6947 220.53 82.4648C220.765 82.2498 220.985 82.0348 221.185 81.8248C221.59 81.3998 221.93 80.9998 222.185 80.6498C222.424 80.4061 222.585 80.0959 222.645 79.7598C222.651 79.6412 222.646 79.5224 222.63 79.4048Z" fill="#EB996E"/>
<path d="M230.5 240.085C230.5 240.16 181.915 240.215 122 240.215C62.085 240.215 13.5 240.16 13.5 240.085C13.5 240.01 62.075 239.955 122 239.955C181.925 239.955 230.5 240 230.5 240.085Z" fill="#263238"/>
<path d="M41.8298 171.23C46.5848 163.95 46.4048 153.31 40.7198 146.73C38.9548 144.685 36.4898 142.91 33.7998 143.14C31.1098 143.37 28.8298 145.735 27.9998 148.37C27.1698 151.005 27.4548 153.87 27.9448 156.575C28.6348 160.385 29.7898 164.28 32.4448 167.11C35.0998 169.94 38.4448 173.085 41.8548 171.23" fill="#A2BFBD"/>
<path d="M39.705 206C40.5612 203.884 40.7293 201.552 40.1854 199.335C39.6415 197.119 38.4133 195.129 36.675 193.65C35.58 192.755 34.175 192.065 32.785 192.43C31.395 192.795 30.46 194.215 30.285 195.65C30.1748 197.105 30.4202 198.566 31 199.905C31.7 201.8 32.65 203.705 34.265 204.905C35.88 206.105 38.145 207.265 39.725 206" fill="#A2BFBD"/>
<path d="M51.185 203.525C49.875 197.07 53.275 189.95 59.115 186.91C60.93 185.97 63.16 185.41 64.99 186.325C66.82 187.24 67.76 189.545 67.61 191.635C67.46 193.725 66.46 195.635 65.35 197.42C63.8 199.92 61.895 202.325 59.245 203.575C56.595 204.825 53.05 205.78 51.185 203.525Z" fill="#A2BFBD"/>
<path d="M50.3597 186.075C48.0797 178.72 51.9447 169.805 58.3597 165.575C60.3597 164.265 62.8897 163.355 65.1247 164.205C67.3597 165.055 68.7247 167.625 68.7947 170.07C68.8647 172.515 67.9247 174.87 66.8447 177.07C65.3447 180.145 63.3997 183.18 60.4647 184.945C57.5297 186.71 52.7747 188.445 50.3397 186.065" fill="#A2BFBD"/>
<path d="M45.7849 222C45.8224 221.885 45.8459 221.766 45.8549 221.645C45.8949 221.38 45.9499 221.04 46.0099 220.62C46.0399 220.395 46.0749 220.145 46.1149 219.88C46.1549 219.615 46.2199 219.315 46.2799 219.005C46.3999 218.375 46.5249 217.66 46.7299 216.885C46.8249 216.49 46.9249 216.08 47.0249 215.655C47.1249 215.23 47.2799 214.8 47.4099 214.345C47.6549 213.435 48.0199 212.49 48.3599 211.485C49.954 207.157 52.1416 203.071 54.8599 199.345C55.5099 198.505 56.0949 197.68 56.7199 196.975C57.0249 196.61 57.3199 196.265 57.5999 195.925L58.4999 195C59.0349 194.4 59.5599 193.9 59.9999 193.455L60.6349 192.83L61.1949 192.33L61.9649 191.635C62.0579 191.558 62.1433 191.473 62.2199 191.38C62.1134 191.438 62.0144 191.508 61.9249 191.59L61.1149 192.24L60.5349 192.715L59.8799 193.325C59.4099 193.76 58.8799 194.25 58.3199 194.825L57.4399 195.74C57.1549 196.075 56.8549 196.425 56.5449 196.78C55.9049 197.485 55.3099 198.31 54.6449 199.15C53.2797 201.023 52.0372 202.982 50.9249 205.015C49.8419 207.065 48.8965 209.184 48.0949 211.36C47.7599 212.36 47.4049 213.325 47.1699 214.25C47.0399 214.705 46.9199 215.145 46.7999 215.57C46.6799 215.995 46.6099 216.415 46.5199 216.81C46.3299 217.595 46.2199 218.31 46.1149 218.95C46.0649 219.265 46.0149 219.56 45.9699 219.83C45.9249 220.1 45.9199 220.33 45.8949 220.58C45.8549 221 45.8249 221.345 45.7999 221.615C45.7734 221.741 45.7684 221.872 45.7849 222Z" fill="#263238"/>
<path d="M45.9498 223.335C45.9562 223.285 45.9562 223.235 45.9498 223.185C45.9498 223.07 45.9498 222.93 45.9198 222.76C45.8848 222.36 45.8298 221.815 45.7698 221.125C45.7348 220.77 45.6948 220.375 45.6498 219.95C45.6048 219.525 45.6098 219.045 45.5798 218.54C45.5448 217.54 45.4448 216.38 45.4848 215.11C45.4848 214.47 45.4848 213.805 45.4848 213.11C45.4848 212.415 45.5548 211.695 45.5898 210.95C45.6398 209.45 45.8448 207.87 46.0248 206.195C46.9553 198.946 49.0453 191.895 52.2148 185.31C52.9798 183.81 53.6698 182.37 54.4448 181.09C54.8248 180.445 55.1598 179.805 55.5348 179.22L56.6148 177.54C57.2798 176.45 57.9848 175.54 58.5648 174.715C58.8648 174.305 59.1298 173.92 59.3948 173.575L60.1348 172.65L61.1348 171.36L61.3948 171.02C61.4498 170.945 61.4798 170.905 61.4748 170.9C61.4698 170.895 61.4348 170.93 61.3698 171L61.0898 171.32L60.0248 172.575L59.2848 173.5C59.0148 173.84 58.7398 174.22 58.4348 174.625C57.8398 175.445 57.1198 176.35 56.4348 177.43L55.3348 179.105C54.9548 179.69 54.6098 180.33 54.2248 180.975C53.4398 182.255 52.7248 183.7 51.9648 185.2C48.7492 191.795 46.6491 198.878 45.7498 206.16C45.5748 207.84 45.3798 209.435 45.3398 210.935C45.3148 211.685 45.2548 212.41 45.2498 213.105C45.2448 213.8 45.2498 214.47 45.2498 215.105C45.2498 216.38 45.3398 217.535 45.3948 218.545C45.4298 219.045 45.4498 219.545 45.4898 219.955C45.5298 220.365 45.5898 220.775 45.6348 221.135C45.7198 221.82 45.7898 222.365 45.8398 222.765C45.8648 222.935 45.8898 223.07 45.9048 223.185C45.9131 223.237 45.9282 223.287 45.9498 223.335Z" fill="#263238"/>
<path d="M33.5601 151.93C33.5768 151.977 33.5986 152.022 33.6251 152.065C33.6801 152.165 33.7451 152.295 33.8301 152.445L34.6401 153.9C34.8151 154.215 35.0251 154.56 35.2301 154.95L35.8651 156.23L36.6001 157.7C36.8451 158.225 37.1001 158.79 37.3451 159.38C37.5901 159.97 37.8851 160.59 38.1501 161.24C38.4151 161.89 38.6501 162.585 38.9401 163.29L39.3551 164.37C39.4801 164.745 39.6101 165.12 39.7401 165.505C39.9951 166.27 40.2401 167.06 40.5351 167.865C41.5351 171.13 42.5001 174.76 43.3051 178.62C44.1101 182.48 44.6351 186.2 45.0401 189.59C45.4451 192.98 45.6451 196.055 45.7151 198.64C45.7801 199.93 45.7951 201.095 45.7951 202.14C45.7951 203.185 45.7951 204.05 45.7951 204.77C45.7951 205.49 45.7951 206.03 45.7951 206.435V206.87C45.7951 206.965 45.7951 207.015 45.7951 207.015C45.8008 206.967 45.8008 206.918 45.7951 206.87C45.7951 206.755 45.7951 206.615 45.8251 206.44C45.8251 206.03 45.8701 205.475 45.9051 204.775C45.9401 204.075 45.9601 203.165 45.9601 202.14C45.9601 201.115 45.9601 199.94 45.9251 198.64C45.8801 196.05 45.6501 192.975 45.3151 189.57C44.9801 186.165 44.3851 182.44 43.6001 178.57C42.8151 174.7 41.8251 171.07 40.8001 167.795L40.0001 165.415C39.8701 165.03 39.7401 164.65 39.6101 164.28L39.1851 163.2L38.3751 161.15C38.1051 160.495 37.8151 159.885 37.5501 159.29C37.2851 158.695 37.0501 158.135 36.7801 157.615C36.5101 157.095 36.2801 156.615 36.0251 156.15C35.7701 155.685 35.5651 155.27 35.3651 154.875C35.1651 154.48 34.9351 154.15 34.7501 153.84L33.8851 152.415C33.7951 152.265 33.7151 152.145 33.6551 152.05C33.5951 151.955 33.5651 151.925 33.5601 151.93Z" fill="#263238"/>
<path d="M35.1797 196.59C35.3213 196.9 35.4885 197.198 35.6797 197.48C36.0297 198.035 36.5047 198.86 37.0647 199.89C37.6247 200.92 38.2447 202.17 38.8697 203.585C39.4947 205 40.0847 206.585 40.6197 208.31C41.1547 210.035 41.5347 211.675 41.8397 213.195C42.1447 214.715 42.3397 216.1 42.4347 217.27C42.5297 218.44 42.6247 219.38 42.6497 220.035C42.65 220.37 42.6785 220.704 42.7347 221.035C42.7697 220.703 42.7814 220.369 42.7697 220.035C42.7697 219.375 42.7697 218.42 42.6547 217.25C42.545 215.873 42.3664 214.503 42.1197 213.145C41.8074 211.481 41.4051 209.835 40.9147 208.215C40.4088 206.601 39.8129 205.017 39.1297 203.47C38.4897 202.05 37.8497 200.8 37.2597 199.78C36.6697 198.76 36.1647 197.95 35.7597 197.415C35.5846 197.127 35.3909 196.852 35.1797 196.59Z" fill="#263238"/>
<path d="M55.1296 218.735H34.2246L36.7546 240.085H52.5246L55.1296 218.735Z" fill="#455A64"/>
<path d="M54.3647 237.78L52.5897 240.085H36.7547L34.9297 237.855L54.3647 237.78Z" fill="#263238"/>
<path d="M35.04 225C35.04 225.085 39.38 225.155 44.73 225.155C50.08 225.155 54.415 225.085 54.415 225C54.415 224.915 50.08 224.845 44.73 224.845C39.38 224.845 35.04 224.93 35.04 225Z" fill="#FAFAFA"/>
<path d="M35.04 226.435C35.04 226.52 39.38 226.59 44.73 226.59C50.08 226.59 54.415 226.52 54.415 226.435C54.415 226.35 50.08 226.28 44.73 226.28C39.38 226.28 35.04 226.35 35.04 226.435Z" fill="#FAFAFA"/>
<path d="M35.2998 227.81C35.2998 227.9 39.4848 227.97 44.6498 227.97C49.8148 227.97 53.9998 227.9 53.9998 227.81C53.9998 227.72 49.8148 227.655 44.6498 227.655C39.4848 227.655 35.2998 227.725 35.2998 227.81Z" fill="#FAFAFA"/>
<path d="M51.935 172.72C51.9273 172.788 51.9273 172.857 51.935 172.925C51.935 173.08 51.96 173.275 51.98 173.505C52.035 174.04 52.105 174.76 52.195 175.63C52.385 177.425 52.665 179.905 52.985 182.63C52.985 182.735 52.985 182.84 53.02 182.935V183.03H53.115C55.8 183.07 58.215 183.095 59.96 183.105H62.025H62.585C62.715 183.105 62.78 183.105 62.78 183.105C62.718 183.089 62.6541 183.08 62.59 183.08L62.03 183.055L59.965 182.99C58.22 182.94 55.805 182.89 53.115 182.85L53.22 182.94C53.22 182.845 53.22 182.74 53.185 182.635C52.865 179.9 52.565 177.425 52.335 175.635C52.22 174.765 52.125 174.05 52.05 173.515C52.02 173.285 51.99 173.095 51.965 172.94C51.9691 172.865 51.9589 172.791 51.935 172.72Z" fill="#263238"/>
<path d="M56.6897 166.335C56.6783 166.404 56.6783 166.475 56.6897 166.545C56.6897 166.705 56.6897 166.905 56.6897 167.145C56.6897 167.695 56.6897 168.44 56.6897 169.35C56.7197 171.21 56.7697 173.78 56.8397 176.615C56.8397 176.73 56.8397 176.845 56.8397 176.95V177.06H56.9497C59.2884 176.879 61.6352 176.825 63.9797 176.9C64.8747 176.9 65.5997 176.965 66.0997 176.99H66.6747H66.8747C66.8747 176.99 66.8097 176.99 66.6797 176.95L66.1047 176.885C65.6047 176.835 64.8847 176.775 63.9847 176.725C61.635 176.609 59.2804 176.641 56.9347 176.82L57.0497 176.925C57.0497 176.82 57.0497 176.705 57.0497 176.59C56.9797 173.75 56.9047 171.185 56.8397 169.325C56.8047 168.42 56.7747 167.675 56.7547 167.125C56.7547 166.885 56.7547 166.685 56.7197 166.525C56.7155 166.461 56.7055 166.397 56.6897 166.335Z" fill="#263238"/>
<path d="M62.2496 164.16C62.1918 164.362 62.1483 164.567 62.1196 164.775C62.0396 165.205 61.9396 165.775 61.8096 166.455C61.5396 167.875 61.1146 169.83 60.5196 171.955L60.4546 172.18L60.6696 172.08L60.9196 171.955C62.6809 171.121 64.565 170.575 66.4996 170.34C67.2446 170.25 67.8496 170.215 68.2646 170.2C68.4819 170.209 68.6996 170.198 68.9146 170.165C68.86 170.156 68.8042 170.156 68.7496 170.165C68.6396 170.165 68.4746 170.14 68.2496 170.14C67.6553 170.129 67.0608 170.154 66.4696 170.215C64.5101 170.411 62.5998 170.947 60.8246 171.8L60.5696 171.925L60.7196 172.045C61.228 170.219 61.6402 168.369 61.9546 166.5C62.0746 165.785 62.1546 165.205 62.1996 164.805C62.2391 164.592 62.2558 164.376 62.2496 164.16Z" fill="#263238"/>
<path d="M32.73 203.085C32.73 203.115 33.34 203.055 34.315 203.015C35.583 202.966 36.8529 203.008 38.115 203.14C38.415 203.17 38.71 203.21 38.99 203.25H39.09V203.155C39.32 201.89 39.505 200.775 39.635 199.975C39.7203 199.549 39.7754 199.118 39.8 198.685C39.6678 199.098 39.5675 199.521 39.5 199.95C39.335 200.745 39.12 201.855 38.885 203.115L39.005 203.03C38.72 202.99 38.425 202.95 38.12 202.92C36.8478 202.784 35.566 202.762 34.29 202.855C33.79 202.895 33.405 202.945 33.135 202.985C32.9965 203.002 32.8606 203.036 32.73 203.085Z" fill="#263238"/>
<path d="M30.7598 199.16C30.7598 199.195 31.3448 199.06 32.2898 198.94C33.5212 198.79 34.7657 198.778 35.9998 198.905L36.6548 198.985H36.7648V198.88C36.8948 197.58 36.9998 196.425 37.0698 195.6C37.1263 195.157 37.148 194.711 37.1348 194.265C37.0365 194.7 36.9681 195.141 36.9298 195.585C36.8248 196.41 36.6948 197.56 36.5548 198.855L36.6748 198.765L35.9998 198.695C34.7508 198.565 33.4901 198.598 32.2498 198.795C31.8742 198.853 31.502 198.932 31.1348 199.03C31.0051 199.058 30.8793 199.102 30.7598 199.16Z" fill="#263238"/>
<path d="M29.3398 162C29.4061 162.043 29.4765 162.08 29.5498 162.11L30.1598 162.38L32.4198 163.34L39.9198 166.445L40.3248 166.61L40.4198 166.65L40.4598 166.555C41.6948 163.765 42.8048 161.255 43.6248 159.41L44.5548 157.25L44.7998 156.66C44.8296 156.59 44.8531 156.518 44.8698 156.445C44.8267 156.506 44.7899 156.571 44.7598 156.64C44.6848 156.795 44.5948 156.985 44.4798 157.215L43.4798 159.35L40.2548 166.47L40.3948 166.415L39.9898 166.25L32.4998 163.2L30.2148 162.3L29.5898 162.065C29.51 162.031 29.4258 162.009 29.3398 162Z" fill="#263238"/>
<path d="M27.5 152.965C27.5568 153.016 27.6188 153.062 27.685 153.1L28.235 153.455L30.275 154.725L37.08 158.88L37.19 158.945L37.235 158.825L37.36 158.495L40.215 150.795C40.56 149.83 40.845 149.035 41.055 148.455L41.275 147.815C41.306 147.742 41.3262 147.664 41.335 147.585C41.2963 147.654 41.2629 147.726 41.235 147.8L41 148.425C40.78 149 40.47 149.785 40.095 150.745C39.345 152.745 38.32 155.435 37.185 158.425C37.145 158.535 37.1 158.65 37.065 158.75L37.215 158.695L30.36 154.6L28.285 153.385L27.715 153.065C27.6473 153.024 27.5752 152.99 27.5 152.965Z" fill="#263238"/>
<path d="M28.1099 148.145C28.2505 148.248 28.4013 148.337 28.5599 148.41C28.8549 148.575 29.2799 148.815 29.7949 149.135C31.1617 149.981 32.431 150.975 33.5799 152.1L33.8449 152.355L33.7549 151.995C33.6649 151.625 33.5799 151.23 33.5149 150.825C33.2282 148.968 33.3286 147.071 33.8099 145.255C33.9603 144.704 34.1389 144.162 34.3449 143.63C34.4365 143.442 34.5118 143.246 34.5699 143.045C34.4549 143.221 34.3546 143.407 34.2699 143.6C34.0339 144.123 33.8319 144.661 33.6649 145.21C33.135 147.043 33.0122 148.969 33.3049 150.855C33.3699 151.27 33.4599 151.67 33.5549 152.05L33.7299 151.95C32.5655 150.814 31.2677 149.823 29.8649 149C29.3349 148.695 28.8999 148.47 28.5949 148.33C28.439 148.254 28.2767 148.192 28.1099 148.145Z" fill="#263238"/>
<path d="M51.9648 195C51.9782 195.183 52.0101 195.364 52.0598 195.54C52.1298 195.885 52.2348 196.385 52.3498 197.005C52.6513 198.642 52.8401 200.297 52.9148 201.96V202.055H52.9998H53.4698C55.5448 202.18 57.4198 202.285 58.7798 202.345L60.3898 202.41C60.5861 202.428 60.7836 202.428 60.9798 202.41C60.7876 202.367 60.5918 202.342 60.3948 202.335L58.7898 202.2C57.4298 202.1 55.5548 201.975 53.4848 201.85L53.0148 201.825L53.1148 201.925C53.0412 200.27 52.8355 198.623 52.4998 197C52.3648 196.375 52.2398 195.88 52.1398 195.54C52.0993 195.355 52.0407 195.174 51.9648 195Z" fill="#263238"/>
<path d="M56.07 189.13C56.0637 189.312 56.0755 189.495 56.105 189.675C56.15 190.06 56.205 190.56 56.275 191.175C56.425 192.43 56.65 194.175 56.915 196.135V196.22H57L57.67 196.265C59.795 196.41 61.71 196.63 63.095 196.81L64.735 197.03C64.9329 197.067 65.1336 197.087 65.335 197.09C65.1436 197.023 64.9459 196.976 64.745 196.95C64.365 196.87 63.805 196.77 63.115 196.66C61.735 196.445 59.815 196.2 57.685 196.055L57.01 196.01L57.11 196.1C56.84 194.145 56.61 192.4 56.4 191.15C56.305 190.555 56.23 190.06 56.17 189.675C56.157 189.49 56.1234 189.307 56.07 189.13Z" fill="#263238"/>
<path d="M60.9047 186.59C60.8747 186.59 61.0047 187.165 61.1497 188.09C61.3502 189.314 61.4639 190.55 61.4897 191.79V191.905H61.6097L61.9597 191.86C63.2688 191.702 64.5862 191.623 65.9047 191.625H67.1097C67.2559 191.642 67.4036 191.642 67.5497 191.625C67.4084 191.583 67.2622 191.559 67.1147 191.555C66.8297 191.525 66.4197 191.49 65.9097 191.475C64.5823 191.427 63.2532 191.484 61.9347 191.645L61.5797 191.69L61.6997 191.795C61.6721 190.545 61.5366 189.301 61.2947 188.075C61.1997 187.61 61.1097 187.235 61.0397 186.98C61.014 186.844 60.9686 186.713 60.9047 186.59Z" fill="#263238"/>
<path d="M33.3647 192.5C33.6325 193.225 33.9448 193.933 34.2997 194.62C34.5901 195.336 34.924 196.034 35.2997 196.71C35.1243 195.943 34.8556 195.201 34.4997 194.5C34.2015 193.791 33.8205 193.12 33.3647 192.5Z" fill="#263238"/>
<path d="M30.7397 195.265C31.5401 195.387 32.333 195.554 33.1147 195.765C33.8759 196.038 34.6205 196.355 35.3447 196.715C34.7207 196.168 33.9777 195.774 33.1747 195.565C32.3968 195.28 31.5637 195.177 30.7397 195.265Z" fill="#263238"/>
</svg>
