<svg width="69" height="22" viewBox="0 0 69 22" fill="none" xmlns="http://www.w3.org/2000/svg">
<rect x="1" y="1" width="67" height="20" rx="3" fill="#BEE3CB"/>
<path d="M16.24 16L19.048 7.36H20.854L23.662 16H22.36L19.774 8.116H20.098L17.542 16H16.24ZM17.698 14.05V12.874H22.21V14.05H17.698ZM27.5104 16.18C26.8464 16.18 26.2824 16.032 25.8184 15.736C25.3544 15.44 24.9984 15.034 24.7504 14.518C24.5064 14.002 24.3824 13.416 24.3784 12.76C24.3824 12.092 24.5104 11.502 24.7624 10.99C25.0144 10.474 25.3744 10.07 25.8424 9.778C26.3104 9.486 26.8724 9.34 27.5284 9.34C28.2364 9.34 28.8404 9.516 29.3404 9.868C29.8444 10.22 30.1764 10.702 30.3364 11.314L29.0884 11.674C28.9644 11.31 28.7604 11.028 28.4764 10.828C28.1964 10.624 27.8744 10.522 27.5104 10.522C27.0984 10.522 26.7604 10.62 26.4964 10.816C26.2324 11.008 26.0364 11.272 25.9084 11.608C25.7804 11.944 25.7144 12.328 25.7104 12.76C25.7144 13.428 25.8664 13.968 26.1664 14.38C26.4704 14.792 26.9184 14.998 27.5104 14.998C27.9144 14.998 28.2404 14.906 28.4884 14.722C28.7404 14.534 28.9324 14.266 29.0644 13.918L30.3364 14.218C30.1244 14.85 29.7744 15.336 29.2864 15.676C28.7984 16.012 28.2064 16.18 27.5104 16.18ZM35.2668 16C34.8588 16.08 34.4588 16.114 34.0668 16.102C33.6748 16.09 33.3248 16.014 33.0168 15.874C32.7088 15.734 32.4768 15.514 32.3208 15.214C32.1808 14.946 32.1048 14.674 32.0928 14.398C32.0848 14.118 32.0808 13.802 32.0808 13.45V7.72H33.3408V13.39C33.3408 13.65 33.3428 13.876 33.3468 14.068C33.3548 14.26 33.3968 14.422 33.4728 14.554C33.6168 14.802 33.8448 14.944 34.1568 14.98C34.4728 15.012 34.8428 14.998 35.2668 14.938V16ZM30.8388 10.528V9.52H35.2668V10.528H30.8388ZM36.753 8.458V7.24H38.007V8.458H36.753ZM36.753 16V9.52H38.007V16H36.753ZM41.5608 16L39.2088 9.52H40.4748L42.1968 14.428L43.9188 9.52H45.1848L42.8328 16H41.5608ZM48.9054 16.18C48.2614 16.18 47.6954 16.04 47.2074 15.76C46.7234 15.476 46.3454 15.082 46.0734 14.578C45.8054 14.07 45.6714 13.482 45.6714 12.814C45.6714 12.106 45.8034 11.492 46.0674 10.972C46.3354 10.452 46.7074 10.05 47.1834 9.766C47.6594 9.482 48.2134 9.34 48.8454 9.34C49.5054 9.34 50.0674 9.494 50.5314 9.802C50.9954 10.106 51.3414 10.54 51.5694 11.104C51.8014 11.668 51.8934 12.338 51.8454 13.114H50.5914V12.658C50.5834 11.906 50.4394 11.35 50.1594 10.99C49.8834 10.63 49.4614 10.45 48.8934 10.45C48.2654 10.45 47.7934 10.648 47.4774 11.044C47.1614 11.44 47.0034 12.012 47.0034 12.76C47.0034 13.472 47.1614 14.024 47.4774 14.416C47.7934 14.804 48.2494 14.998 48.8454 14.998C49.2374 14.998 49.5754 14.91 49.8594 14.734C50.1474 14.554 50.3714 14.298 50.5314 13.966L51.7614 14.356C51.5094 14.936 51.1274 15.386 50.6154 15.706C50.1034 16.022 49.5334 16.18 48.9054 16.18ZM46.5954 13.114V12.136H51.2214V13.114H46.5954Z" fill="#438259"/>
<rect x="1" y="1" width="67" height="20" rx="3" stroke="#60BA7F" stroke-width="2"/>
</svg>
