<svg width="23" height="21" viewBox="0 0 23 21" fill="none" xmlns="http://www.w3.org/2000/svg">
<path d="M20.4123 2.58826C19.9106 2.08483 19.3145 1.6854 18.6581 1.41285C18.0017 1.1403 17.298 1 16.5873 1C15.8766 1 15.1728 1.1403 14.5165 1.41285C13.8601 1.6854 13.264 2.08483 12.7623 2.58826L11.9923 3.36826L11.2223 2.58826C10.7206 2.08483 10.1245 1.6854 9.46809 1.41285C8.81171 1.1403 8.10799 1 7.39727 1C6.68656 1 5.98283 1.1403 5.32645 1.41285C4.67007 1.6854 4.07395 2.08483 3.57227 2.58826C1.45227 4.70826 1.32227 8.28826 3.99227 11.0083L11.9923 19.0083L19.9923 11.0083C22.6623 8.28826 22.5323 4.70826 20.4123 2.58826Z" stroke="#DD5F5F" stroke-width="2" stroke-linecap="round" stroke-linejoin="round"/>
</svg>
