<svg width="32" height="32" viewBox="0 0 32 32" fill="none" xmlns="http://www.w3.org/2000/svg">
<rect width="32" height="32" rx="16" fill="white"/>
<path d="M23.0167 9.81671C22.5987 9.39719 22.1019 9.06433 21.5549 8.8372C21.0079 8.61008 20.4215 8.49316 19.8292 8.49316C19.237 8.49316 18.6505 8.61008 18.1036 8.8372C17.5566 9.06433 17.0598 9.39719 16.6417 9.81671L16.0001 10.4667L15.3584 9.81671C14.9403 9.39719 14.4436 9.06433 13.8966 8.8372C13.3496 8.61008 12.7632 8.49316 12.1709 8.49316C11.5786 8.49316 10.9922 8.61008 10.4452 8.8372C9.89824 9.06433 9.40147 9.39719 8.98341 9.81671C7.21674 11.5834 7.10841 14.5667 9.33341 16.8334L16.0001 23.5L22.6667 16.8334C24.8917 14.5667 24.7834 11.5834 23.0167 9.81671Z" stroke="black" stroke-width="1.6" stroke-linecap="round" stroke-linejoin="round"/>
</svg>
