<svg width="33" height="32" viewBox="0 0 33 32" fill="none" xmlns="http://www.w3.org/2000/svg">
<path d="M24.6774 9.59999H18.9885V7.46666C18.9878 7.08977 18.8377 6.72781 18.5711 6.46115C18.3051 6.19519 17.9431 6.04514 17.5663 6.04443H7.6107C7.23381 6.04514 6.87185 6.19448 6.60519 6.46115C6.33852 6.72781 6.18919 7.08977 6.18848 7.46666V24.5333C6.18919 24.9102 6.33923 25.2722 6.60519 25.5381C6.87185 25.8048 7.23381 25.9548 7.6107 25.9555H24.6774C25.0543 25.9548 25.4155 25.8048 25.6822 25.5381C25.9488 25.2715 26.0989 24.9102 26.0996 24.5333V11.0222C26.0989 10.6453 25.9488 10.2834 25.6822 10.0167C25.4162 9.75074 25.0543 9.6007 24.6774 9.59999ZM14.0107 24.5333H11.1663V20.9778H14.0107V24.5333ZM17.5663 24.5333H15.4329V20.9778C15.4322 20.6009 15.2822 20.2389 15.0155 19.973C14.7495 19.7063 14.3876 19.5563 14.0107 19.5555H11.1663C10.7894 19.5563 10.4274 19.7063 10.1607 19.973C9.89479 20.2389 9.74474 20.6009 9.74403 20.9778V24.5333H7.6107L7.60999 7.46666H17.5663V24.5333ZM24.6774 24.5333H18.9885V11.0222H24.6774V24.5333ZM22.544 16C22.544 16.1408 22.5021 16.278 22.4239 16.3954C22.3463 16.512 22.2347 16.603 22.1053 16.6571C21.9751 16.7111 21.8322 16.7246 21.6943 16.6976C21.5563 16.6699 21.4297 16.6023 21.3302 16.5027C21.2306 16.4032 21.1631 16.2766 21.1353 16.1387C21.1083 16.0007 21.1218 15.8578 21.1759 15.7276C21.2299 15.5982 21.3209 15.4866 21.4375 15.4091C21.5549 15.3308 21.6921 15.2889 21.8329 15.2889C22.0214 15.2889 22.2027 15.3635 22.3357 15.4972C22.4694 15.6302 22.544 15.8115 22.544 16ZM21.1218 13.1555C21.1218 13.0147 21.1638 12.8775 21.242 12.7602C21.3195 12.6435 21.4311 12.5525 21.5606 12.4985C21.6907 12.4444 21.8336 12.4309 21.9716 12.4579C22.1095 12.4857 22.2361 12.5532 22.3357 12.6528C22.4352 12.7523 22.5028 12.8789 22.5305 13.0169C22.5575 13.1548 22.544 13.2978 22.49 13.4279C22.4359 13.5573 22.3449 13.669 22.2283 13.7465C22.111 13.8247 21.9737 13.8667 21.8329 13.8667C21.6445 13.8667 21.4631 13.792 21.3302 13.6583C21.1965 13.5253 21.1218 13.344 21.1218 13.1555ZM15.4329 16C15.4329 16.1408 15.391 16.278 15.3127 16.3954C15.2352 16.512 15.1236 16.603 14.9942 16.6571C14.864 16.7111 14.7211 16.7246 14.5831 16.6976C14.4452 16.6699 14.3186 16.6023 14.2191 16.5027C14.1195 16.4032 14.0519 16.2766 14.0242 16.1387C13.9972 16.0007 14.0107 15.8578 14.0647 15.7276C14.1188 15.5982 14.2098 15.4866 14.3264 15.4091C14.4438 15.3308 14.581 15.2889 14.7218 15.2889C14.9103 15.2889 15.0916 15.3635 15.2246 15.4972C15.3583 15.6302 15.4329 15.8115 15.4329 16ZM15.4329 13.1555C15.4329 13.2963 15.391 13.4336 15.3127 13.5509C15.2352 13.6675 15.1236 13.7586 14.9942 13.8126C14.864 13.8667 14.7211 13.8802 14.5831 13.8531C14.4452 13.8254 14.3186 13.7579 14.2191 13.6583C14.1195 13.5587 14.0519 13.4322 14.0242 13.2942C13.9972 13.1563 14.0107 13.0133 14.0647 12.8832C14.1188 12.7538 14.2098 12.6421 14.3264 12.5646C14.4438 12.4864 14.581 12.4444 14.7218 12.4444C14.9103 12.4444 15.0916 12.5191 15.2246 12.6528C15.3583 12.7858 15.4329 12.9671 15.4329 13.1555ZM15.4329 10.3111C15.4329 10.4519 15.391 10.5891 15.3127 10.7065C15.2352 10.8231 15.1236 10.9141 14.9942 10.9682C14.864 11.0222 14.7211 11.0357 14.5831 11.0087C14.4452 10.981 14.3186 10.9134 14.2191 10.8139C14.1195 10.7143 14.0519 10.5877 14.0242 10.4498C13.9972 10.3118 14.0107 10.1689 14.0647 10.0387C14.1188 9.90932 14.2098 9.79768 14.3264 9.72017C14.4438 9.64194 14.581 9.59999 14.7218 9.59999C14.9103 9.59999 15.0916 9.67466 15.2246 9.80834C15.3583 9.94132 15.4329 10.1227 15.4329 10.3111ZM11.1663 16C11.1663 16.1408 11.1243 16.278 11.0461 16.3954C10.9686 16.512 10.8569 16.603 10.7275 16.6571C10.5974 16.7111 10.4544 16.7246 10.3165 16.6976C10.1785 16.6699 10.0519 16.6023 9.95239 16.5027C9.85283 16.4032 9.78528 16.2766 9.75754 16.1387C9.73052 16.0007 9.74403 15.8578 9.79808 15.7276C9.85212 15.5982 9.94314 15.4866 10.0598 15.4091C10.1771 15.3308 10.3143 15.2889 10.4551 15.2889C10.6436 15.2889 10.8249 15.3635 10.9579 15.4972C11.0916 15.6302 11.1663 15.8115 11.1663 16ZM11.1663 13.1555C11.1663 13.2963 11.1243 13.4336 11.0461 13.5509C10.9686 13.6675 10.8569 13.7586 10.7275 13.8126C10.5974 13.8667 10.4544 13.8802 10.3165 13.8531C10.1785 13.8254 10.0519 13.7579 9.95239 13.6583C9.85283 13.5587 9.78528 13.4322 9.75754 13.2942C9.73052 13.1563 9.74403 13.0133 9.79808 12.8832C9.85212 12.7538 9.94314 12.6421 10.0598 12.5646C10.1771 12.4864 10.3143 12.4444 10.4551 12.4444C10.6436 12.4444 10.8249 12.5191 10.9579 12.6528C11.0916 12.7858 11.1663 12.9671 11.1663 13.1555ZM11.1663 10.3111C11.1663 10.4519 11.1243 10.5891 11.0461 10.7065C10.9686 10.8231 10.8569 10.9141 10.7275 10.9682C10.5974 11.0222 10.4544 11.0357 10.3165 11.0087C10.1785 10.981 10.0519 10.9134 9.95239 10.8139C9.85283 10.7143 9.78528 10.5877 9.75754 10.4498C9.73052 10.3118 9.74403 10.1689 9.79808 10.0387C9.85212 9.90932 9.94314 9.79768 10.0598 9.72017C10.1771 9.64194 10.3143 9.59999 10.4551 9.59999C10.6436 9.59999 10.8249 9.67466 10.9579 9.80834C11.0916 9.94132 11.1663 10.1227 11.1663 10.3111Z" fill="#425C5A"/>
</svg>
