<svg width="32" height="32" viewBox="0 0 32 32" fill="none" xmlns="http://www.w3.org/2000/svg">
<path d="M28 16V25.3333C28 26.0406 27.719 26.7189 27.219 27.219C26.7189 27.719 26.0406 28 25.3333 28H6.66667C5.95942 28 5.28115 27.719 4.78105 27.219C4.28095 26.7189 4 26.0406 4 25.3333V6.66667C4 5.95942 4.28095 5.28115 4.78105 4.78105C5.28115 4.28095 5.95942 4 6.66667 4H16" stroke="black" stroke-width="2" stroke-linecap="round" stroke-linejoin="round"/>
<path d="M21.333 6.66669H29.333" stroke="black" stroke-width="2" stroke-linecap="round" stroke-linejoin="round"/>
<path d="M25.333 2.66669V10.6667" stroke="black" stroke-width="2" stroke-linecap="round" stroke-linejoin="round"/>
<path d="M11.9997 14.6666C13.4724 14.6666 14.6663 13.4727 14.6663 12C14.6663 10.5272 13.4724 9.33331 11.9997 9.33331C10.5269 9.33331 9.33301 10.5272 9.33301 12C9.33301 13.4727 10.5269 14.6666 11.9997 14.6666Z" stroke="black" stroke-width="2" stroke-linecap="round" stroke-linejoin="round"/>
<path d="M28 20L23.8853 15.8853C23.3853 15.3854 22.7071 15.1046 22 15.1046C21.2929 15.1046 20.6147 15.3854 20.1147 15.8853L8 28" stroke="black" stroke-width="2" stroke-linecap="round" stroke-linejoin="round"/>
</svg>
