<svg width="96" height="22" viewBox="0 0 96 22" fill="none" xmlns="http://www.w3.org/2000/svg">
<rect x="1" y="1" width="94" height="20" rx="3" fill="#F1BDBD"/>
<path d="M16.84 16V7.36H18.112L22.366 13.78V7.36H23.638V16H22.366L18.112 9.574V16H16.84ZM28.1267 16.18C27.4787 16.18 26.9167 16.034 26.4407 15.742C25.9647 15.45 25.5967 15.048 25.3367 14.536C25.0807 14.02 24.9527 13.426 24.9527 12.754C24.9527 12.078 25.0847 11.484 25.3487 10.972C25.6127 10.456 25.9827 10.056 26.4587 9.772C26.9347 9.484 27.4907 9.34 28.1267 9.34C28.7747 9.34 29.3367 9.486 29.8127 9.778C30.2887 10.07 30.6567 10.472 30.9167 10.984C31.1767 11.496 31.3067 12.086 31.3067 12.754C31.3067 13.43 31.1747 14.026 30.9107 14.542C30.6507 15.054 30.2827 15.456 29.8067 15.748C29.3307 16.036 28.7707 16.18 28.1267 16.18ZM28.1267 14.998C28.7467 14.998 29.2087 14.79 29.5127 14.374C29.8207 13.954 29.9747 13.414 29.9747 12.754C29.9747 12.078 29.8187 11.538 29.5067 11.134C29.1987 10.726 28.7387 10.522 28.1267 10.522C27.7067 10.522 27.3607 10.618 27.0887 10.81C26.8167 10.998 26.6147 11.26 26.4827 11.596C26.3507 11.928 26.2847 12.314 26.2847 12.754C26.2847 13.434 26.4407 13.978 26.7527 14.386C27.0647 14.794 27.5227 14.998 28.1267 14.998ZM37.1732 16V12.814C37.1732 12.562 37.1512 12.304 37.1072 12.04C37.0672 11.772 36.9872 11.524 36.8672 11.296C36.7512 11.068 36.5852 10.884 36.3692 10.744C36.1572 10.604 35.8792 10.534 35.5352 10.534C35.3112 10.534 35.0992 10.572 34.8992 10.648C34.6992 10.72 34.5232 10.838 34.3712 11.002C34.2232 11.166 34.1052 11.382 34.0172 11.65C33.9332 11.918 33.8912 12.244 33.8912 12.628L33.1112 12.334C33.1112 11.746 33.2212 11.228 33.4412 10.78C33.6612 10.328 33.9772 9.976 34.3892 9.724C34.8012 9.472 35.2992 9.346 35.8832 9.346C36.3312 9.346 36.7072 9.418 37.0112 9.562C37.3152 9.706 37.5612 9.896 37.7492 10.132C37.9412 10.364 38.0872 10.618 38.1872 10.894C38.2872 11.17 38.3552 11.44 38.3912 11.704C38.4272 11.968 38.4452 12.2 38.4452 12.4V16H37.1732ZM32.6192 16V9.52H33.7412V11.392H33.8912V16H32.6192ZM39.888 12.718V11.71H43.488V12.718H39.888ZM46.877 16.18C46.397 16.18 45.995 16.092 45.671 15.916C45.347 15.736 45.101 15.5 44.933 15.208C44.769 14.912 44.687 14.588 44.687 14.236C44.687 13.908 44.745 13.62 44.861 13.372C44.977 13.124 45.149 12.914 45.377 12.742C45.605 12.566 45.885 12.424 46.217 12.316C46.505 12.232 46.831 12.158 47.195 12.094C47.559 12.03 47.941 11.97 48.341 11.914C48.745 11.858 49.145 11.802 49.541 11.746L49.085 11.998C49.093 11.49 48.985 11.114 48.761 10.87C48.541 10.622 48.161 10.498 47.621 10.498C47.281 10.498 46.969 10.578 46.685 10.738C46.401 10.894 46.203 11.154 46.091 11.518L44.921 11.158C45.081 10.602 45.385 10.16 45.833 9.832C46.285 9.504 46.885 9.34 47.633 9.34C48.213 9.34 48.717 9.44 49.145 9.64C49.577 9.836 49.893 10.148 50.093 10.576C50.197 10.788 50.261 11.012 50.285 11.248C50.309 11.484 50.321 11.738 50.321 12.01V16H49.211V14.518L49.427 14.71C49.159 15.206 48.817 15.576 48.401 15.82C47.989 16.06 47.481 16.18 46.877 16.18ZM47.099 15.154C47.455 15.154 47.761 15.092 48.017 14.968C48.273 14.84 48.479 14.678 48.635 14.482C48.791 14.286 48.893 14.082 48.941 13.87C49.009 13.678 49.047 13.462 49.055 13.222C49.067 12.982 49.073 12.79 49.073 12.646L49.481 12.796C49.085 12.856 48.725 12.91 48.401 12.958C48.077 13.006 47.783 13.054 47.519 13.102C47.259 13.146 47.027 13.2 46.823 13.264C46.651 13.324 46.497 13.396 46.361 13.48C46.229 13.564 46.123 13.666 46.043 13.786C45.967 13.906 45.929 14.052 45.929 14.224C45.929 14.392 45.971 14.548 46.055 14.692C46.139 14.832 46.267 14.944 46.439 15.028C46.611 15.112 46.831 15.154 47.099 15.154ZM54.6511 16.18C53.9871 16.18 53.4231 16.032 52.9591 15.736C52.4951 15.44 52.1391 15.034 51.8911 14.518C51.6471 14.002 51.5231 13.416 51.5191 12.76C51.5231 12.092 51.6511 11.502 51.9031 10.99C52.1551 10.474 52.5151 10.07 52.9831 9.778C53.4511 9.486 54.0131 9.34 54.6691 9.34C55.3771 9.34 55.9811 9.516 56.4811 9.868C56.9851 10.22 57.3171 10.702 57.4771 11.314L56.2291 11.674C56.1051 11.31 55.9011 11.028 55.6171 10.828C55.3371 10.624 55.0151 10.522 54.6511 10.522C54.2391 10.522 53.9011 10.62 53.6371 10.816C53.3731 11.008 53.1771 11.272 53.0491 11.608C52.9211 11.944 52.8551 12.328 52.8511 12.76C52.8551 13.428 53.0071 13.968 53.3071 14.38C53.6111 14.792 54.0591 14.998 54.6511 14.998C55.0551 14.998 55.3811 14.906 55.6291 14.722C55.8811 14.534 56.0731 14.266 56.2051 13.918L57.4771 14.218C57.2651 14.85 56.9151 15.336 56.4271 15.676C55.9391 16.012 55.3471 16.18 54.6511 16.18ZM62.4074 16C61.9994 16.08 61.5994 16.114 61.2074 16.102C60.8154 16.09 60.4654 16.014 60.1574 15.874C59.8494 15.734 59.6174 15.514 59.4614 15.214C59.3214 14.946 59.2454 14.674 59.2334 14.398C59.2254 14.118 59.2214 13.802 59.2214 13.45V7.72H60.4814V13.39C60.4814 13.65 60.4834 13.876 60.4874 14.068C60.4954 14.26 60.5374 14.422 60.6134 14.554C60.7574 14.802 60.9854 14.944 61.2974 14.98C61.6134 15.012 61.9834 14.998 62.4074 14.938V16ZM57.9794 10.528V9.52H62.4074V10.528H57.9794ZM63.8936 8.458V7.24H65.1476V8.458H63.8936ZM63.8936 16V9.52H65.1476V16H63.8936ZM68.7014 16L66.3494 9.52H67.6154L69.3374 14.428L71.0594 9.52H72.3254L69.9734 16H68.7014ZM76.046 16.18C75.402 16.18 74.836 16.04 74.348 15.76C73.864 15.476 73.486 15.082 73.214 14.578C72.946 14.07 72.812 13.482 72.812 12.814C72.812 12.106 72.944 11.492 73.208 10.972C73.476 10.452 73.848 10.05 74.324 9.766C74.8 9.482 75.354 9.34 75.986 9.34C76.646 9.34 77.208 9.494 77.672 9.802C78.136 10.106 78.482 10.54 78.71 11.104C78.942 11.668 79.034 12.338 78.986 13.114H77.732V12.658C77.724 11.906 77.58 11.35 77.3 10.99C77.024 10.63 76.602 10.45 76.034 10.45C75.406 10.45 74.934 10.648 74.618 11.044C74.302 11.44 74.144 12.012 74.144 12.76C74.144 13.472 74.302 14.024 74.618 14.416C74.934 14.804 75.39 14.998 75.986 14.998C76.378 14.998 76.716 14.91 77 14.734C77.288 14.554 77.512 14.298 77.672 13.966L78.902 14.356C78.65 14.936 78.268 15.386 77.756 15.706C77.244 16.022 76.674 16.18 76.046 16.18ZM73.736 13.114V12.136H78.362V13.114H73.736Z" fill="#9B4343"/>
<rect x="1" y="1" width="94" height="20" rx="3" stroke="#DD5F5F" stroke-width="2"/>
</svg>
