<svg width="33" height="32" viewBox="0 0 33 32" fill="none" xmlns="http://www.w3.org/2000/svg">
<path d="M20.6651 10.1177C20.6651 10.1668 20.6644 10.2158 20.6636 10.2649L20.6629 10.3218V10.3303V10.3389L20.6665 10.5259V10.5323V10.5387L20.6864 10.8772L20.6878 10.9142L20.6985 10.9504C20.8428 11.4795 21.1536 11.9389 21.6578 12.2674C22.1236 12.5703 22.7351 12.7488 23.4939 12.7901V13.5019C22.5346 13.4521 21.7787 13.2018 21.2162 12.8221L20.6615 12.4473V13.1165V15.2889V15.6445H21.0171H21.7282C21.8412 15.6445 21.9465 15.6985 22.0133 15.7874L22.0468 15.8407L27.0188 25.0759C27.1383 25.2971 26.9961 25.5638 26.7572 25.5965L26.6967 25.6H6.79485C6.54382 25.6 6.376 25.3483 6.46062 25.1229L6.48694 25.0674L11.4597 15.8315C11.518 15.7234 11.6133 15.6637 11.7179 15.6487L11.7449 15.6445H19.5948H19.9504V15.2889L19.9518 13.1172V12.448L19.3972 12.8221C18.8347 13.2018 18.0795 13.4521 17.1202 13.5019V12.7901C17.8484 12.7502 18.44 12.5846 18.898 12.3037C19.4356 11.9744 19.7662 11.5008 19.9156 10.9504L19.9248 10.9177L19.9276 10.8843L19.9383 10.7534V10.7478V10.7421L19.9476 10.5344V10.5245L19.9504 10.351V10.3453L19.9518 9.57016V8.79362L19.3637 9.30065C18.8076 9.77994 18.066 10.0942 17.1202 10.1575V9.44429C17.8484 9.38598 18.4471 9.14705 18.91 8.74456C19.4427 8.28091 19.7605 7.63167 19.9106 6.88927L19.912 6.88287L19.9134 6.87647L19.9276 6.78474L19.9291 6.77905V6.77407C19.9412 6.68376 19.949 6.58989 19.9518 6.50171V6.48678V6.47256L19.949 6.41638V6.40002H20.6615V6.55362H20.6651C20.6686 6.62829 20.6757 6.70296 20.685 6.77407V6.77905L20.6864 6.78474L20.7013 6.87647L20.7028 6.88287L20.7035 6.88927C20.8478 7.60607 21.1486 8.23611 21.65 8.6962C22.1186 9.12642 22.7358 9.38385 23.4939 9.44429V10.1575C22.5474 10.0942 21.805 9.77851 21.2489 9.29922L20.6615 8.79149V9.56874V9.80198V10.1177H20.6651ZM11.4171 18.8196L10.7479 18.651L7.67307 24.3648L7.39005 24.8889H7.98596H11.0615H11.4171V24.5334V18.8196ZM25.5156 24.8882H26.11L25.8277 24.3641L21.6165 16.5419L21.5156 16.3549H21.3036L12.9637 16.3556H12.3678L12.6494 16.8797L16.8613 24.7019L16.9623 24.8889H17.1749L25.5156 24.8882ZM12.7966 18.6532L12.1282 18.8217V24.5334V24.8889H12.4837H15.56H16.1545L15.8722 24.3648L12.7966 18.6532ZM11.0615 7.82225C12.4361 7.82225 13.5504 8.93656 13.5504 10.3111C13.5504 11.6857 12.4361 12.8 11.0615 12.8C9.68694 12.8 8.57262 11.6857 8.57262 10.3111C8.57262 8.93656 9.68694 7.82225 11.0615 7.82225ZM11.0615 8.53336C10.0795 8.53336 9.28373 9.32909 9.28373 10.3111C9.28373 11.2932 10.0795 12.0889 11.0615 12.0889C12.0436 12.0889 12.8393 11.2932 12.8393 10.3111C12.8393 9.32909 12.0436 8.53336 11.0615 8.53336Z" fill="#9FA7AD"/>
<path d="M20.6651 10.1177C20.6651 10.1668 20.6644 10.2158 20.6636 10.2649L20.6629 10.3218V10.3303V10.3389L20.6665 10.5259V10.5323V10.5387L20.6864 10.8772L20.6878 10.9142L20.6985 10.9504C20.8428 11.4795 21.1536 11.9389 21.6578 12.2674C22.1236 12.5703 22.7351 12.7488 23.4939 12.7901V13.5019C22.5346 13.4521 21.7787 13.2018 21.2162 12.8221L20.6615 12.4473V13.1165V15.2889V15.6445H21.0171H21.7282C21.8412 15.6445 21.9465 15.6985 22.0133 15.7874L22.0468 15.8407L27.0188 25.0759C27.1383 25.2971 26.9961 25.5638 26.7572 25.5965L26.6967 25.6H6.79485C6.54382 25.6 6.376 25.3483 6.46062 25.1229L6.48694 25.0674L11.4597 15.8315C11.518 15.7234 11.6133 15.6637 11.7179 15.6487L11.7449 15.6445H19.5948H19.9504V15.2889L19.9518 13.1172V12.448L19.3972 12.8221C18.8347 13.2018 18.0795 13.4521 17.1202 13.5019V12.7901C17.8484 12.7502 18.44 12.5846 18.898 12.3037C19.4356 11.9744 19.7662 11.5008 19.9156 10.9504L19.9248 10.9177L19.9276 10.8843L19.9383 10.7534V10.7478V10.7421L19.9476 10.5344V10.5245L19.9504 10.351V10.3453L19.9518 9.57016V8.79362L19.3637 9.30065C18.8076 9.77994 18.066 10.0942 17.1202 10.1575V9.44429C17.8484 9.38598 18.4471 9.14705 18.91 8.74456C19.4427 8.28091 19.7605 7.63167 19.9106 6.88927L19.912 6.88287L19.9134 6.87647L19.9276 6.78474L19.9291 6.77905V6.77407C19.9412 6.68376 19.949 6.58989 19.9518 6.50171V6.48678V6.47256L19.949 6.41638V6.40002H20.6615V6.55362H20.6651C20.6686 6.62829 20.6757 6.70296 20.685 6.77407V6.77905L20.6864 6.78474L20.7013 6.87647L20.7028 6.88287L20.7035 6.88927C20.8478 7.60607 21.1486 8.23611 21.65 8.6962C22.1186 9.12642 22.7358 9.38385 23.4939 9.44429V10.1575C22.5474 10.0942 21.805 9.77851 21.2489 9.29922L20.6615 8.79149V9.56874V9.80198V10.1177H20.6651ZM11.4171 18.8196L10.7479 18.651L7.67307 24.3648L7.39005 24.8889H7.98596H11.0615H11.4171V24.5334V18.8196ZM25.5156 24.8882H26.11L25.8277 24.3641L21.6165 16.5419L21.5156 16.3549H21.3036L12.9637 16.3556H12.3678L12.6494 16.8797L16.8613 24.7019L16.9623 24.8889H17.1749L25.5156 24.8882ZM12.7966 18.6532L12.1282 18.8217V24.5334V24.8889H12.4837H15.56H16.1545L15.8722 24.3648L12.7966 18.6532ZM11.0615 7.82225C12.4361 7.82225 13.5504 8.93656 13.5504 10.3111C13.5504 11.6857 12.4361 12.8 11.0615 12.8C9.68694 12.8 8.57262 11.6857 8.57262 10.3111C8.57262 8.93656 9.68694 7.82225 11.0615 7.82225ZM11.0615 8.53336C10.0795 8.53336 9.28373 9.32909 9.28373 10.3111C9.28373 11.2932 10.0795 12.0889 11.0615 12.0889C12.0436 12.0889 12.8393 11.2932 12.8393 10.3111C12.8393 9.32909 12.0436 8.53336 11.0615 8.53336Z" stroke="#9FA7AD" stroke-width="0.8"/>
</svg>
