<svg width="26" height="26" viewBox="0 0 26 26" fill="none" xmlns="http://www.w3.org/2000/svg">
<path d="M18.5 19.5V17.8333C18.5 16.9493 18.1689 16.1014 17.5795 15.4763C16.9901 14.8512 16.1907 14.5 15.3571 14.5H10.6429C9.80932 14.5 9.00992 14.8512 8.42052 15.4763C7.83112 16.1014 7.5 16.9493 7.5 17.8333V19.5" stroke="#425C5A" stroke-width="2" stroke-linecap="round" stroke-linejoin="round"/>
<path d="M13 11.5C14.6569 11.5 16 10.1569 16 8.5C16 6.84315 14.6569 5.5 13 5.5C11.3431 5.5 10 6.84315 10 8.5C10 10.1569 11.3431 11.5 13 11.5Z" stroke="#425C5A" stroke-width="2" stroke-linecap="round" stroke-linejoin="round"/>
<rect x="1" y="1" width="24" height="24" rx="12" stroke="#425C5A" stroke-width="2" stroke-linejoin="round"/>
</svg>
