<svg width="33" height="32" viewBox="0 0 33 32" fill="none" xmlns="http://www.w3.org/2000/svg">
<path d="M25.3887 6.04443C25.7478 6.04443 26.0934 6.17954 26.3565 6.42346C26.6189 6.66808 26.7803 7.0023 26.8073 7.35999L26.8109 7.46666V8.88888C26.8109 9.24799 26.6758 9.59359 26.4319 9.8567C26.1872 10.1198 25.853 10.2805 25.4953 10.3075L25.3887 10.3111V16.7111H26.8109V18.1333H25.3887V24.5333C25.3887 24.8924 25.2535 25.238 25.0096 25.5011C24.765 25.7635 24.4308 25.925 24.0731 25.952L23.9664 25.9555H8.32198C7.96287 25.9555 7.61727 25.8204 7.35416 25.5758C7.09105 25.3319 6.93034 24.9977 6.90332 24.64L6.89976 24.5333V18.1333H5.47754V16.7111H6.89976V10.3111L6.79309 10.3075C6.45461 10.2819 6.13603 10.1362 5.89567 9.89652C5.65532 9.65688 5.50812 9.33901 5.48181 9.00052L5.47754 8.88888V7.46666C5.47754 7.10754 5.61265 6.76194 5.85656 6.49883C6.10118 6.23572 6.43541 6.07501 6.79309 6.04799L6.89976 6.04443H25.3887ZM23.9664 18.1333H8.32198V24.5333H9.74421V22.4C9.74421 21.6576 10.0343 20.9451 10.552 20.4139C11.0704 19.8827 11.7758 19.5747 12.5175 19.5563C13.2592 19.5378 13.9789 19.8101 14.5229 20.3143C15.0669 20.8192 15.3926 21.5168 15.4295 22.2578L15.4331 22.4V24.5333H16.8553V22.4C16.8553 21.6576 17.1455 20.9451 17.6631 20.4139C18.1815 19.8827 18.887 19.5747 19.6287 19.5563C20.3703 19.5378 21.09 19.8101 21.634 20.3143C22.178 20.8192 22.5037 21.5168 22.5406 22.2578L22.5442 22.4V24.5333H23.9664V18.1333ZM12.5887 20.9778C12.2295 20.9778 11.8839 21.1129 11.6208 21.3568C11.3577 21.6014 11.197 21.9356 11.17 22.2933L11.1664 22.4V24.5333H14.0109V22.4C14.0109 22.0231 13.8608 21.6611 13.5942 21.3945C13.3275 21.1278 12.9655 20.9778 12.5887 20.9778ZM19.6998 20.9778C19.3407 20.9778 18.9951 21.1129 18.7319 21.3568C18.4695 21.6014 18.3081 21.9356 18.2811 22.2933L18.2775 22.4V24.5333H21.122V22.4C21.122 22.0231 20.9719 21.6611 20.7053 21.3945C20.4386 21.1278 20.0767 20.9778 19.6998 20.9778ZM23.9664 10.3111H8.32198V16.7111H9.74421V14.5778C9.74421 13.8354 10.0343 13.1228 10.552 12.5916C11.0704 12.0604 11.7758 11.7525 12.5175 11.734C13.2592 11.7155 13.9789 11.9879 14.5229 12.4921C15.0669 12.997 15.3926 13.6946 15.4295 14.4355L15.4331 14.5778V16.7111H16.8553V14.5778C16.8553 13.8354 17.1455 13.1228 17.6631 12.5916C18.1815 12.0604 18.887 11.7525 19.6287 11.734C20.3703 11.7155 21.09 11.9879 21.634 12.4921C22.178 12.997 22.5037 13.6946 22.5406 14.4355L22.5442 14.5778V16.7111H23.9664V10.3111ZM12.5887 13.1555C12.2295 13.1555 11.8839 13.2907 11.6208 13.5346C11.3577 13.7792 11.197 14.1134 11.17 14.4711L11.1664 14.5778V16.7111H14.0109V14.5778C14.0109 14.2009 13.8608 13.8389 13.5942 13.5723C13.3275 13.3056 12.9655 13.1555 12.5887 13.1555ZM19.6998 13.1555C19.3407 13.1555 18.9951 13.2907 18.7319 13.5346C18.4695 13.7792 18.3081 14.1134 18.2811 14.4711L18.2775 14.5778V16.7111H21.122V14.5778C21.122 14.2009 20.9719 13.8389 20.7053 13.5723C20.4386 13.3056 20.0767 13.1555 19.6998 13.1555ZM25.3887 7.46666H6.89976V8.88888H25.3887V7.46666Z" fill="#9FA7AD"/>
</svg>
