<svg width="20" height="20" viewBox="0 0 20 20" fill="none" xmlns="http://www.w3.org/2000/svg">
<path d="M10.0003 15.8332C8.08366 15.8332 4.66699 15.6665 3.25033 15.3332C2.66699 15.1665 2.25033 14.7498 2.08366 14.1665C1.83366 13.2498 1.66699 11.3332 1.66699 9.99984C1.66699 8.6665 1.83366 6.74984 2.08366 5.83317C2.25033 5.24984 2.66699 4.83317 3.25033 4.6665C4.66699 4.33317 8.08366 4.1665 10.0003 4.1665C11.917 4.1665 15.3337 4.33317 16.7503 4.6665C17.3337 4.83317 17.7503 5.24984 17.917 5.83317C18.167 6.74984 18.3337 8.6665 18.3337 9.99984C18.3337 11.3332 18.167 13.2498 17.917 14.1665C17.7503 14.7498 17.3337 15.1665 16.7503 15.3332C15.3337 15.6665 11.917 15.8332 10.0003 15.8332Z" stroke="#637573" stroke-width="1.6" stroke-linecap="round" stroke-linejoin="round"/>
<path d="M8.33301 12.5L12.4997 10L8.33301 7.5V12.5Z" stroke="#637573" stroke-width="1.6" stroke-linecap="round" stroke-linejoin="round"/>
</svg>
